<?xml version="1.0" standalone="no"?>
<!DOCTYPE svg PUBLIC "-//W3C//DTD SVG 1.1//EN" "http://www.w3.org/Graphics/SVG/1.1/DTD/svg11.dtd" >
<svg xmlns="http://www.w3.org/2000/svg">
<metadata>Generated by IcoMoon</metadata>
<defs>
<font id="icomoon" horiz-adv-x="1024">
<font-face units-per-em="1024" ascent="960" descent="-64" />
<missing-glyph horiz-adv-x="1024" />
<glyph unicode="&#x20;" horiz-adv-x="512" d="" />
<glyph unicode="&#xe900;" glyph-name="attention_arrow_1" d="M512-9.2c-20 0-36.4 16.4-36.4 36.4v752.4l-248-247.6c-13.6-13.6-35.2-14.4-49.2-2l-2.4 2c-13.6 13.6-14.4 35.2-2 49.2l2 2.8 307.2 307.2c6.8 8.8 17.2 14 28.8 14 10.8 0 20.8-4.8 27.2-12.4l309.2-308.8c14.4-14.4 14.4-37.6 0-51.6-14.4-14.4-37.6-14.4-51.6 0l-248 248v-752.8c-0.4-20.4-16.8-36.8-36.8-36.8z" />
<glyph unicode="&#xe901;" glyph-name="attention_arrow_2" d="M512 905.2c20 0 36.4-16.4 36.4-36.4v-752.4l247.6 247.6c13.6 13.6 35.2 14.4 49.2 2l2.4-2c13.6-13.6 14.4-35.2 2-49.2l-1.6-2.8-307.2-307.2c-6.8-8.8-17.2-14-28.8-14-10.8 0-20.8 4.8-27.2 12.4l-309.2 308.8c-14.4 14.4-14.4 37.6 0 51.6 14.4 14.4 37.6 14.4 51.6 0l248-248v752.8c0.4 20.4 16.8 36.8 36.8 36.8z" />
<glyph unicode="&#xe902;" glyph-name="attention_arrow_3" d="M968.4 448c0-20-16.4-36.4-36.4-36.4h-752.4l247.6-247.6c13.6-13.6 14.4-35.2 2-49.2l-2-2.4c-13.6-13.6-35.2-14.4-49.2-2l-2.4 2-307.2 307.2c-8.8 6.8-14 17.2-14 28.8 0 10.8 4.8 20.8 12.4 27.2l308.8 308.4c14.4 14.4 37.6 14.4 51.6 0 14.4-14.4 14.4-37.6 0-51.6l-248-248h752.8c20.4 0 36.4-16.4 36.4-36.4z" />
<glyph unicode="&#xe903;" glyph-name="attention_arrow_4" d="M45.6 438.8c0 20 16.4 36.4 36.4 36.4h752.4l-247.6 247.6c-13.6 13.6-14.4 35.2-2 49.2l2 2.4c13.6 13.6 35.2 14.4 49.2 2l2.4-2 307.2-307.2c8.8-6.8 14-17.2 14-28.8 0-10.8-4.8-20.8-12.4-27.2l-309.2-309.2c-14.4-14.4-37.6-14.4-51.6 0-14.4 14.4-14.4 37.6 0 51.6l248 248h-752.8c-19.6 0.8-36 17.2-36 37.2z" />
<glyph unicode="&#xe904;" glyph-name="attention_arrow_5" d="M841.6 109.2c-14.4-14.4-37.6-14.4-51.6 0l-532 532v-350.4c0-19.2-14.8-34.8-33.6-36.4h-3.2c-19.2 0-34.8 14.8-36.4 33.6v437.6c-1.2 10.8 2 22 10.4 30.4 7.6 7.6 18 11.2 28 10.8h437.2c20 0 36.4-16.4 36.4-36.4s-16.4-36.4-36.4-36.4h-350.8l532.4-532.4c14-15.2 14-38-0.4-52.4z" />
<glyph unicode="&#xe905;" glyph-name="attention_arrow_6" d="M182.4 109.2c14.4-14.4 37.6-14.4 51.6 0l532 532v-350.4c0-19.2 14.8-34.8 33.6-36.4h3.2c19.2 0 34.8 14.8 36.4 33.6v437.6c1.2 10.8-2 22-10.4 30.4-7.6 7.6-18 11.2-28 10.8h-437.2c-20 0-36.4-16.4-36.4-36.4s16.4-36.4 36.4-36.4h350.8l-532-533.2c-14.4-14.4-14.4-37.2 0-51.6z" />
<glyph unicode="&#xe906;" glyph-name="attention_arrow_7" d="M828.4 782c-14.4 14.4-37.6 14.4-51.6 0l-532-532v350.4c0 19.2-14.8 34.8-33.6 36.4h-3.2c-19.2 0-34.8-14.8-36.4-33.6v-437.6c-1.2-10.8 2-22 10.4-30.4 7.6-7.6 18-11.2 28-10.8h437.2c20 0 36.4 16.4 36.4 36.4s-16.4 36.4-36.4 36.4h-350.8l532 533.2c14 14 14 37.2 0 51.6z" />
<glyph unicode="&#xe907;" glyph-name="attention_arrow_8" d="M512.8-27.6c-20 0-36.4 16.4-36.4 36.4v548.4h-218.8c-10 0-18.4 8-18.4 18.4 0 4 1.6 8 4 11.6l255.2 318c6.4 8 18 9.2 25.6 2.8 1.2-0.8 2-2 2.8-2.8l254-318c6.4-8 5.2-19.2-2.8-25.6-3.2-2.4-7.2-4-11.6-4h-217.2v-548.4c0-20.4-16.4-36.8-36.4-36.8z" />
<glyph unicode="&#xe908;" glyph-name="attention_arrow_9" d="M511.2 923.6c20 0 36.4-16.4 36.4-36.4v-548.4h218.4c10 0 18.4-8 18.4-18.4 0-4-1.6-8-4-11.6l-255.2-318c-6.4-8-18-9.2-25.6-2.8-1.2 0.8-2 2-2.8 2.8l-254 318c-6.4 8-5.2 19.2 2.8 25.6 3.2 2.4 7.2 4 11.6 4h217.2v548.4c0.4 20.4 16.8 36.8 36.8 36.8z" />
<glyph unicode="&#xe909;" glyph-name="attention_arrow_10" d="M987.6 448.8c0-20-16.4-36.4-36.4-36.4h-548.4v-218.4c0-10-8-18.4-18.4-18.4-4 0-8 1.6-11.6 4l-318 255.2c-8 6.4-9.2 18-2.8 25.6 0.8 1.2 2 2 2.8 2.8l318 254c8 6.4 19.2 5.2 25.6-2.8 2.4-3.2 4-7.2 4-11.6v-217.2h548.4c20.4-0.4 36.8-16.8 36.8-36.8z" />
<glyph unicode="&#xe90a;" glyph-name="attention_arrow_11" d="M36.4 447.2c0 20 16.4 36.4 36.4 36.4h548.4v218.8c0 10 8 18.4 18.4 18.4 4 0 8-1.6 11.6-4l318-255.2c8-6.4 9.2-18 2.8-25.6-0.8-1.2-2-2-2.8-2.8l-318-254c-8-6.4-19.2-5.2-25.6 2.8-2.4 3.2-4 7.2-4 11.6v217.2h-548.4c-20.4 0-36.8 16.4-36.8 36.4z" />
<glyph unicode="&#xe90b;" glyph-name="attention_arrow_12" d="M839.2 114.4c-14.4-14.4-37.6-14.4-51.6 0l-388 388-154.4-154.4c-7.2-7.2-18.8-7.2-26 0-2.8 2.8-4.8 6.8-5.2 10.8l-44.8 405.6c-1.2 10 6 19.2 16 20 1.2 0 2.8 0 4 0l404.4-45.2c10-1.2 17.2-10 16-20.4-0.4-4-2.4-8-5.2-10.8l-153.6-153.6 388-388c14.8-14.4 14.8-37.6 0.4-52z" />
<glyph unicode="&#xe90c;" glyph-name="attention_arrow_13" d="M846.8 785.6c14.4-14.4 14.4-37.6 0-51.6l-395.6-395.6 154.4-154.4c7.2-7.2 7.2-18.8 0-26-2.8-2.8-6.8-4.8-10.8-5.2l-405.2-44.4c-10-1.2-19.2 6-20 16 0 1.2 0 2.8 0 4l45.2 404.4c1.2 10 10 17.2 20.4 16 4-0.4 8-2.4 10.8-5.2l153.6-153.6 395.6 395.6c14 14.4 37.2 14.4 51.6 0z" />
<glyph unicode="&#xe90d;" glyph-name="attention_arrow_14" d="M181.6 779.2c-14.4-14.4-14.4-37.6 0-51.6l395.6-395.6-154.4-154.4c-7.2-7.2-7.2-18.8 0-26 2.8-2.8 6.8-4.8 10.8-5.2l405.2-44.8c10-1.2 19.2 6 20 16 0 1.2 0 2.8 0 4l-45.2 404.4c-1.2 10-10 17.2-20.4 16-4-0.4-8-2.4-10.8-5.2l-153.6-152.8-395.6 395.2c-14 14.4-37.2 14.4-51.6 0z" />
<glyph unicode="&#xe90e;" glyph-name="attention_fixation" d="M426.4 744c-2.8 8-11.6 12.4-19.6 9.6-94-32.4-168.4-106.8-200.4-200.8-2.8-8 1.6-16.8 9.6-19.6s16.8 1.6 19.6 9.6c28.8 85.2 96.4 152.4 181.2 181.6 8 2.8 12.4 11.6 9.6 19.6zM417.2 171.6c-84.8 29.2-152.4 96.4-181.6 181.2-2.8 8-11.6 12.4-19.6 9.6s-12.4-11.6-9.6-19.6c32.4-94 106.8-168 200.8-200 8-2.8 16.8 1.6 19.6 9.6 2.8 7.6-1.6 16.4-9.6 19.2zM607.6 724.4c84.8-29.2 151.6-96.4 180.8-181.2 2.8-8 11.6-12.4 19.6-9.6s12.4 11.6 9.6 19.6c-32 93.6-106 168-200 200.4-8 2.8-16.8-1.6-19.6-9.6-2.4-8 1.6-16.8 9.6-19.6zM512 948c-276 0-500-224-500-500s224-500 500-500 500 224 500 500-224 500-500 500zM527.2-20.8v268.8c0 8.4-6.8 15.2-15.2 15.2s-15.2-6.8-15.2-15.2v-268.8c-246.8 8-445.6 206.8-453.6 453.6h268.8c8.4 0 15.2 6.8 15.2 15.2s-6.8 15.2-15.2 15.2h-268.8c8 246.8 206.8 445.6 453.6 453.6v-268.8c0-8.4 6.8-15.2 15.2-15.2s15.2 6.8 15.2 15.2v268.8c246.8-8 445.6-206.8 453.6-453.6h-268.8c-8.4 0-15.2-6.8-15.2-15.2s6.8-15.2 15.2-15.2h268.8c-7.6-247.2-206.4-446-453.6-453.6zM597.6 152c2.8-8 11.6-12.4 19.6-9.6 94 32.4 168 106.4 200.4 200.4 2.8 8-1.6 16.8-9.6 19.6s-16.8-1.6-19.6-9.6c-29.2-84.8-96.4-152-181.2-181.2-8-2.8-12.4-11.6-9.6-19.6zM566 463.2h-38.4v38.4c0 8.4-6.8 15.2-15.2 15.2s-15.2-6.8-15.2-15.2v-38.4h-38.4c-8.4 0-15.2-6.8-15.2-15.2s6.8-15.2 15.2-15.2h38.4v-38.4c0-8.4 6.8-15.2 15.2-15.2s15.2 6.8 15.2 15.2v38.4h38.4c8.4 0 15.2 6.8 15.2 15.2s-6.8 15.2-15.2 15.2z" />
<glyph unicode="&#xe90f;" glyph-name="attention_graphical_1" d="M91.6 868.4v-841.2h841.2v841.2h-841.2zM859.6 100.4h-695.2v695.2h694.8v-695.2z" />
<glyph unicode="&#xe910;" glyph-name="attention_graphical_2" d="M877.6 813.6h-448.4l-253.2-731.2h702v731.2zM950.8 886.8v-877.6h-877.6l304 877.6h573.6z" />
<glyph unicode="&#xe911;" glyph-name="attention_graphical_3" d="M877.6 799.2l-731.2-132.4v-371.6l731.2-191.2v695.2zM950.8 886.8v-877.6l-877.6 229.6v489.2l877.6 158.8z" />
<glyph unicode="&#xe912;" glyph-name="attention_graphical_4" d="M877.6 813.6h-705.6l214.4-696.8 491.2 272.8v424zM950.8 886.8v-540l-607.6-337.6-270 877.6h877.6z" />
<glyph unicode="&#xe913;" glyph-name="attention_graphical_5" d="M470.4 813.6h-324v-731.6h577.6l140.4 347.6-394 384zM500 886.8l450.8-438.8-177.6-438.8h-700v877.6h426.8z" />
<glyph unicode="&#xe914;" glyph-name="attention_graphical_6" d="M146.4 808.4v-726h639.2l-257.6 283.2 164.8 404.8-546.4 38zM73.2 886.8l726-50.8-185.6-455.6 337.6-371.6h-878v878z" />
<glyph unicode="&#xe915;" glyph-name="attention_graphical_7" d="M863.6 813.6h-483.2l-252.4-481.6v-249.6h461.6l274 731.2zM969.2 886.8l-329.2-877.6h-585.2v340.8l281.2 536.8h633.2z" />
<glyph unicode="&#xe916;" glyph-name="attention_graphical_8" d="M619.2 547.2l-107.2 217.2-107.2-217.2-240-34.8 173.6-169.2-40.8-239.2 214.4 112.8 214.4-112.8-40.8 238.8 173.6 169.2-240 35.2zM512 929.6l156-315.6 348.4-50.8-252-246 59.6-347.2-311.6 164-311.6-164 59.2 347.6-252 246 348 50.4 156 315.6z" />
<glyph unicode="&#xe917;" glyph-name="attention_graphical_9" d="M746.8 448l97.2 332-332-97.2-332 97.2 97.2-332-97.2-332 332 97.2 332-97.2-97.2 332zM951.6 887.6l-128.8-439.6 128.8-439.6-439.6 128.8-439.6-128.8 128.8 439.6-128.8 439.6 439.6-128.8 439.6 128.8z" />
<glyph unicode="&#xe918;" glyph-name="attention_graphical_10" d="M512 814.8l-400.8-291.2 152.8-471.6h495.6l153.2 471.2-400.8 291.6zM512 905.2l486.8-353.6-186-572.4h-601.6l-186 572 486.8 354z" />
<glyph unicode="&#xe919;" glyph-name="attention_graphical_11" d="M512 797.2l-402.4-283.6v-431.2h529.2l252.4 447.6-379.2 267.2zM512 886.8l475.6-335.2-306-542.4h-645.2v542.4l475.6 335.2z" />
<glyph unicode="&#xe91a;" glyph-name="attention_graphical_12" d="M512 857.2l-354.4-204.4v-409.2l354.4-204.8 354.4 204.8v409.2l-354.4 204.4zM512 941.6l427.6-246.8v-493.6l-427.6-246.8-427.6 246.8v493.6l427.6 246.8z" />
<glyph unicode="&#xe91b;" glyph-name="attention_graphical_13" d="M521.2 830l-316-182.4-85.2-389.2 445.6-220.8 290.8 168-212.8 139.2-122.4 485.2zM568.4 941.6l139.2-552 288.4-188.8-427.6-246.8-532 264 104 476.8 428 246.8z" />
<glyph unicode="&#xe91c;" glyph-name="attention_graphical_14" d="M164.4 735.2v-444.8l361.2 108.4 333.6-204.8v496l-448.8-70-246 115.2zM91.6 850.4l329.6-154.8 511.2 80v-712.4l-416.8 256.4-424-127.6v658.4z" />
<glyph unicode="&#xe91d;" glyph-name="attention_number_1" d="M632.8 38l59.2 792-70.4 38.4-274-202.8 53.6-71.2 194 146-50.4-695.6z" />
<glyph unicode="&#xe91e;" glyph-name="attention_number_2" d="M255.2 17.2l580.4 63.6-10 87.6-464-51.2 408.4 459.6-4.4 63.6-268.8 224.8-52.8 3.2-261.2-178.8 49.6-72.4 233.6 159.2 208.4-174.4-455.2-511.2z" />
<glyph unicode="&#xe91f;" glyph-name="attention_number_3" d="M647.2 39.2l48.4 22 153.6 282.8-27.6 64.8-278.4 69.2 311.6 241.2-22 79.2-502.4 70-12.4-87.6 399.6-56-300.8-233.6 16.4-78 310.8-76.8-110-204-449.6 96.4-20-85.6z" />
<glyph unicode="&#xe920;" glyph-name="attention_number_4" d="M681.6 38l18.8 215.2 189.6 4.4-3.2 88.8-178.8-4.4 36.4 425.6-89.2 7.6-36-435.6-365.2-7.6 198.4 504.8-82.4 31.6-223.6-564.8 42.8-60.4 422.4 8.8-17.6-207.2z" />
<glyph unicode="&#xe921;" glyph-name="attention_number_5" d="M681.6 32.8l50.4 27.6 138.4 352-35.2 60.4-435.6 46 46.4 243.6h384v88h-421.6l-43.6-36.4-60.4-325.6 38.4-52.8 424.4-45.2-104-263.2-497.2 109.6-19.6-86.4z" />
<glyph unicode="&#xe922;" glyph-name="attention_number_6" d="M601.2 27.6l47.2 12 222.8 257.6-16.4 70.4-343.6 146-34-82.4 286.4-122-161.2-188.4-334.8 122.8 302.8 564.8-77.6 42-328.4-611.2 25.6-61.6z" />
<glyph unicode="&#xe923;" glyph-name="attention_number_7" d="M492.8 62.8l303.6 660.4-36 64-532 44.8-8.8-87.6 470.4-42-277.6-603.2z" />
<glyph unicode="&#xe924;" glyph-name="attention_number_8" d="M568.4 129.2l-282 70.4 246.8 221.6 216-168-180.8-124zM530 536l-180 140.4 224 98.8 100-109.6-144-129.6zM566 39.2l36.4 5.6 246.8 168 2 73.6-250 193.6 164.4 148 2.4 64-150.4 165.6-51.6 10.8-320.4-140.4-9.6-74.4 226-177.6-297.2-266.8 19.6-75.6 381.6-94.4z" />
<glyph unicode="&#xe925;" glyph-name="attention_number_9" d="M527.2 32.8l302.8 671.6-31.6 61.6-386.4 84.4-44.8-18.8-184.4-254.4 16.4-66 305.2-146 38.4 80.4-256.8 121.6 136 190 304-66-280-622z" />
<glyph unicode="&#xe926;" glyph-name="attention_tetris_1" d="M621.6 704h-219.6v-219.6h219.6v219.6zM621.6 411.6h-219.6v-219.6h219.6v219.6zM914.4 411.6h-219.6v-219.6h219.6v219.6zM329.2 411.6h-219.6v-219.6h219.6v219.6zM694.8 777.2v-292.4h292.4v-365.6h-950.8v365.6h292.4v292.4h366z" />
<glyph unicode="&#xe927;" glyph-name="attention_tetris_2" d="M621.6 704h-219.6v-219.6h219.6v219.6zM914.4 704h-219.6v-219.6h219.6v219.6zM329.2 704h-219.6v-219.6h219.6v219.6zM621.6 411.6h-219.6v-219.6h219.6v219.6zM987.6 777.2v-365.6h-292.4v-292.4h-366v292.4h-292.8v365.6h951.2z" />
<glyph unicode="&#xe928;" glyph-name="attention_tetris_3" d="M768 356.4v219.6h-219.6v-219.6h219.6zM768 27.6v219.6h-219.6v-219.6h219.6zM768 649.2v219.2h-219.6v-219.6h219.6zM475.6 356.4v219.6h-219.6v-219.6h219.6zM841.2-45.6h-365.6v329.2h-292.8v365.6h292.4v292.4h365.6v-987.2z" />
<glyph unicode="&#xe929;" glyph-name="attention_tetris_4" d="M256 557.6v-219.6h219.6v219.6h-219.6zM256 850.4v-219.6h219.6v219.6h-219.6zM256 265.2v-219.6h219.6v219.6h-219.6zM548.4 557.6v-219.6h219.6v219.6h-219.6zM182.8 923.6h365.6v-292.4h292.4v-365.6h-292.4v-292.4h-365.6v950.4z" />
<glyph unicode="&#xe92a;" glyph-name="attention_tetris_5" d="M621.6 704h-219.6v-219.6h219.6v219.6zM329.2 704h-219.6v-219.6h219.6v219.6zM402.4 192h219.6v219.6h-219.6v-219.6zM914.4 411.6h-219.6v-219.6h219.6v219.6zM987.6 484.4v-365.6h-658.4v292.4h-292.8v366h658.4v-292.4h292.8z" />
<glyph unicode="&#xe92b;" glyph-name="attention_tetris_6" d="M621.6 704h-219.6v-219.6h219.6v219.6zM914.4 704h-219.6v-219.6h219.6v219.6zM329.2 411.6h-219.6v-219.6h219.6v219.6zM621.6 411.6h-219.6v-219.6h219.6v219.6zM36.4 118.8v365.6h292.4v292.8h658.4v-365.6h-292.4v-292.4h-658.4z" />
<glyph unicode="&#xe92c;" glyph-name="attention_tetris_7" d="M768 338.4v219.6h-219.6v-219.6h219.6zM768 630.8v219.6h-219.6v-219.6h219.6zM256 557.6v-219.6h219.6v219.6h-219.6zM475.6 45.6v219.6h-219.6v-219.6h219.6zM548.4-27.6h-365.6v658.4h292.4v292.8h365.6v-658.4h-292.4v-292.8z" />
<glyph unicode="&#xe92d;" glyph-name="attention_tetris_8" d="M768 338.4v219.6h-219.6v-219.6h219.6zM768 45.6v219.6h-219.6v-219.6h219.6zM475.6 630.8v219.6h-219.6v-219.6h219.6zM475.6 338.4v219.6h-219.6v-219.6h219.6zM182.8 923.6h365.6v-292.4h292.4v-658.4h-365.6v292.4h-292.4v658.4z" />
<glyph unicode="&#xe92e;" glyph-name="attention_tetris_9" d="M768 45.6v219.6h-219.6v-219.6h219.6zM475.6 630.8v219.6h-219.6v-219.6h219.6zM475.6 338.4v219.6h-219.6v-219.6h219.6zM475.6 45.6v219.6h-219.6v-219.6h219.6zM182.8 923.6h365.6v-585.2h292.4v-365.6h-658v950.8z" />
<glyph unicode="&#xe92f;" glyph-name="attention_tetris_10" d="M109.6 192h219.6v219.6h-219.6v-219.6zM694.8 484.4h219.6v219.6h-219.6v-219.6zM402.4 484.4h219.6v219.6h-219.6v-219.6zM109.6 484.4h219.6v219.6h-219.6v-219.6zM987.6 777.2v-365.6h-585.2v-292.4h-366v658h951.2z" />
<glyph unicode="&#xe930;" glyph-name="attention_tetris_11" d="M256 850.4v-219.6h219.6v219.6h-219.6zM548.4 265.2v-219.6h219.6v219.6h-219.6zM548.4 557.6v-219.6h219.6v219.6h-219.6zM548.4 850.4v-219.6h219.6v219.6h-219.6zM841.2-27.6h-365.6v585.2h-292.8v366h658.4v-951.2z" />
<glyph unicode="&#xe931;" glyph-name="attention_tetris_12" d="M548.4 45.6h219.6v219.6h-219.6v-219.6zM256 45.6h219.6v219.6h-219.6v-219.6zM548.4 338.4h219.6v219.6h-219.6v-219.6zM548.4 630.8h219.6v219.6h-219.6v-219.6zM475.6 923.6h365.6v-950.8h-658.4v365.6h292.4l0.4 585.2z" />
<glyph unicode="&#xe932;" glyph-name="attention_tetris_13" d="M694.8 192h219.6v219.6h-219.6v-219.6zM109.6 192h219.6v219.6h-219.6v-219.6zM402.4 192h219.6v219.6h-219.6v-219.6zM694.8 484.4h219.6v219.6h-219.6v-219.6zM987.6 118.8h-951.2v365.6h585.2v292.8h365.6v-658.4z" />
<glyph unicode="&#xe933;" glyph-name="attention_tetris_14" d="M548.4 192h219.6v219.6h-219.6v-219.6zM256 192h219.6v219.6h-219.6v-219.6zM768 704h-219.6v-219.6h219.6v219.6zM256 484.4h219.6v219.6h-219.6v-219.6zM841.2 777.2v-658.4h-658.4v658.4h658.4z" />
<glyph unicode="&#xe934;" glyph-name="attention_weather_1" d="M512 923.6c20 0 36.4-16.4 36.4-36.4v-73.2c0-20-16.4-36.4-36.4-36.4s-36.4 16.4-36.4 36.4v72.8c0 20.4 16.4 36.8 36.4 36.8zM227.6 784l51.6-51.6c14.4-14.4 14.4-37.6 0-51.6-14.4-14.4-37.6-14.4-51.6 0l-51.6 51.6c-14.4 14.4-14.4 37.6 0 51.6 14 14.4 37.2 14.4 51.6 0zM848 784c14.4-14.4 14.4-37.6 0-51.6l-51.6-51.6c-14.4-14.4-37.6-14.4-51.6 0-14.4 14.4-14.4 37.6 0 51.6l51.6 51.6c14.4 14.4 37.6 14.4 51.6 0zM146.4 484.4c20 0 36.4-16.4 36.4-36.4s-16.4-36.4-36.4-36.4h-73.2c-20 0-36.4 16.4-36.4 36.4s16.4 36.4 36.4 36.4h73.2zM950.8 484.4c20 0 36.4-16.4 36.4-36.4s-16.4-36.4-36.4-36.4h-73.2c-20 0-36.4 16.4-36.4 36.4s16.4 36.4 36.4 36.4h73.2zM512 649.2c-100.8 0-182.8-82-182.8-182.8s82-182.8 182.8-182.8 182.8 82 182.8 182.8-82 182.8-182.8 182.8zM512 722.4c141.2 0 256-114.8 256-256s-114.8-256-256-256-256 114.8-256 256 114.8 256 256 256zM279.2 215.2c14.4-14.4 14.4-37.6 0-51.6l-51.6-51.6c-14.4-14.4-37.6-14.4-51.6 0-14.4 14.4-14.4 37.6 0 51.6l51.6 51.6c14.4 14.4 37.2 14.4 51.6 0zM796.4 215.2l51.6-51.6c14.4-14.4 14.4-37.6 0-51.6-14.4-14.4-37.6-14.4-51.6 0l-51.6 51.6c-14.4 14.4-14.4 37.6 0 51.6 14.4 14.4 37.2 14.4 51.6 0zM512 118.8c20 0 36.4-16.4 36.4-36.4v-73.2c0-20-16.4-36.4-36.4-36.4s-36.4 16.4-36.4 36.4v73.2c0 20 16.4 36.4 36.4 36.4z" />
<glyph unicode="&#xe935;" glyph-name="attention_weather_2" d="M493.6 722.4c105.6 0 193.2-81.6 200.8-186.4 1.6-20.4 19.6-35.6 40-33.6 5.2 0.4 10.4 0.8 15.6 0.8 90.8 0 164.4-73.6 164.4-164.4 0-89.2-71.2-162.4-160.4-164.4h-516.4c-70.8 0-128 57.2-128 128s57.2 128 128 128c4.4 0 8.8-0.4 13.2-0.8l6.4-0.8c25.6-4 47.2 19.6 41.2 44.8-4 15.6-5.6 31.6-5.6 48-0.4 110.8 90 200.8 200.8 200.8zM493.6 795.6c-151.6 0-274.4-122.8-274.4-274.4v-9.6c0-3.2 0.4-6.4 0.4-9.6l-3.2-0.4c-101.2-10.4-180.4-96-180.4-200 0-111.2 90-201.2 201.2-201.2h517.6c129.2 3.2 232 108.8 232 237.6v5.6c-2.8 123.2-99.2 223.2-220.8 231.6l-4 0.4v0.4c-25.2 126-136.4 219.6-268.4 219.6z" />
<glyph unicode="&#xe936;" glyph-name="attention_weather_3" d="M658.4 886.8c20 0 36.4-16.4 36.4-36.4v-36.4c0-20-16.4-36.4-36.4-36.4s-36.4 16.4-36.4 36.4v36.4c-0.4 20 16 36.4 36.4 36.4zM451.6 779.6l26-26c14.4-14.4 14.4-37.6 0-51.6-14.4-14.4-37.6-14.4-51.6 0l-26.4 26c-14.4 14.4-14.4 37.6 0 51.6 14.4 14.4 37.6 14.4 52 0zM916.8 779.6c14.4-14.4 14.4-37.6 0-51.6l-26-26c-14.4-14.4-37.6-14.4-51.6 0-14.4 14.4-14.4 37.6 0 51.6l26 26c14.4 14.4 37.6 14.4 51.6 0zM987.6 557.6c20 0 36.4-16.4 36.4-36.4s-16.4-36.4-36.4-36.4h-36.4c-20 0-36.4 16.4-36.4 36.4s16.4 36.4 36.4 36.4h36.4zM658.4 649.2c-27.2 0-52.8-8.4-74-23.6 49.6-31.2 88.8-77.6 110.4-134l2.4-6.8 1.2-4 6-1.2c22.8-4.4 44.4-12.4 64.4-22.8 11.2 19.2 17.2 41.2 17.2 64 0.4 71.2-57.2 128.4-127.6 128.4zM438.8 594.4c-111.2 0-201.2-90-201.2-201.2 0-16.4 2-32.8 6-48.4 6-24.8-14.4-47.6-39.2-45.2l-8.8 1.2c-4 0.4-8.4 0.8-12.8 0.8-60.4 0-109.6-49.2-109.6-109.6 0-59.2 46.8-107.6 105.6-109.6h483.6c89.2 2.4 160.4 75.2 160.4 164.4 0 84.4-64 154.8-146.8 163.6l-4.8 0.4-3.6 0.4c-16 1.2-29.6 12.4-33.2 28-20.8 90.4-101.6 155.2-195.6 155.2zM658.4 722.4c111.2 0 201.2-90 201.2-201.2 0-38.8-11.2-76-31.2-108 39.2-40 64.4-94 67.6-153.6l0.4-6.8v-5.6c0-127.2-100-231.2-226.4-237.6l-5.6-0.4h-481.6c-100.8 0-182.8 82-182.8 182.8 0 92.4 68.4 168.8 157.6 181.2l4.8 0.8 2.8 0.4-0.8 9.6v9.6c0 151.6 122.8 274.4 274.4 274.4 24.8 0 48.8-3.2 72-9.6 37.6 40 90.4 64 147.6 64z" />
<glyph unicode="&#xe937;" glyph-name="attention_weather_4" d="M658.4 905.2c20 0 36.4-16.4 36.4-36.4v-36.8c0-20-16.4-36.4-36.4-36.4s-36.4 16.4-36.4 36.4v36.4c-0.4 20.4 16 36.8 36.4 36.8zM451.6 798l26-26c14.4-14.4 14.4-37.6 0-51.6-14.4-14.4-37.6-14.4-51.6 0l-26 26c-14.4 14.4-14.4 37.6 0 51.6 14 14.4 37.2 14.4 51.6 0zM916.8 798c14.4-14.4 14.4-37.6 0-51.6l-26-26c-14.4-14.4-37.6-14.4-51.6 0-14.4 14.4-14.4 37.6 0 51.6l26 26c14.4 14.4 37.6 14.4 51.6 0zM987.6 576c20 0 36.4-16.4 36.4-36.4s-16.4-36.4-36.4-36.4h-36.4c-20 0-36.4 16.4-36.4 36.4s16.4 36.4 36.4 36.4h36.4zM658.4 667.6c-57.2 0-106.8-38-122.8-91.2 39.6-31.6 71.6-72.8 93.2-120 30.4 18 66 28 102.8 28 14 0 27.2-1.6 40.4-4 9.2 18 14.4 38 14.4 58.8 0 70.8-57.6 128.4-128 128.4zM658.4 740.4c111.2 0 201.2-90 201.2-201.2 0-30.4-6.8-60-19.6-86.4 43.2-27.6 75.6-72 87.6-124.4 4.4-19.6-8-39.2-27.6-43.6s-39.2 8-43.6 27.6c-13.2 57.6-64.8 99.6-124.8 99.6-34.4 0-66.4-13.6-90.4-37.2-12-12-30.8-14-44.8-5.2-10 4-18 12.4-21.6 23.6-31.6 108-131.2 183.6-245.6 183.6-141.2 0-256-114.8-256-256 0-20-16.4-36.4-36.4-36.4s-36.8 15.6-36.8 35.6c0 181.6 147.2 329.2 329.2 329.2 50.8 0 99.6-11.6 143.2-32.8 30.4 73.6 102.8 124 186 124zM987.6 210.4c20 0 36.4-16.4 36.4-36.4s-16.4-36.4-36.4-36.4h-951.2c-20 0-36.4 16.4-36.4 36.4s16.4 36.4 36.4 36.4h951.2zM841.2 64c20 0 36.4-16.4 36.4-36.4s-16.4-36.4-36.4-36.4h-658.4c-20 0-36.4 16.4-36.4 36.4s16.4 36.4 36.4 36.4h658.4z" />
<glyph unicode="&#xe938;" glyph-name="attention_weather_5" d="M493.6 850.4c-111.2 0-201.2-90-201.2-201.2 0-16.4 2-32.4 5.6-48 6-24.4-14-47.2-38.4-45.2l-9.2 1.2c-4.4 0.4-8.8 0.8-13.2 0.8-70.8 0-128-57.2-128-128 0-69.2 54.8-125.6 123.6-128h520.8c89.2 2.4 160.4 75.2 160.4 164.4 0 90.8-73.6 164.4-164.4 164.4-5.2 0-10.4-0.4-15.6-0.8-20.4-2-38.4 13.2-40 33.6-7.2 105.2-94.8 186.8-200.4 186.8zM493.6 923.6c130 0 239.6-90.8 267.6-213.2l1.2-6.4 4-0.4c119.6-8.4 215.2-105.2 220.8-225.6l0.4-5.6v-5.6c0-127.2-100-231.2-226.4-237.6l-5.6-0.4h-517.6c-111.2 0-201.2 90-201.2 201.2 0 102.4 76.4 186.8 175.2 199.6l5.2 0.8 3.2 0.4-0.8 9.6v9.6c0 150.8 122.8 273.6 274 273.6zM856.4 152.4c14.4-14.4 14.4-37.6 0-51.6l-64.8-64.8c-14.4-14.4-37.6-14.4-51.6 0-14.4 14.4-14.4 37.6 0 51.6l64.8 64.8c14 14 37.2 14 51.6 0zM563.6 152.4c14.4-14.4 14.4-37.6 0-51.6l-64.4-64.8c-14.4-14.4-37.6-14.4-51.6 0-14.4 14.4-14.4 37.6 0 51.6l64.8 64.8c14 14 37.2 14 51.2 0zM271.2 152.4c14.4-14.4 14.4-37.6 0-51.6l-64.8-64.8c-14.4-14.4-37.6-14.4-51.6 0-14.4 14.4-14.4 37.6 0 51.6l64.8 64.8c14 14 37.2 14 51.6 0z" />
<glyph unicode="&#xe939;" glyph-name="attention_weather_6" d="M493.2 923.6c130 0 239.6-90.8 267.6-213.2l1.2-6.4 4-0.4c121.6-8.4 218-108.4 220.8-231.6v-5.6c0-125.2-96.8-228-220.4-237.2l-6.8-0.4-2.8-0.4h-8c-20 0-36.4 16.4-36.4 36.4 0 19.2 14.8 35.2 34 36.4h6.8c87.6 2.4 157.6 72.8 160 159.6v4.8c0 90.8-73.6 164.4-164.4 164.4-5.2 0-10.4-0.4-15.6-0.8-20.4-2-38.4 13.2-40 33.6-7.6 104.8-95.2 186.4-200.8 186.4-111.2 0-201.2-90-201.2-201.2 0-16.4 2-32.4 5.6-48 6-24.4-14-47.2-38.4-45.2l-2.8 0.4c-6.4 0.8-12.8 1.6-19.6 1.6-70.8 0-128-57.2-128-128 0-69.2 54.8-125.6 123.6-128h40.8c20 0 36.4-16.4 36.4-36.4 0-19.2-14.8-35.2-34-36.4h-39.2c-111.2 0-201.2 90-201.2 201.2 0 104 78.8 189.6 180.4 200l3.2 0.4c-0.4 3.2-0.4 6.4-0.4 9.6v9.6c1.6 152 124.4 274.8 275.6 274.8zM618 429.6c3.2 0 6.8-0.8 9.6-2.8 8-4.8 10.8-14.8 6.8-23.2l-1.2-2-49.6-80.8h69.6c4.4 0 8.8-1.6 12.4-4.8 6.8-6.4 8-16.8 2.4-24l-1.6-1.6-282.4-308.8c-5.6-6-14.4-7.6-22-4-8.4 4.4-12 14-8.8 22.8l0.8 2 110.4 215.2h-73.2c-3.6 0-6.8 1.2-10 2.8-8 5.2-10.4 15.2-6.4 23.6l1.2 2 114 176c2.8 4.4 7.6 7.6 13.2 8.4h114.8z" />
<glyph unicode="&#xe93a;" glyph-name="attention_weather_7" d="M540.8 828l-1.2 1.6 2-0.4c191.2-22 339.6-184.4 339.6-381.6 0-212-172-384-384-384h-7.2c-123.6 2.4-235.6 63.2-304.8 160l-4.8 6.8 3.2-0.4c13.2-1.2 26-2 39.2-2 212 0 384 172 384 384 0 78.8-23.6 153.6-66 216zM497.2 905.2c-13.6 0-27.2-0.8-40.8-2-31.6-2.8-44.8-41.6-21.6-63.2 62.8-58.4 99.2-140 99.2-227.6 0-171.6-139.2-310.8-310.8-310.8-34.8 0-68.8 5.6-101.2 16.8-30 10.4-58-19.6-45.6-48.8 71.2-167.6 236-278.8 421.2-278.8 252.4 0 457.2 204.8 457.2 457.2s-205.2 457.2-457.6 457.2z" />
<glyph unicode="&#xe93b;" glyph-name="attention_weather_8" d="M324.4 750.4l1.6-3.6c9.6-25.2 14.8-52 15.6-79.6v-6.8c0-120.8-87.2-221.2-201.6-242l-6-1.2 0.8-0.4c26.4-14.8 56.8-23.6 88.4-24.4h6v-1.2c16.8 8.4 35.2 14.4 54.8 17.6l7.2 0.8 2.8 0.4-0.8 9.6v9.6c0 92.4 45.6 174 115.6 223.6-15.6 41.2-45.2 75.2-82 97.2l-2.4 0.4zM567.2 629.6c-111.2 0-201.2-90-201.2-201.2 0-16.4 2-32.8 6-48 6-24.8-14.4-47.6-39.2-45.2l-8.8 1.2c-4 0.4-8.4 0.8-12.8 0.8-60.4 0-109.6-49.2-109.6-109.6 0-59.2 46.8-107.6 105.6-109.6h483.6c88.8 2.4 160 75.2 160 164.4 0 84.4-64 154.8-146.4 163.6l-4.8 0.4-3.6 0.4c-16 1.2-29.6 12.4-33.2 28-21.2 90-102 154.8-195.6 154.8zM238.4 848.8h2.8c104-4.8 193.6-69.6 232.4-162.4 29.2 10.4 60.8 16.4 93.6 16.4 115.6 0 216.4-72 256.4-176.4l2-5.6 1.2-4 6-1.2c105.6-20.8 185.6-112 190.8-221.6l0.4-5.6v-5.6c0-126.8-99.6-231.2-226-237.2l-5.6-0.4h-481.2c-100.8 0-182.8 82-182.8 182.8 0 37.2 11.2 71.6 30 100.4-62 16.8-116 56-152 110.4-18 27.6 6.8 62.8 38 56l2.4-0.8c15.6-4.4 31.6-6.8 48-6.8 95.6 0 173.2 77.6 173.2 172.8 0 45.2-17.6 87.6-48 119.6l-4 4-2.4 2c-22.8 22.8-6.8 62.4 24.8 63.2z" />
<glyph unicode="&#xe93c;" glyph-name="attention_weather_9" d="M428 911.6l84-84 83.6 83.6c13.6 13.6 35.2 14.4 49.2 2l2.4-2c13.6-13.6 14.4-35.2 2-49.2l-2-2.4-98.8-98.8v-250.4l217.2 125.2 36 134.8c5.2 19.6 25.2 31.2 44.8 26s31.2-25.2 26-44.8l-30.8-114.4 114.4-30.8c18.4-4.8 30-23.2 26.4-41.6l-0.8-3.2c-4.8-18.8-23.6-30-42-26.4l-2.8 0.8-135.2 36.4-217.2-125.2 217.2-125.2 135.2 36.4c19.6 5.2 39.6-6.4 44.8-26s-6.4-39.6-26-44.8l-114.4-30.8 30.8-114.4c4.8-18.4-5.2-37.6-22.8-44l-3.2-0.8c-18.8-4.8-37.6 5.2-44 23.2l-0.8 2.8-36 134.8-217.2 125.2v-250.4l98.8-98.8c14.4-14.4 14.4-37.6 0-51.6-14.4-14.4-37.6-14.4-51.6 0l-83.2 83.2-84-83.6c-13.6-13.6-35.2-14.4-49.2-2l-2.4 2c-13.6 13.6-14.4 35.2-2 49.2l2 2.4 98.8 98.8v250.8l-216.8-125.2-36.4-135.2c-5.2-19.6-25.2-31.2-44.8-26s-31.2 25.2-26 44.8l30.8 114.4-114.4 30.8c-18.4 4.8-30 23.2-26.4 41.6l0.8 3.2c4.8 18.8 23.6 30 42 26.4l2.8-0.8 134.8-36 216.8 125.2-216.8 125.2-134.8-36c-19.6-5.2-39.6 6.4-44.8 26s6.4 39.6 26 44.8l114.4 30.8-30.8 114.4c-4.8 18.4 5.2 37.6 22.8 44l3.2 0.8c18.8 4.8 37.6-5.2 44-23.2l0.8-2.8 36.4-135.2 216.8-125.2v250.8l-99.2 98.4c-14.4 14.4-14.4 37.6 0 51.6 14.4 14.4 37.6 14.4 51.6 0.4z" />
<glyph unicode="&#xe93d;" glyph-name="attention_weather_10" d="M384 429.6c20 0 36.4-16.4 36.4-36.4s-16.4-36.4-36.4-36.4-36.4 16.4-36.4 36.4c0 20 16.4 36.4 36.4 36.4zM640 429.6c20 0 36.4-16.4 36.4-36.4s-16.4-36.4-36.4-36.4-36.4 16.4-36.4 36.4c0 20 16.4 36.4 36.4 36.4zM512 356.4c20 0 36.4-16.4 36.4-36.4s-16.4-36.4-36.4-36.4c-20 0-36.4 16.4-36.4 36.4s16.4 36.4 36.4 36.4zM493.6 941.6c130 0 239.6-90.8 267.6-213.2l1.2-6.4 4-0.4c121.6-8.4 218-108.4 220.8-231.6v-5.6c0-125.2-96.8-228-220.4-237.2l-6.8-0.4-2.8-0.4h-8c-20 0-36.4 16.4-36.4 36.4 0 19.2 14.8 35.2 34 36.4h6.8c87.6 2.4 157.6 72.8 160 159.6v4.8c0 90.8-73.6 164.4-164.4 164.4-5.2 0-10.4-0.4-15.6-0.8-20.4-2-38.4 13.2-40 33.6-7.6 104.8-95.2 186.4-200.8 186.4-111.2 0-201.2-90-201.2-201.2 0-16.4 2-32.4 5.6-48 6-24.4-14-47.2-38.4-45.2l-2.8 0.4c-6.4 0.8-12.8 1.6-19.6 1.6-70.8 0-128-57.2-128-128 0-69.2 54.8-125.6 123.6-128h40.8c20 0 36.4-16.4 36.4-36.4 0-19.2-14.8-35.2-34-36.4h-39.2c-111.2 0-201.2 90-201.2 201.2 0 104 78.8 189.6 180.4 200l3.2 0.4c-0.4 3.2-0.4 6.4-0.4 9.6v9.6c1.6 152 124.4 274.8 275.6 274.8zM384 283.6c20 0 36.4-16.4 36.4-36.4s-16.4-36.4-36.4-36.4-36.4 16.4-36.4 36.4c0 20 16.4 36.4 36.4 36.4zM640 283.6c20 0 36.4-16.4 36.4-36.4s-16.4-36.4-36.4-36.4-36.4 16.4-36.4 36.4c0 20 16.4 36.4 36.4 36.4zM512 210.4c20 0 36.4-16.4 36.4-36.4s-16.4-36.4-36.4-36.4c-20 0-36.4 16.4-36.4 36.4s16.4 36.4 36.4 36.4zM384 137.2c20 0 36.4-16.4 36.4-36.4s-16.4-36.4-36.4-36.4-36.4 16.4-36.4 36.4c0 20 16.4 36.4 36.4 36.4zM640 137.2c20 0 36.4-16.4 36.4-36.4s-16.4-36.4-36.4-36.4-36.4 16.4-36.4 36.4c0 20 16.4 36.4 36.4 36.4zM512 64c20 0 36.4-16.4 36.4-36.4s-16.4-36.4-36.4-36.4c-20 0-36.4 16.4-36.4 36.4s16.4 36.4 36.4 36.4z" />
<glyph unicode="&#xe93e;" glyph-name="attention_weather_11" d="M146.4 795.6c20 0 36.4-16.4 36.4-36.4s-16.4-36.4-36.4-36.4-36.4 16.4-36.4 36.4 16 36.4 36.4 36.4zM365.6 795.6c20 0 36.4-16.4 36.4-36.4s-16.4-36.4-36.4-36.4c-20 0-36.4 16.4-36.4 36.4s16.4 36.4 36.4 36.4zM256 685.6c20 0 36.4-16.4 36.4-36.4s-16.4-36.8-36.4-36.8-36.4 16.4-36.4 36.4 16.4 36.8 36.4 36.8zM365.6 576c20 0 36.4-16.4 36.4-36.4s-16.4-36.4-36.4-36.4c-20 0-36.4 16.4-36.4 36.4s16.4 36.4 36.4 36.4zM146.4 576c20 0 36.4-16.4 36.4-36.4s-16.4-36.4-36.4-36.4-36.4 16.4-36.4 36.4 16 36.4 36.4 36.4zM694.8 777.2c121.2 0 219.6-98.4 219.6-219.6s-98.4-219.6-219.6-219.6h-621.6c-20 0-36.4 16.4-36.4 36.4s16.4 36.4 36.4 36.4h621.6c80.8 0 146.4 65.6 146.4 146.4s-65.6 146.8-146.4 146.8-146.4-65.6-146.4-146.4c0-20-16.4-36.4-36.4-36.4s-36.4 16.4-36.4 36.4c0 121.2 98 219.6 219.2 219.6zM950.8 173.6c20 0 36.4-16.4 36.4-36.4s-16.4-36.4-36.4-36.4h-877.6c-20 0-36.4 16.4-36.4 36.4s16.4 36.4 36.4 36.4h877.6z" />
<glyph unicode="&#xe93f;" glyph-name="attention_weather_12" d="M219.6 832c20 0 36.4-16.4 36.4-36.4s-16.4-36.4-36.4-36.4-36.4 16.4-36.4 36.4 16 36.4 36.4 36.4zM804.4 832c20 0 36.4-16.4 36.4-36.4s-16.4-36.4-36.4-36.4-36.4 16.4-36.4 36.4 16.4 36.4 36.4 36.4zM512 832c20 0 36.4-16.4 36.4-36.4s-16.4-36.4-36.4-36.4c-20 0-36.4 16.4-36.4 36.4s16.4 36.4 36.4 36.4zM292.4 594.4c-102.4 0-182.8-67.2-182.8-146.4s80.4-146.4 182.8-146.4 182.8 67.2 182.8 146.4-80.4 146.4-182.8 146.4zM731.6 594.4c-102.4 0-182.8-67.2-182.8-146.4s80.4-146.4 182.8-146.4 182.8 67.2 182.8 146.4-80.8 146.4-182.8 146.4zM731.6 667.6c140 0 256-96.8 256-219.6s-116-219.6-256-219.6c-92.4 0-174.4 42-219.6 106-45.2-64-126.8-106-219.6-106-140 0-256 96.8-256 219.6s116 219.6 256 219.6c92.4 0 174.4-42 219.6-106 45.2 63.6 126.8 106 219.6 106zM804.4 137.2c20 0 36.4-16.4 36.4-36.4s-16.4-36.4-36.4-36.4-36.4 16.4-36.4 36.4c0 20 16.4 36.4 36.4 36.4zM219.6 137.2c20 0 36.4-16.4 36.4-36.4s-16.4-36.4-36.4-36.4-36.4 16.4-36.4 36.4c-0.4 20 16 36.4 36.4 36.4zM512 137.2c20 0 36.4-16.4 36.4-36.4s-16.4-36.4-36.4-36.4c-20 0-36.4 16.4-36.4 36.4s16.4 36.4 36.4 36.4z" />
<glyph unicode="&#xe940;" glyph-name="attention_weather_13" d="M512 265.2c-30.4 0-54.8-24.4-54.8-54.8s24.4-54.8 54.8-54.8 54.8 24.4 54.8 54.8-24.4 54.8-54.8 54.8zM512 576c20 0 36.4-16.4 36.4-36.4v-206.4c52.8-15.6 91.6-64.8 91.6-122.8 0-70.8-57.2-128-128-128s-128 57.2-128 128c0 58 38.4 106.8 91.6 122.8v206.4c0 20 16.4 36.4 36.4 36.4zM512 886.8c-39.2 0-71.2-30.8-73.2-69.6v-396.4c0-15.2-9.2-28.4-22.4-33.6l-2.4-1.2c-63.2-35.2-103.2-102-103.2-175.6 0-111.2 90-201.2 201.2-201.2s201.2 90 201.2 201.2c0 74.8-41.2 142-105.6 176.8-12.4 5.2-21.6 16.8-22.4 31.2v395.2c0 40.4-32.8 73.2-73.2 73.2zM512 960c79.2 0 144-63.2 146.4-141.6v-375.6c78.8-49.6 128-136.4 128-232 0-151.6-122.8-274.4-274.4-274.4s-274.4 122.8-274.4 274.4c0 95.6 49.2 182.4 128 232v371.2c0 80.4 65.6 146 146.4 146z" />
<glyph unicode="&#xe941;" glyph-name="attention_weather_14" d="M914.4 850.4c20 0 36.4-16.4 36.4-36.4s-16.4-36.4-36.4-36.4h-804.8c-20 0-36.4 16.4-36.4 36.4s16.4 36.4 36.4 36.4h804.8zM822.8 667.6c20 0 36.4-16.4 36.4-36.4s-16.4-36.4-36.4-36.4h-621.6c-20 0-36.4 16.4-36.4 36.4s16.4 36.4 36.4 36.4h621.6zM896 484.4c20 0 36.4-16.4 36.4-36.4s-16.4-36.4-36.4-36.4h-475.6c-20 0-36.4 16.4-36.4 36.4s16.4 36.4 36.4 36.4h475.6zM804.4 301.6c20 0 36.4-16.4 36.4-36.4s-16.4-36.4-36.4-36.4h-292.4c-20 0-36.4 16.4-36.4 36.4s16.4 36.4 36.4 36.4h292.4zM585.2 118.8c20 0 36.4-16.4 36.4-36.4s-16.4-36.4-36.4-36.4h-146.4c-20 0-36.4 16.4-36.4 36.4s16.4 36.4 36.4 36.4h146.4z" />
<glyph unicode="&#xe942;" glyph-name="account" d="M653.2 412.8c86.4 49.2 144.8 142 144.8 248.4 0 157.6-128.4 286-286 286s-286-128.4-286-286c0-106.4 58.4-199.2 144.8-248.4-182.8-59.6-315.2-231.6-315.2-434 0-16.4 13.2-30 30-30s30 13.2 30 30c0 218.8 178 396.8 396.8 396.8s396.8-178 396.8-396.8c0-16.4 13.2-30 30-30s30 13.2 30 30c-0.8 202.4-133.2 374.4-316 434zM286 661.2c0 124.8 101.6 226 226 226s226-101.6 226-226c0-124.8-101.6-226-226-226s-226 101.6-226 226z" />
<glyph unicode="&#xe943;" glyph-name="attention" d="M512 959.2c-282.4 0-511.2-228.8-511.2-511.2s228.8-511.2 511.2-511.2 511.2 228.8 511.2 511.2-228.8 511.2-511.2 511.2zM461.6 697.6c0 27.6 22.8 50.4 50.4 50.4s50.4-22.8 50.4-50.4v-303.2c0-27.6-22.8-50.4-50.4-50.4s-50.4 22.8-50.4 50.4v303.2zM512 142c-28 0-50.4 22.8-50.4 50.4 0 28 22.8 50.4 50.4 50.4s50.4-22.8 50.4-50.4c0-27.6-22.4-50.4-50.4-50.4z" />
<glyph unicode="&#xe944;" glyph-name="invisible" d="M512.8 96.8c-30 0-59.6 2-87.6 6-16.4 2.4-27.6 17.2-25.6 33.6s17.2 27.6 33.6 25.6c25.2-3.6 52-5.2 79.2-5.2 194.4 0 338.8 86 441.6 262.4 9.6 16.8 10 36.8 1.2 54l-1.2 2c-18.8 32.8-39.6 63.2-62 90-10.4 12.8-8.8 31.6 4 42s31.6 8.8 42-4c24.4-29.6 47.2-62.8 68-98.8v0c0.4-0.4 0.8-1.2 1.2-2l0.8-1.2c18.8-35.6 18-77.6-2-112-112.8-194.4-278.8-292.4-493.2-292.4zM250.4 161.6c-5.2 0-10 1.2-14.8 4-85.2 48.4-157.6 123.2-215.6 222 0 0-0.8 1.2-2.4 4-19.2 34.8-18.4 78 1.2 112.4 111.2 194 277.2 292 493.6 292 98.8 0 188-20.8 265.6-61.6 14.4-7.6 20-25.6 12.4-40.4-7.6-14.4-25.6-20-40.4-12.4-68.8 36.4-148.8 54.8-237.6 54.8-196.4 0-340.8-85.6-442-262-9.6-16.4-9.6-37.2-0.4-54l1.6-2.8c52.4-89.6 117.6-157.2 193.6-200.4 14.4-8 19.2-26.4 11.2-40.8-5.2-9.6-15.6-14.8-26-14.8zM512 618.8c-94.4 0-170.8-76.4-170.8-170.8s76.4-170.8 170.8-170.8 170.8 76.4 170.8 170.8-76.4 170.8-170.8 170.8zM512 337.2c-61.2 0-110.8 49.6-110.8 110.8s49.6 110.8 110.8 110.8 110.8-49.6 110.8-110.8-49.6-110.8-110.8-110.8zM116 22.4c-7.6 0-15.2 2.8-21.2 8.8-11.6 11.6-11.6 30.4 0 42.4l793.6 792.8c11.6 11.6 30.4 11.6 42.4 0 11.6-11.6 11.6-30.4 0-42.4l-793.6-793.2c-5.6-5.6-13.6-8.4-21.2-8.4z" />
<glyph unicode="&#xe945;" glyph-name="mobile_phone" d="M769.6 955.2h-515.2c-68 0-123.2-55.6-123.2-123.2v-768.8c0-68 55.6-123.2 123.2-123.2h514.8c68 0 123.2 55.6 123.2 123.2v768.8c0.4 67.6-55.2 123.2-122.8 123.2zM258 896h508.4c37.2 0 67.2-30.4 67.2-67.2v-550.4h-643.2v550.4c0 37.2 30.4 67.2 67.6 67.2zM766-0.8h-508c-37.2 0-67.2 30.4-67.2 67.2v152.8h642.8v-152.8c0-37.2-30.4-67.2-67.6-67.2zM554 108.8c0-23.196-18.804-42-42-42s-42 18.804-42 42c0 23.196 18.804 42 42 42s42-18.804 42-42z" />
<glyph unicode="&#xe946;" glyph-name="password" d="M510.8 423.2c-86.8 0-157.6-70.8-157.6-157.6 0-56 30.4-108.4 78.8-136.4 4.8-2.8 10-4 14.8-4 10.4 0 20.4 5.2 26 14.8 8.4 14.4 3.2 32.4-10.8 40.8-30.4 17.6-49.2 50-49.2 84.8 0 54 44 98 98 98s98-44 98-98c0-34-17.2-64.8-46-82.8-14-8.8-18-27.2-9.6-41.2s27.2-18 41.2-9.2c46.4 29.2 74 78.8 74 133.6-0.4 86.8-70.8 157.2-157.6 157.2zM808.8 577.2h-13.2v80c0 160-128 290.4-285.2 290.4s-284.8-130.4-284.8-290.8v-80h-13.2c-70 0-127.6-57.2-127.6-127.6v-383.6c0-70 57.2-127.6 127.6-127.6h596.4c70 0 127.6 57.2 127.6 127.6v383.6c-0.4 70.4-57.6 128-127.6 128zM285.2 656.8c0 127.2 101.2 230.8 225.6 230.8s225.2-103.6 225.2-230.8v-80h-450.8v80zM876 66c0-37.2-30.4-67.6-67.6-67.6h-596c-37.2 0-67.6 30.4-67.6 67.6v383.6c0 37.2 30.4 67.6 67.6 67.6h596.4c37.2 0 67.6-30.4 67.6-67.6v-383.6z" />
<glyph unicode="&#xe947;" glyph-name="pause" d="M512 960c-282.4 0-512-229.6-512-512s229.6-512 512-512 512 229.6 512 512c0 282.4-229.6 512-512 512zM512 4.4c-244.8 0-443.6 199.2-443.6 443.6s198.8 443.6 443.6 443.6 443.6-198.8 443.6-443.6-198.8-443.6-443.6-443.6zM375.6 647.6c-18.8 0-34-15.2-34-34v-330c0-18.8 15.2-34 34-34s34 15.2 34 34v329.6c0 18.8-15.2 34.4-34 34.4zM649.2 647.6c-18.8 0-34-15.2-34-34v-330c0-18.8 15.2-34 34-34s34 15.2 34 34v329.6c0 18.8-15.2 34.4-34 34.4z" />
<glyph unicode="&#xe948;" glyph-name="quit" d="M819.2 175.2c-18.8 0-34-15.2-34-34v-0.8c0-44-35.6-79.6-79.6-79.6h-500.8c-44 0-79.6 35.6-79.6 79.6v614.8c0 44 35.6 79.6 79.6 79.6h500.4c44 0 79.6-35.6 79.6-79.6 0-18.8 15.2-34 34-34s34 15.2 34 34v0.4c0 0 0 0.4 0 0.4-0.4 81.2-66.8 146.8-148 146.8h-500c-81.6 0-148-66.4-148-148v-614.8c0-81.6 66.4-148 148-148h500.4c81.6 0 148 66.4 148 148v0.8c0 19.2-15.2 34.4-34 34.4zM967.2 448c0 8.4-3.2 17.2-9.6 23.6l-119.6 122.4c0 0 0 0-0.4 0.4-13.2 13.2-34 13.2-47.2 0s-13.2-34.4-0.4-48l68.8-70h-426.4c-18.8 0-34-15.2-34-34s15.2-34 34-34h425.6l-64.4-70.4c-12.4-13.6-12-34.4 1.2-47.2l0.8-0.8c12.8-12.8 33.2-12.8 46 0 0.4 0.4 0.8 0.8 0.8 1.2l116.8 127.2c7.6 8 10 19.2 8 29.6z" />
<glyph unicode="&#xe949;" glyph-name="radio_normal" d="M512 904c122 0 236.4-47.6 322.4-133.6s133.6-200.4 133.6-322.4-47.6-236.4-133.6-322.4-200.4-133.6-322.4-133.6-236.4 47.6-322.4 133.6c-86 86-133.6 200.4-133.6 322.4s47.6 236.4 133.6 322.4c86 86 200.4 133.6 322.4 133.6zM512 960c-282.8 0-512-229.2-512-512s229.2-512 512-512c282.8 0 512 229.2 512 512s-229.2 512-512 512v0z" />
<glyph unicode="&#xe94a;" glyph-name="radio_selected" d="M512 960c-282.8 0-512-229.2-512-512s229.2-512 512-512 512 229.2 512 512-229.2 512-512 512zM512 248c-110.4 0-200 89.6-200 200s89.6 200 200 200 200-89.6 200-200c0-110.4-89.6-200-200-200z" />
<glyph unicode="&#xe94b;" glyph-name="selected" d="M936 960h-848c-48.4 0-88-39.6-88-88v-848c0-48.4 39.6-88 88-88h848c48.4 0 88 39.6 88 88v848c0 48.4-39.6 88-88 88zM850.4 694.8l-414.4-518c-2.4-3.2-5.2-5.6-8.4-8-18.4-12.8-43.6-8.4-56.4 10l-196.8 279.2c-8.4 12-7.6 28 1.6 39.2 11.6 13.6 32 15.6 45.6 4.4l180.8-149.6 412.4 376c8.8 8 22.4 8.4 31.6 1.2 10.4-8.8 12-24 4-34.4z" />
<glyph unicode="&#xe94c;" glyph-name="selection_box" d="M936 917.2c24.8 0 45.2-20.4 45.2-45.2v-848c0-24.8-20.4-45.2-45.2-45.2h-848c-24.8 0-45.2 20.4-45.2 45.2v848c0 24.8 20.4 45.2 45.2 45.2h848zM936 960h-848c-48.4 0-88-39.6-88-88v-848c0-48.4 39.6-88 88-88h848c48.4 0 88 39.6 88 88v848c0 48.4-39.6 88-88 88v0z" />
<glyph unicode="&#xe94d;" glyph-name="test_down" d="M512.4 930c33.2 0 60.4-26.8 60.4-60.4v-697.2l237.6 237.6c22.4 22.4 57.6 23.6 81.2 3.6l4-3.6c23.6-23.6 23.6-61.6 0-85.2l-335.6-335.2c-11.2-14.4-28.4-23.2-47.6-23.2-17.6 0-33.6 7.6-44.8 20l-338.8 338.8c-23.6 23.6-23.6 61.6 0 85.2s61.6 23.6 85.2 0l238-238.4v697.6c0 33.2 27.2 60.4 60.4 60.4z" />
<glyph unicode="&#xe94e;" glyph-name="test_F" d="M328.8 7.2v392h404.8v101.6h-404.8v267.2h467.6v101.6h-581.6v-862.4z" />
<glyph unicode="&#xe94f;" glyph-name="test_fail" d="M512 960c-282.8 0-512-229.2-512-512s229.2-512 512-512 512 229.2 512 512c0 282.8-229.2 512-512 512zM471.2 673.2c0 22.8 18.4 40.8 40.8 40.8 22.8 0 40.8-18.4 40.8-40.8v-266.4c0-22.8-18.4-40.8-40.8-40.8-22.8 0-40.8 18.4-40.8 40.8v266.4zM512 181.6c-28.4 0-51.2 22.8-51.2 51.2s22.8 51.2 51.2 51.2c28.4 0 51.2-22.8 51.2-51.2 0-28-22.8-51.2-51.2-51.2z" />
<glyph unicode="&#xe950;" glyph-name="test_J" d="M506.8 9.6c50.8 0 95.2 10.4 133.2 31.2s65.6 50.8 82.8 90.4 26 95.6 26 167.6v587.6h-114v-594c0-49.6-4-85.2-11.6-108-8-22.4-22-40.4-42.8-53.6s-45.6-19.6-74-19.6c-38.8 0-69.2 12-91.2 36.4s-34.4 69.6-37.2 135.2l-102.8-14c-1.6-86 17.6-150.4 58-194 40-43.6 98-65.2 173.6-65.2z" />
<glyph unicode="&#xe951;" glyph-name="test_left" d="M994 447.6c0-33.2-26.8-60.4-60.4-60.4h-697.2l237.6-237.6c22.4-22.4 23.6-57.6 3.6-81.2l-3.6-4c-23.6-23.6-61.6-23.6-85.2 0l-335.2 335.6c-14.4 11.2-23.2 28.4-23.2 47.6 0 17.6 7.6 33.6 20 44.8l338.8 338.8c23.6 23.6 61.6 23.6 85.2 0s23.6-61.6 0-85.2l-238.4-238h697.6c33.2 0 60.4-27.2 60.4-60.4z" />
<glyph unicode="&#xe952;" glyph-name="test_right" d="M30 448.4c0 33.2 26.8 60.4 60.4 60.4h697.2l-237.6 237.6c-22.4 22.4-23.6 57.6-3.6 81.2l3.6 4c23.6 23.6 61.6 23.6 85.2 0l335.6-335.2c14.4-11.2 23.2-28.4 23.2-47.6 0-17.6-7.6-33.6-20-44.8l-338.8-338.8c-23.6-23.6-61.6-23.6-85.2 0s-23.6 61.6 0 85.2l238 237.6h-697.6c-33.2 0-60.4 27.2-60.4 60.4z" />
<glyph unicode="&#xe953;" glyph-name="test_success" d="M512 960c-282.8 0-512-229.2-512-512s229.2-512 512-512 512 229.2 512 512-229.2 512-512 512zM766.4 572.8l-305.6-307.2c-7.6-7.6-18-12-29.2-12-10.8 0-21.2 4.4-29.2 12l-144.8 145.6c-16 16-16 42 0 58s42 16 58 0l115.6-116.4 276.8 278c16 16 42 16 58 0 16.4-16 16.4-42 0.4-58z" />
<glyph unicode="&#xe954;" glyph-name="test_unknown" d="M512 960c-282.8 0-512-229.2-512-512s229.2-512 512-512 512 229.2 512 512c0 282.8-229.2 512-512 512zM512 168.8c-20.4 0-37.2 16.8-37.2 37.2s16.8 37.2 37.2 37.2 37.2-16.8 37.2-37.2c0-20.8-16.8-37.2-37.2-37.2zM613.2 465.6c-24.4-24.4-44.8-46.8-61.2-66.4-8.4-10-13.2-22.8-13.2-36v-36.8c0-15.6-12.4-28-28-28s-28 12.4-28 28v36.8c0 26.4 9.2 51.6 26 72 17.2 20.8 39.2 44 64.4 69.6 22.4 22.4 32.4 52.8 26 78-6 22.4-24.8 38.4-54.4 46.8-34 9.6-75.2 2.4-96.4-16.8-18-16-28.8-37.2-34-64.4-2.8-15.2-17.6-25.2-32.4-22.4-15.2 2.8-25.2 17.2-22.4 32.4 7.2 39.2 24.4 71.2 51.2 95.6 36 32.4 95.6 44.4 148.8 29.2 49.2-14 82.4-44.4 93.2-86.4 12.4-44-2.8-94.4-39.6-131.2z" />
<glyph unicode="&#xe955;" glyph-name="test_up" d="M511.2-34c-33.2 0-60.4 26.8-60.4 60.4v697.2l-237.6-237.6c-22.4-22.4-57.6-23.6-81.2-3.6l-4 3.6c-23.6 23.6-23.6 61.6 0 85.2l335.2 335.6c11.2 14.4 28.4 23.2 47.6 23.2 17.6 0 33.6-7.6 44.8-20l338.8-338.8c23.6-23.6 23.6-61.6 0-85.2s-61.6-23.6-85.2 0l-238 238v-697.6c0-33.2-26.8-60.4-60-60.4z" />
<glyph unicode="&#xe956;" glyph-name="verification_code" d="M957.2 772.4c-0.4 1.6-0.8 3.2-1.2 4.8 0 0.4 0 1.2 0 1.6-0.8 16.4-14.8 28.8-31.2 28-10.4-0.8-21.2-0.8-31.6-0.8-133.2 0-264.4 51.6-360 141.6-5.6 5.2-12.8 8-19.6 8-0.4 0-0.8 0-0.8 0-0.4 0-0.4 0-0.8 0-7.2 0-14.4-2.8-20-8-96.8-91.6-224.8-142-360.8-142-2.4 0-6 0-10 0-8 0-19.2 0-24 0-14.8 0.8-27.6-9.6-30.4-24-7.2-29.6-7.6-77.6-7.6-132.8 0-300.4 168.4-570.4 440-705.2 0.4 0 0.4-0.4 0.8-0.4 0.4-0.4 0.8-0.4 1.2-0.4 0.8-0.4 1.6-0.4 2.4-0.8 0.4 0 0.8-0.4 1.2-0.4 0.8-0.4 2-0.4 2.8-0.4 0.4 0 0.8 0 0.8 0 1.2 0 2.4-0.4 3.6-0.4 0 0 0 0 0 0s0 0 0 0c1.2 0 2.4 0 3.6 0.4 0.4 0 0.8 0 0.8 0 0.8 0 2 0.4 2.8 0.4 0.4 0 0.8 0.4 1.2 0.4 0.8 0.4 1.6 0.4 2.4 0.8 0.4 0 0.8 0.4 1.6 0.8 0.4 0 0.8 0.4 0.8 0.4 128.8 65.6 238 164.4 315.6 285.6 80.8 126 123.6 271.2 123.6 419.2 0.4 31.6-0.4 78.4-7.2 123.6zM791.2 261.6c-69.6-108.4-166-197.2-279.6-258-242.8 126.8-393.2 372.4-393.2 645.2 0 28.8 0 68.8 2.8 97.2 0 0 0.4 0 0.8 0 3.6 0 6.8 0 9.6 0 142.4 0 276.8 49.6 381.6 139.6 104.4-89.2 241.6-139.6 380.4-139.6 2.8 0 5.2 0 8 0 3.2-27.6 4.8-58.8 4.8-97.6-0.8-136-40.4-270-115.2-386.8zM715.2 609.2l-245.2-239.2-118 110c-12 11.2-30.8 10.4-42-1.6s-10.4-30.8 1.6-42l138.4-129.2c5.6-5.2 12.8-8 20.4-8s14.8 2.8 20.8 8.4l265.2 258.8c11.6 11.6 12 30 0.4 42-11.2 12-30 12-41.6 0.8z" />
<glyph unicode="&#xe957;" glyph-name="visible" d="M1006 504.8c-111.2 194-277.2 292.4-493.6 292.4-216.8 0-382.8-98.4-493.6-292.4-20.4-35.6-20.4-79.6 0.4-115.2 113.2-194 279.2-292.4 493.2-292.4 214.4 0 380.4 98.4 493.2 292.4 20.8 35.6 20.8 79.6 0.4 115.2zM954 419.6c-102.8-176.8-247.6-262.8-441.6-262.8-194.4 0-338.8 86-441.6 262.8-10 17.2-10 38.4-0.4 55.6 101.2 176.4 245.6 262 442 262s340.8-85.6 442-262c9.6-17.2 9.6-38.4-0.4-55.6zM512.4 618.4c-94.4 0-171.2-76.4-171.2-171.2s76.4-171.2 171.2-171.2 171.2 76.4 171.2 171.2-76.8 171.2-171.2 171.2zM512.4 336c-61.6 0-111.2 49.6-111.2 111.2s49.6 111.2 111.2 111.2 111.2-49.6 111.2-111.2-50-111.2-111.2-111.2z" />
<glyph unicode="&#xe958;" glyph-name="surface_1A1" d="M461.7 104.508l72.227 41.7-110.4 191.218 88.335 51 87.9-152.247 70.148 40.5-87.9 152.247 86.256 49.8 99.6-172.512 70.148 40.5-99.6 172.512 102.884 59.4-45 77.942-102.884-59.4-54 93.531c22.713 3.010 45.594 6.647 68.644 10.912l9.889 1.866-25.474 88.523c-93.382-20.658-174.101-26.848-242.16-18.567-23.431-30.617-46.422-59.595-68.974-86.934 52.474-5.555 106.168-7.054 161.081-4.497l8.246 0.414 72.6-125.747-86.256-49.8-88.8 153.806-70.148-40.5 88.8-153.806-88.335-51-126.3 218.758-72.227-41.7 281.7-487.919z" />
<glyph unicode="&#xe959;" glyph-name="surface_1A2" d="M158.72 308.241l72.227-41.7 110.4 191.218 88.335-51-87.9-152.247 70.148-40.5 87.9 152.247 86.256-49.8-99.6-172.512 70.148-40.5 99.6 172.512 102.884-59.4 45 77.942-102.884 59.4 54 93.531c13.963-18.165 28.554-36.162 43.772-53.991l6.56-7.631 63.926 66.323c-64.582 70.542-110.301 137.352-137.16 200.433-38.231 4.983-74.822 10.405-109.774 16.266 21.427-48.221 46.975-95.471 76.646-141.749l4.482-6.934-72.6-125.747-86.256 49.8 88.8 153.806-70.148 40.5-88.8-153.806-88.335 51 126.3 218.758-72.227 41.7-281.7-487.919z" />
<glyph unicode="&#xe95a;" glyph-name="surface_1A3" d="M220.16 729.6v-83.4h220.8v-102h-175.8v-81h175.8v-99.6h-199.2v-81h199.2v-118.8h90v118.8h108c-8.75-21.175-17.041-42.809-24.872-64.903l-3.328-9.497 89.4-22.2c28.8 91.2 63.8 164.2 105 219-14.8 35.6-28.4 70-40.8 103.2-31.048-42.667-59.193-88.417-84.435-137.252l-3.765-7.348h-145.2v99.6h177.6v81h-177.6v102h252.6v83.4h-563.4z" />
<glyph unicode="&#xe95b;" glyph-name="surface_1A4" d="M558.797 791.040l-72.227-41.7 110.4-191.218-88.335-51-87.9 152.247-70.148-40.5 87.9-152.247-86.256-49.8-99.6 172.512-70.148-40.5 99.6-172.512-102.884-59.4 45-77.942 102.884 59.4 54-93.531c-22.713-3.010-45.594-6.647-68.644-10.912l-9.889-1.866 25.474-88.523c93.382 20.658 174.101 26.848 242.16 18.567 23.431 30.617 46.422 59.595 68.974 86.934-52.474 5.555-106.168 7.054-161.081 4.497l-8.246-0.414-72.6 125.747 86.256 49.8 88.8-153.806 70.148 40.5-88.8 153.806 88.335 51 126.3-218.758 72.227 41.7-281.7 487.919z" />
<glyph unicode="&#xe95c;" glyph-name="surface_1A5" d="M869.491 591.366l-72.227 41.7-110.4-191.218-88.335 51 87.9 152.247-70.148 40.5-87.9-152.247-86.256 49.8 99.6 172.512-70.148 40.5-99.6-172.512-102.884 59.4-45-77.942 102.884-59.4-54-93.531c-13.963 18.165-28.554 36.162-43.772 53.991l-6.56 7.631-63.926-66.323c64.582-70.542 110.301-137.352 137.16-200.433 38.231-4.983 74.822-10.405 109.774-16.266-21.427 48.221-46.975 95.471-76.646 141.749l-4.481 6.934 72.6 125.747 86.256-49.8-88.8-153.806 70.148-40.5 88.8 153.806 88.335-51-126.3-218.758 72.227-41.7 281.7 487.919z" />
<glyph unicode="&#xe95d;" glyph-name="surface_1B1" d="M558.797 103.548l-72.227 41.7 110.4 191.218-88.335 51-87.9-152.247-70.148 40.5 87.9 152.247-86.256 49.8-99.6-172.512-70.148 40.5 99.6 172.512-102.884 59.4 45 77.942 102.884-59.4 54 93.531c-22.713 3.010-45.594 6.647-68.644 10.912l-9.889 1.866 25.474 88.523c93.382-20.658 174.101-26.848 242.16-18.567 23.431-30.617 46.422-59.595 68.974-86.934-52.474-5.555-106.168-7.054-161.081-4.497l-8.246 0.414-72.6-125.747 86.256-49.8 88.8 153.806 70.148-40.5-88.8-153.806 88.335-51 126.3 218.758 72.227-41.7-281.7-487.919z" />
<glyph unicode="&#xe95e;" glyph-name="surface_1B2" d="M359.742 95.963l-39.154 73.638 194.955 103.659-47.886 90.061-155.222-82.533-38.027 71.519 155.222 82.533-46.759 87.942-175.883-93.519-38.027 71.519 175.883 93.519-55.773 104.894 79.465 42.252 55.773-104.894 95.358 50.703c-17.667 14.589-35.144 29.798-52.431 45.629l-7.397 6.823 68.513 61.572c68.245-67.004 133.419-115.028 195.524-144.071 3.646-38.381 7.787-75.139 12.425-110.275-47.444 23.096-93.773 50.278-138.988 81.546l-6.774 4.721-128.204-68.167 46.759-87.942 156.811 83.378 38.027-71.519-156.811-83.378 47.886-90.061 223.033 118.589 39.154-73.638-497.453-264.5z" />
<glyph unicode="&#xe95f;" glyph-name="surface_1B3" d="M158.72 591.366l72.227 41.7 110.4-191.218 88.335 51-87.9 152.247 70.148 40.5 87.9-152.247 86.256 49.8-99.6 172.512 70.148 40.5 99.6-172.512 102.884 59.4 45-77.942-102.884-59.4 54-93.531c13.963 18.165 28.554 36.162 43.772 53.991l6.56 7.631 63.926-66.323c-64.582-70.542-110.301-137.352-137.16-200.433-38.231-4.983-74.822-10.405-109.774-16.266 21.427 48.221 46.975 95.471 76.646 141.749l4.482 6.934-72.6 125.747-86.256-49.8 88.8-153.806-70.148-40.5-88.8 153.806-88.335-51 126.3-218.758-72.227-41.7-281.7 487.919z" />
<glyph unicode="&#xe960;" glyph-name="surface_1B4" d="M230.4 739.84h83.4v-220.8h102v175.8h81v-175.8h99.6v199.2h81v-199.2h118.8v-90h-118.8v-108c21.175 8.75 42.809 17.041 64.903 24.872l9.497 3.328 22.2-89.4c-91.2-28.8-164.2-63.8-219-105-35.6 14.8-70 28.4-103.2 40.8 42.667 31.048 88.417 59.193 137.252 84.435l7.348 3.765v145.2h-99.6v-177.6h-81v177.6h-102v-252.6h-83.4v563.4z" />
<glyph unicode="&#xe961;" glyph-name="surface_1B5" d="M562.224 811.52l58.973-58.973-156.129-156.129 72.125-72.125 124.309 124.309 57.276-57.276-124.309-124.309 70.428-70.428 140.856 140.856 57.276-57.276-140.856-140.856 84.004-84.004-63.64-63.64-84.004 84.004-76.368-76.368c21.16-8.786 42.32-18.221 63.481-28.306l9.069-4.362-47.518-78.913c-84.853 44.123-161.22 70.994-229.103 80.61-14.708 35.638-29.416 69.579-44.123 101.823 52.124-8.216 104.376-20.665 156.756-37.347l7.858-2.534 102.672 102.672-70.428 70.428-125.582-125.582-57.276 57.276 125.582 125.582-72.125 72.125-178.615-178.615-58.973 58.973 398.384 398.384z" />
<glyph unicode="&#xe962;" glyph-name="surface_2A1" d="M187.48 392.405l228.891 132.15c-2.037-20.806-4.305-41.905-6.804-63.299l-1.527-12.871 84.393 0.227c0.588 34.981 0.373 71.024-0.648 108.13l-0.33 11.164 44.167 25.5 39-67.55 69.109 39.9-39 67.55 93.011 53.7-39 67.55-93.011-53.7-43.2 74.825-69.109-39.9 40.8-70.668c-66.376-11.087-131.372-14.471-194.989-10.153l-6.576 0.474-77.872-77.522c44.314-2.911 90.755-1.637 139.322 3.824l6.636 0.771-212.263-122.55 39-67.55zM270.698 255.468l10.808-18.641c20.862-35.816 37.197-62.836 49.005-81.059 13.776-21.26 31.372-34.138 52.788-38.632 20.786-4.362 44.375 0.835 70.767 15.591l2.407 1.368 260.847 150.6 32.1-55.599 68.589 39.6-32.1 55.599 88.335 51-42 72.746-88.335-51-86.1 149.13-68.589-39.6 64.5-111.717c-119.484-8.247-228.736 8.582-327.754 50.487-8.013-27.721-18.725-56.768-32.134-87.142 93.629-32.134 196.493-45.346 308.594-39.637l6.124 0.33-170.694-98.55c-25.634-14.8-46.152-8.863-61.552 17.81-15.6 27.020-29.507 52.708-41.722 77.064-20.249-20.928-41.544-40.844-63.885-59.747z" />
<glyph unicode="&#xe963;" glyph-name="surface_2A2" d="M308.12 716.814l228.891-132.15c-19.037-8.639-38.443-17.225-58.22-25.757l-11.911-5.113 42.393-72.973c30.588 16.981 61.695 35.189 93.319 54.626l9.503 5.868 44.167-25.5-39-67.55 69.109-39.9 39 67.55 93.011-53.7 39 67.55-93.011 53.7 43.2 74.825-69.109 39.9-40.8-70.668c-42.789 51.94-78.219 106.536-106.288 163.789l-2.877 5.932-106.072 28.678c19.636-39.833 43.96-79.414 72.972-118.744l3.985-5.362-212.263 122.55-39-67.55zM231.138 576.277l-9.012-15.664c-21.464-37.45-37.272-66.112-47.425-85.987-11.524-22.56-13.878-44.238-7.062-65.032 6.616-20.182 22.911-38.013 48.886-53.49l2.388-1.401 260.847-150.6-32.1-55.599 68.589-39.6 32.1 55.599 88.335-51 42 72.746-88.335 51 86.1 149.13-68.589 39.6-64.5-111.717c-66.884 99.353-106.936 202.382-120.154 309.087-28.013-6.921-58.525-12.168-91.534-15.742 18.986-97.152 58.976-192.841 119.97-287.069l3.348-5.138-170.694 98.55c-25.634 14.8-30.752 35.537-15.352 62.21 15.6 27.020 30.893 51.908 45.878 74.664-28.249 7.072-56.144 15.556-83.685 25.453z" />
<glyph unicode="&#xe964;" glyph-name="surface_2A3" d="M637.44 744.96v-264.3c-17 12.167-34.139 24.681-51.417 37.542l-10.383 7.758-42-73.2c30-18 61.322-35.835 93.967-53.504l9.833-5.296v-51h-78v-79.8h78v-107.4h78v107.4h86.4v79.8h-81.6c23.587 63.027 53.154 121.007 88.701 173.942l3.699 5.458-28.2 106.2c-24.678-36.922-46.795-77.778-66.349-122.568l-2.651-6.132v245.1h-78zM477.24 741.36l-21.548-0.040c-41.449-0.159-73.016-0.796-94.702-1.91-25.3-1.3-45.25-10.1-59.85-26.4-14.171-15.821-21.464-38.848-21.881-69.082l-0.019-2.768v-301.2h-64.2v-79.2h64.2v-102h84v102h172.2v79.2h-129c52.6 107.6 121.8 193.8 207.6 258.6-20 20.8-39.8 44.6-59.4 71.4-74.643-65.018-137.518-147.495-188.624-247.432l-2.776-5.468v197.1c0 29.6 15.4 44.4 46.2 44.4 31.2 0 60.4-0.8 87.6-2.4-8 28-14.6 56.4-19.8 85.2z" />
<glyph unicode="&#xe965;" glyph-name="surface_2A4" d="M835.244 498.918l-228.891-132.15c2.037 20.806 4.305 41.905 6.804 63.299l1.527 12.871-84.393-0.227c-0.588-34.981-0.373-71.024 0.648-108.13l0.33-11.164-44.167-25.5-39 67.55-69.109-39.9 39-67.55-93.011-53.7 39-67.55 93.011 53.7 43.2-74.825 69.109 39.9-40.8 70.668c66.376 11.087 131.372 14.471 194.989 10.153l6.576-0.474 77.872 77.522c-44.314 2.911-90.755 1.637-139.322-3.824l-6.636-0.771 212.263 122.55-39 67.55zM752.026 635.855l-10.808 18.641c-20.862 35.816-37.197 62.836-49.005 81.059-13.776 21.26-31.372 34.138-52.788 38.632-20.786 4.362-44.375-0.835-70.767-15.591l-2.407-1.368-260.847-150.6-32.1 55.599-68.589-39.6 32.1-55.599-88.335-51 42-72.746 88.335 51 86.1-149.13 68.589 39.6-64.5 111.717c119.484 8.247 228.736-8.582 327.754-50.487 8.013 27.721 18.725 56.768 32.134 87.142-93.629 32.134-196.493 45.346-308.594 39.637l-6.124-0.33 170.694 98.55c25.634 14.8 46.152 8.863 61.552-17.81 15.6-27.020 29.507-52.708 41.722-77.064 20.249 20.928 41.544 40.844 63.885 59.747z" />
<glyph unicode="&#xe966;" glyph-name="surface_2A5" d="M713.102 178.011l-228.891 132.15c19.037 8.639 38.443 17.225 58.22 25.757l11.911 5.113-42.393 72.973c-30.588-16.981-61.695-35.189-93.319-54.626l-9.503-5.868-44.167 25.5 39 67.55-69.109 39.9-39-67.55-93.011 53.7-39-67.55 93.011-53.7-43.2-74.825 69.109-39.9 40.8 70.668c42.789-51.94 78.219-106.536 106.288-163.789l2.877-5.932 106.072-28.678c-19.636 39.833-43.96 79.414-72.972 118.744l-3.985 5.362 212.263-122.55 39 67.55zM790.084 318.548l9.012 15.664c21.464 37.45 37.272 66.112 47.425 85.987 11.524 22.56 13.878 44.238 7.062 65.032-6.616 20.182-22.911 38.013-48.886 53.49l-2.388 1.401-260.847 150.6 32.1 55.599-68.589 39.6-32.1-55.599-88.335 51-42-72.746 88.335-51-86.1-149.13 68.589-39.6 64.5 111.717c66.884-99.353 106.936-202.382 120.154-309.087 28.013 6.921 58.525 12.168 91.534 15.742-18.986 97.152-58.976 192.841-119.97 287.069l-3.348 5.138 170.694-98.55c25.634-14.8 30.752-35.537 15.352-62.21-15.6-27.020-30.893-51.908-45.878-74.664 28.249-7.072 56.144-15.556 83.685-25.453z" />
<glyph unicode="&#xe967;" glyph-name="surface_2B1" d="M835.244 392.405l-228.891 132.15c2.037-20.806 4.305-41.905 6.804-63.299l1.527-12.871-84.393 0.227c-0.588 34.981-0.373 71.024 0.648 108.13l0.33 11.164-44.167 25.5-39-67.55-69.109 39.9 39 67.55-93.011 53.7 39 67.55 93.011-53.7 43.2 74.825 69.109-39.9-40.8-70.668c66.376-11.087 131.372-14.471 194.989-10.153l6.576 0.474 77.872-77.522c-44.314-2.911-90.755-1.637-139.322 3.824l-6.636 0.771 212.263-122.55-39-67.55zM752.026 255.468l-10.808-18.641c-20.862-35.816-37.197-62.836-49.005-81.059-13.776-21.26-31.372-34.138-52.788-38.632-20.786-4.362-44.375 0.835-70.767 15.591l-2.407 1.368-260.847 150.6-32.1-55.599-68.589 39.6 32.1 55.599-88.335 51 42 72.746 88.335-51 86.1 149.13 68.589-39.6-64.5-111.717c119.484-8.247 228.736 8.582 327.754 50.487 8.013-27.721 18.725-56.768 32.134-87.142-93.629-32.134-196.493-45.346-308.594-39.637l-6.124 0.33 170.694-98.55c25.634-14.8 46.152-8.863 61.552 17.81 15.6 27.020 29.507 52.708 41.722 77.064 20.249-20.928 41.544-40.844 63.885-59.747z" />
<glyph unicode="&#xe968;" glyph-name="surface_2B2" d="M816.272 319.258l-186.888 186.888c-3.418-20.624-6.688-41.592-9.811-62.903l-1.856-12.828-81.459 22.062c8.485 33.941 18.022 68.7 28.612 104.278l3.208 10.698-36.062 36.062-55.154-55.154-56.427 56.427 55.154 55.154-75.943 75.943 55.154 55.154 75.943-75.943 61.094 61.094 56.427-56.427-57.7-57.7c61.245-27.888 123.151-47.98 185.717-60.274l6.475-1.244 55.154-95.035c-43.558 8.657-88.086 21.908-133.585 39.753l-6.21 2.462 173.312-173.312-55.154-55.154zM700.448 208.525l-17.701-17.625c-28.245-27.99-50.205-49.056-65.879-63.198-18.809-16.971-39.138-24.855-60.988-23.653-21.207 1.167-42.647 12.292-64.32 33.376l-1.971 1.944-212.981 212.981-45.396-45.396-56.003 56.003 45.396 45.396-72.125 72.125 59.397 59.397 72.125-72.125 121.764 121.764 56.003-56.003-91.217-91.217c113.279-38.891 223.163-50.912 329.653-36.062 0.566-28.85 3.394-59.68 8.485-92.49-98.755-6.806-201.534 7.055-308.338 41.583l-5.83 1.904 139.371-139.371c20.93-20.93 42.285-20.506 64.064 1.273 22.062 22.062 42.144 43.275 60.245 63.64 14.142-25.456 29.557-50.205 46.245-74.246z" />
<glyph unicode="&#xe969;" glyph-name="surface_2B3" d="M308.12 178.011l228.891 132.15c-19.037 8.639-38.443 17.225-58.22 25.757l-11.911 5.113 42.393 72.973c30.588-16.981 61.695-35.189 93.319-54.626l9.503-5.868 44.167 25.5-39 67.55 69.109 39.9 39-67.55 93.011 53.7 39-67.55-93.011-53.7 43.2-74.825-69.109-39.9-40.8 70.668c-42.789-51.94-78.219-106.536-106.288-163.789l-2.877-5.932-106.072-28.678c19.636 39.833 43.96 79.414 72.972 118.744l3.985 5.362-212.263-122.55-39 67.55zM231.138 318.548l-9.012 15.664c-21.464 37.45-37.272 66.112-47.425 85.987-11.524 22.56-13.878 44.238-7.062 65.032 6.616 20.182 22.911 38.013 48.886 53.49l2.388 1.401 260.847 150.6-32.1 55.599 68.589 39.6 32.1-55.599 88.335 51 42-72.746-88.335-51 86.1-149.13-68.589-39.6-64.5 111.717c-66.884-99.353-106.936-202.382-120.154-309.087-28.013 6.921-58.525 12.168-91.534 15.742 18.986 97.152 58.976 192.841 119.97 287.069l3.348 5.138-170.694-98.55c-25.634-14.8-30.752-35.537-15.352-62.21 15.6-27.020 30.893-51.908 45.878-74.664-28.249-7.072-56.144-15.556-83.685-25.453z" />
<glyph unicode="&#xe96a;" glyph-name="surface_2B4" d="M215.040 322.56h264.3c-12.167 17-24.681 34.139-37.542 51.417l-7.758 10.383 73.2 42c18-30 35.835-61.322 53.504-93.967l5.296-9.833h51v78h79.8v-78h107.4v-78h-107.4v-86.4h-79.8v81.6c-63.027-23.587-121.007-53.154-173.942-88.701l-5.458-3.699-106.2 28.2c36.922 24.678 77.778 46.795 122.568 66.349l6.132 2.651h-245.1v78zM218.64 482.76l0.040 21.548c0.159 41.449 0.796 73.016 1.91 94.702 1.3 25.3 10.1 45.25 26.4 59.85 15.821 14.171 38.848 21.464 69.082 21.881l2.768 0.019h301.2v64.2h79.2v-64.2h102v-84h-102v-172.2h-79.2v129c-107.6-52.6-193.8-121.8-258.6-207.6-20.8 20-44.6 39.8-71.4 59.4 65.018 74.643 147.495 137.518 247.432 188.624l5.468 2.776h-197.1c-29.6 0-44.4-15.4-44.4-46.2 0-31.2 0.8-60.4 2.4-87.6-28 8-56.4 14.6-85.2 19.8z" />
<glyph unicode="&#xe96b;" glyph-name="surface_2B5" d="M203.634 575.713l186.888-186.888c3.418 20.624 6.688 41.592 9.811 62.903l1.856 12.828 81.459-22.062c-8.485-33.941-18.022-68.7-28.612-104.278l-3.208-10.698 36.062-36.062 55.154 55.154 56.427-56.427-55.154-55.154 75.943-75.943-55.154-55.154-75.943 75.943-61.094-61.094-56.427 56.427 57.7 57.7c-61.245 27.888-123.15 47.98-185.717 60.274l-6.475 1.244-55.154 95.035c43.558-8.657 88.086-21.908 133.585-39.753l6.21-2.462-173.312 173.312 55.154 55.154zM319.458 686.446l17.701 17.625c28.245 27.99 50.205 49.056 65.879 63.198 18.809 16.971 39.138 24.855 60.988 23.653 21.207-1.167 42.647-12.292 64.32-33.376l1.971-1.944 212.981-212.981 45.396 45.396 56.003-56.003-45.396-45.396 72.125-72.125-59.397-59.397-72.125 72.125-121.764-121.764-56.003 56.003 91.217 91.217c-113.279 38.891-223.163 50.912-329.653 36.062-0.566 28.85-3.394 59.68-8.485 92.49 98.755 6.806 201.534-7.055 308.338-41.583l5.83-1.904-139.371 139.371c-20.93 20.93-42.285 20.506-64.064-1.273-22.062-22.062-42.144-43.275-60.246-63.64-14.142 25.456-29.557 50.205-46.245 74.246z" />
<glyph unicode="&#xe96c;" glyph-name="surface_3A1" d="M239.718 377.921l432.761 249.86 61.289-106.156c6.458-11.186 10.824-22.75 13.12-34.72l0.476-2.662c2.13-12.809 2.012-25.023-0.348-36.588-2.362-11.576-6.689-22.219-12.996-31.976-6.168-9.542-14.127-17.113-23.95-22.785-10.308-5.951-21.083-9.189-32.417-9.759-11.604-0.584-22.985 0.991-34.19 4.733-11.196 3.739-21.833 9.743-31.933 18.053-9.415 7.746-17.441 17.076-24.093 28.024l-1.453 2.454-39.022 67.59-46.296-26.729-146.738-303.113 71.641-34.795 111.33 228.69 0.864-1.047c11.135-13.209 23.763-24.361 37.87-33.434 17.735-11.405 36.459-19.651 56.148-24.718 19.802-5.096 39.795-6.465 59.932-4.102 20.244 2.376 39.591 8.891 57.986 19.511 19.424 11.215 35.515 25.995 48.21 44.289 12.62 18.185 21.307 38.084 26.036 59.644 4.718 21.505 5.361 43.769 1.944 66.747-3.255 21.886-10.492 42.947-21.685 63.145l-1.762 3.116-112.008 194.004-68.639-39.629 10.647-18.441-432.761-249.86 40.038-69.349z" />
<glyph unicode="&#xe96d;" glyph-name="surface_3A2" d="M293.448 655.131l432.766-249.852-61.289-106.156c-6.458-11.186-14.29-20.749-23.509-28.722l-2.067-1.743c-10.028-8.249-20.664-14.253-31.861-17.993-11.206-3.742-22.586-5.317-34.19-4.733-11.347 0.571-21.884 3.678-31.707 9.349-10.308 5.951-18.499 13.664-24.66 23.195-6.307 9.758-10.634 20.401-12.996 31.976-2.36 11.566-2.478 23.779-0.332 36.682 2 12.027 6.068 23.643 12.223 34.877l1.399 2.486 39.023 67.589-46.296 26.729-335.872-24.477 5.687-79.44 253.717 17.93-0.475-1.272c-5.872-16.248-9.216-32.76-10.019-49.514-1.010-21.061 1.211-41.4 6.668-60.985 5.487-19.697 14.298-37.696 26.414-53.953 12.18-16.344 27.496-29.841 45.89-40.461 19.424-11.215 40.27-17.759 62.46-19.607 22.059-1.837 43.635 0.59 64.671 7.274 20.982 6.667 40.585 17.241 58.777 31.69 17.326 13.762 31.947 30.559 43.843 50.353l1.818 3.084 112.008 194.004-68.639 39.629-10.647-18.441-432.766 249.852-40.038-69.349z" />
<glyph unicode="&#xe96e;" glyph-name="surface_3A3" d="M613.786 736.86l0.005-499.712h-122.578c-12.916 0-25.114 2.001-36.628 5.998l-2.543 0.919c-12.158 4.56-22.676 10.769-31.512 18.596-8.844 7.833-15.898 16.902-21.194 27.243-5.18 10.113-7.757 20.791-7.757 32.134 0 11.902 2.584 22.853 7.757 32.953 5.297 10.341 12.35 19.41 21.194 27.243 8.836 7.827 19.354 14.036 31.601 18.629 11.416 4.281 23.509 6.566 36.316 6.853l2.852 0.031h78.046v53.458l-189.134 278.635-65.954-44.646 142.386-210.76-1.339-0.225c-17.007-3.039-32.979-8.399-47.89-16.080-18.744-9.656-35.247-21.749-49.481-36.267-14.315-14.601-25.497-31.231-33.518-49.852-8.064-18.72-12.095-38.733-12.095-59.973 0-22.429 4.755-43.755 14.25-63.896 9.439-20.022 22.328-37.494 38.635-52.37 16.265-14.838 35.224-26.527 56.833-35.057 20.581-8.124 42.439-12.387 65.528-12.793l3.58-0.032h224.016v79.258h-21.294l-0.005 499.712h-80.077z" />
<glyph unicode="&#xe96f;" glyph-name="surface_3A4" d="M788.006 516.633l-432.761-249.86-61.289 106.156c-6.458 11.186-10.824 22.75-13.12 34.72l-0.476 2.662c-2.13 12.809-2.012 25.023 0.348 36.588 2.362 11.576 6.689 22.219 12.996 31.976 6.168 9.542 14.127 17.113 23.95 22.785 10.308 5.951 21.083 9.189 32.417 9.759 11.604 0.583 22.985-0.991 34.19-4.733 11.196-3.739 21.833-9.743 31.933-18.053 9.415-7.746 17.441-17.076 24.093-28.024l1.453-2.454 39.022-67.59 46.296 26.729 146.738 303.113-71.641 34.795-111.33-228.69-0.864 1.047c-11.135 13.209-23.763 24.361-37.87 33.434-17.735 11.405-36.459 19.651-56.148 24.718-19.802 5.096-39.795 6.465-59.932 4.102-20.244-2.376-39.591-8.891-57.986-19.511-19.424-11.215-35.515-25.995-48.21-44.289-12.62-18.185-21.307-38.084-26.036-59.644-4.718-21.505-5.361-43.769-1.944-66.747 3.255-21.886 10.492-42.947 21.685-63.145l1.762-3.116 112.008-194.004 68.639 39.629-10.647 18.441 432.761 249.86-40.038 69.349z" />
<glyph unicode="&#xe970;" glyph-name="surface_3A5" d="M726.17 235.791l-432.766 249.852 61.289 106.156c6.458 11.186 14.29 20.749 23.509 28.722l2.067 1.743c10.028 8.249 20.664 14.253 31.861 17.993 11.206 3.742 22.586 5.317 34.19 4.733 11.347-0.571 21.884-3.678 31.707-9.349 10.308-5.951 18.499-13.664 24.66-23.195 6.307-9.758 10.634-20.401 12.996-31.976 2.36-11.566 2.478-23.779 0.332-36.682-2-12.027-6.068-23.642-12.223-34.877l-1.399-2.486-39.023-67.589 46.296-26.729 335.872 24.477-5.687 79.44-253.717-17.93 0.475 1.272c5.872 16.248 9.216 32.76 10.019 49.514 1.010 21.061-1.211 41.4-6.668 60.985-5.487 19.697-14.298 37.696-26.414 53.953-12.18 16.344-27.496 29.841-45.89 40.461-19.424 11.215-40.27 17.759-62.46 19.607-22.059 1.837-43.635-0.59-64.671-7.274-20.982-6.667-40.585-17.241-58.777-31.69-17.326-13.762-31.947-30.559-43.843-50.353l-1.818-3.084-112.008-194.004 68.639-39.629 10.647 18.441 432.766-249.852 40.038 69.349z" />
<glyph unicode="&#xe971;" glyph-name="surface_3B1" d="M799.13 546.304l-499.712 0.005v-122.578c0-12.916 2.001-25.114 5.998-36.628l0.919-2.543c4.56-12.158 10.769-22.676 18.596-31.512 7.833-8.844 16.902-15.898 27.243-21.194 10.113-5.18 20.791-7.757 32.134-7.757 11.903 0 22.853 2.584 32.953 7.757 10.341 5.297 19.41 12.35 27.243 21.194 7.827 8.836 14.036 19.354 18.629 31.601 4.281 11.416 6.566 23.509 6.853 36.316l0.031 2.852v78.046h53.458l278.635-189.134-44.646-65.954-210.76 142.386-0.225-1.339c-3.039-17.007-8.399-32.979-16.080-47.89-9.656-18.744-21.749-35.247-36.267-49.481-14.601-14.315-31.231-25.497-49.852-33.518-18.72-8.064-38.733-12.095-59.973-12.095-22.429 0-43.755 4.755-63.896 14.25-20.022 9.439-37.494 22.328-52.37 38.635-14.838 16.265-26.527 35.224-35.057 56.833-8.124 20.581-12.387 42.439-12.793 65.528l-0.032 3.58v224.016h79.258v-21.294l499.712-0.005v-80.077z" />
<glyph unicode="&#xe972;" glyph-name="surface_3B2" d="M761.41 299.723l-353.346 353.353-86.676-86.676c-9.133-9.133-16.343-19.173-21.659-30.141l-1.149-2.448c-5.373-11.821-8.419-23.649-9.133-35.432-0.715-11.793 0.71-23.193 4.277-34.25 3.488-10.813 9.216-20.187 17.237-28.207 8.416-8.416 17.987-14.332 28.787-17.816 11.058-3.567 22.458-4.992 34.25-4.277 11.783 0.714 23.61 3.761 35.518 9.173 11.099 5.045 21.266 11.98 30.525 20.834l2.039 1.994 55.186 55.187 37.8-37.8 63.287-330.763-78.206-15.067-48.347 249.712-1.106-0.788c-14.175-9.877-29.258-17.381-45.233-22.493-20.082-6.426-40.303-9.545-60.633-9.344-20.446 0.202-40.113 4.055-58.951 11.55-18.939 7.535-35.941 18.835-50.96 33.854-15.86 15.86-27.577 34.302-35.105 55.257-7.483 20.832-10.724 42.3-9.712 64.35 1.009 21.993 6.15 43.665 15.398 64.976 8.809 20.298 21.25 38.768 37.29 55.381l2.509 2.554 158.403 158.403 56.044-56.044-15.057-15.057 353.346-353.353-56.623-56.623z" />
<glyph unicode="&#xe973;" glyph-name="surface_3B3" d="M293.448 235.791l432.766 249.852-61.289 106.156c-6.458 11.186-14.29 20.749-23.509 28.722l-2.067 1.743c-10.028 8.249-20.664 14.253-31.861 17.993-11.206 3.742-22.586 5.317-34.19 4.733-11.347-0.571-21.884-3.678-31.707-9.349-10.308-5.951-18.499-13.664-24.66-23.195-6.307-9.758-10.634-20.401-12.996-31.976-2.36-11.566-2.478-23.779-0.332-36.682 2-12.027 6.068-23.642 12.223-34.877l1.399-2.486 39.023-67.589-46.296-26.729-335.872 24.477 5.687 79.44 253.717-17.93-0.475 1.272c-5.872 16.248-9.216 32.76-10.019 49.514-1.010 21.061 1.211 41.4 6.668 60.985 5.487 19.697 14.298 37.696 26.414 53.953 12.18 16.344 27.496 29.841 45.89 40.461 19.424 11.215 40.27 17.759 62.46 19.607 22.059 1.837 43.635-0.59 64.671-7.274 20.982-6.667 40.585-17.241 58.777-31.69 17.326-13.762 31.947-30.559 43.843-50.353l1.818-3.084 112.008-194.004-68.639-39.629-10.647 18.441-432.766-249.852-40.038 69.349z" />
<glyph unicode="&#xe974;" glyph-name="surface_3B4" d="M223.14 346.214l499.712-0.005v122.578c0 12.916-2.001 25.114-5.998 36.628l-0.919 2.543c-4.56 12.158-10.769 22.676-18.596 31.512-7.833 8.844-16.902 15.898-27.243 21.194-10.113 5.18-20.791 7.757-32.134 7.757-11.902 0-22.853-2.584-32.953-7.757-10.341-5.297-19.41-12.35-27.243-21.194-7.827-8.836-14.036-19.354-18.629-31.601-4.281-11.416-6.566-23.509-6.853-36.316l-0.031-2.852v-78.046h-53.458l-278.635 189.134 44.646 65.954 210.76-142.386 0.225 1.339c3.039 17.007 8.399 32.979 16.080 47.89 9.656 18.744 21.749 35.247 36.267 49.481 14.601 14.315 31.231 25.497 49.852 33.518 18.72 8.064 38.733 12.095 59.973 12.095 22.429 0 43.755-4.755 63.896-14.25 20.022-9.439 37.494-22.328 52.37-38.635 14.838-16.265 26.527-35.224 35.057-56.833 8.124-20.581 12.387-42.439 12.793-65.528l0.032-3.58v-224.016h-79.258v21.294l-499.712 0.005v80.077z" />
<glyph unicode="&#xe975;" glyph-name="surface_3B5" d="M266.543 598.463l353.346-353.353 86.676 86.676c9.133 9.133 16.343 19.173 21.659 30.141l1.149 2.448c5.373 11.821 8.419 23.649 9.133 35.432 0.715 11.793-0.71 23.193-4.277 34.25-3.488 10.813-9.216 20.187-17.237 28.207-8.416 8.416-17.987 14.332-28.787 17.816-11.058 3.567-22.458 4.992-34.25 4.277-11.783-0.714-23.611-3.761-35.518-9.173-11.099-5.045-21.266-11.98-30.525-20.834l-2.039-1.994-55.186-55.187-37.8 37.8-63.287 330.763 78.206 15.067 48.347-249.712 1.106 0.788c14.175 9.877 29.258 17.381 45.233 22.493 20.082 6.426 40.303 9.545 60.633 9.344 20.446-0.202 40.113-4.055 58.951-11.55 18.939-7.535 35.941-18.835 50.96-33.854 15.86-15.86 27.577-34.302 35.105-55.257 7.483-20.832 10.724-42.3 9.712-64.35-1.009-21.993-6.15-43.665-15.398-64.976-8.809-20.298-21.25-38.768-37.29-55.381l-2.509-2.554-158.403-158.403-56.044 56.044 15.057 15.057-353.346 353.353 56.623 56.623z" />
<glyph unicode="&#xe976;" glyph-name="surface_4A1" d="M702.545 739.188l12.334 31.372-42.482-21.635-9.694-5.033c-3.458-1.818-6.026-3.204-7.723-4.169l-1.84-1.077c-37.828-22.823-41.241-62.123-12.954-112.22l1.989-3.45c4.060-6.907 11.317-18.561 21.834-35.076l17.588-27.434 21.85-33.174c6.549-9.897 13.751-20.748 21.61-32.562l24.525-36.747-16.926 4.005-29.486 7.364c-35.565 8.818-69.893 17.096-102.99 24.834l-13.665 3.18 2.776-4.529c-24.739 40-46.983 81.030-66.733 123.090-1.535 3.27-3.837 6.121-6.71 8.312-9.87 7.528-23.976 5.629-31.518-4.229l-1.193-1.586c-21.171-28.667-23.343-58.352-5.928-86.51l7.225-11.791-17.419 3.687c-94.701 19.868-176.909 34.246-246.647 43.132l-11.835 1.479-8.701-2.749-3.751-1.21c-15.17-4.932-24.624-8.513-29.225-11.169-20.24-11.686-23.563-32.018-10.941-54.849l1.125-1.992 14.296-19.561 6.897-9.835 4.242-5.802c14.631-20.203 28.385-41.449 41.225-63.69 32.804-56.818 55.898-104.154 69.271-141.869 13.173-37.152 19.386-72.528 18.71-106.167l-0.404-20.073 18.368 8.105c9.889 4.363 17.194 7.86 22.072 10.592l2.832 1.641c31.459 18.667 47.433 40.893 45.509 66.561-3.546 42.987-32.124 110.586-85.715 204.238l-3.865 6.724-4.726 8.114c-6.363 10.83-12.972 21.703-19.828 32.621l-5.929 9.352 8.859-1.386c38.388-6.112 95.298-16.688 170.579-31.711l37.113-7.465 44.819-9.169 4.15-6.382 3.395-5.153c12.277-18.516 22.673-32.878 31.361-43.056l2.654-3.052 3.064-3.445c25.143-27.959 40.778-37.236 62.086-38.052l1.888-0.052c13.264-0.218 28.764 2.694 46.796 8.611l21.032 6.902-16.473 14.786-5.072 4.6c-13.437 12.318-26.176 25.037-38.217 38.159l-1.365 1.513 14.813-3.336 19.004-4.368c19.454-4.531 36.291-8.649 50.507-12.354l8.863-2.335c21.438-5.564 38.103-7.873 50.502-6.757 11.877 1.069 29.608 6.296 53.907 15.68l21.678 8.465-11.878 13.708c-27.13 31.311-57.095 74.95-89.8 130.859l-4.828 8.308-24.2 41.928-3.215 5.678c-37.347 66.648-49.949 114.011-39.472 140.66z" />
<glyph unicode="&#xe977;" glyph-name="surface_4A2" d="M856.799 419.669l33.336 5.005-39.977 25.973-8.074 5.163c-3.874 2.455-6.733 4.222-8.604 5.32l-1.853 1.055c-38.679 21.349-74.421 4.654-103.663-44.891l-1.094-1.873c-3.833-6.64-10.592-19.266-20.36-38.021l-14.964-28.948-17.805-35.51c-5.297-10.621-11.093-22.283-17.395-34.996l-19.561-39.613-4.994 16.661-5.572 19.501-2.794 9.716-6.069 20.964c-8.069 27.738-16.041 54.618-23.919 80.644l-4.078 13.424-2.534-4.669c22.272 41.425 46.682 81.203 73.233 119.337 2.064 2.965 3.383 6.384 3.844 9.967 1.584 12.311-7.113 23.578-19.421 25.181l-1.97 0.24c-35.412 4.002-62.206-8.961-77.884-38.121l-6.599-12.153-5.516 16.929c-30.145 91.948-58.797 170.33-85.97 235.168l-4.637 10.989-6.731 6.161-4.327 3.904c-11.074 9.917-18.465 15.915-22.881 18.465-20.24 11.686-39.51 4.397-52.971-17.949l-1.163-1.971-9.793-22.161-5.068-10.89-2.904-6.575c-10.181-22.772-21.704-45.306-34.544-67.547-32.804-56.818-62.251-100.486-88.227-130.925-25.588-29.984-53.118-53.053-82.588-69.287l-17.586-9.687 16.203-11.855 4.99-3.613c6.858-4.909 12.207-8.475 16.154-10.754l1.901-1.083c31.896-17.911 59.131-20.631 80.398-6.131 35.455 24.565 79.708 83.114 134.018 176.351l3.891 6.709 4.664 8.15c6.197 10.926 12.309 22.086 18.337 33.483l5.135 9.81 3.229-8.365c13.901-36.301 33.197-90.875 57.827-163.581l12.092-35.873 8.284-24.774 6.185-18.625-3.451-6.785-2.765-5.517c-9.896-19.89-17.137-36.075-21.607-48.688l-1.316-3.824-1.452-4.376-1.424-4.47c-10.217-32.832-10.011-50.265-0.487-68.323l0.899-1.661c6.443-11.596 16.715-23.563 30.855-36.221l16.493-14.764 4.568 21.659 1.448 6.692c3.949 17.795 8.595 35.187 13.938 52.176l0.628 1.939 4.517-14.497c8.397-27.113 15.156-49.969 20.274-68.56l2.409-8.844c5.9-21.347 12.233-36.935 19.399-47.115 6.864-9.751 20.257-22.493 40.532-38.845l18.17-14.541 5.933 17.14c13.551 39.151 36.361 86.921 68.427 143.198l4.781 8.335 24.211 41.921 3.31 5.623c39.045 65.668 73.762 100.263 102.079 104.514z" />
<glyph unicode="&#xe978;" glyph-name="surface_4A3" d="M648.373 137.085l21.002-26.367 2.505 47.608 0.434 9.574c0.17 4.124 0.269 7.258 0.298 9.424l-0.006 2.819c-0.851 44.171-33.18 66.777-90.708 67.329l-3.982 0.003c-8.011-0.063-21.733-0.52-41.294-1.371l-32.552-1.515-39.655-2.336-39.005-2.434-44.086-2.866 11.932 12.656 14.103 14.576 7.018 7.278 15.121 15.738c17.489 18.25 34.446 36.107 50.873 53.574l16.594 17.706-5.311-0.14c47.011 1.425 93.665 0.174 139.966-3.753 3.6-0.305 7.22 0.262 10.553 1.655 11.454 4.783 16.863 17.949 12.097 29.41l-0.777 1.827c-14.24 32.668-38.863 49.391-71.956 48.389l-13.824-0.362 2.824 3.132c68.63 76.219 125.211 143.592 169.756 202.147l7.198 9.51 1.97 8.91 1.591 7.491c2.801 13.533 4.177 22.369 4.177 27.256 0 23.372-15.947 36.415-42.030 36.9l-2.288 0.022-24.089-2.6-11.965-1.056-7.146-0.772c-24.812-2.569-50.088-3.857-75.77-3.857l-9.070 0.024c-61.397 0.325-110.909 3.983-148.428 10.921-38.761 7.168-72.504 19.475-101.299 36.88l-17.182 10.386-2.165-19.96c-1.243-11.462-1.87-19.885-1.87-25.496l0.013-2.188c0.437-36.578 11.698-61.524 34.889-72.692 39.001-18.423 111.833-27.473 219.733-27.887l7.756-0.015 9.39 0.036c12.561 0.096 25.282 0.383 38.165 0.861l11.064 0.458-5.629-6.979c-24.487-30.189-62.101-74.187-112.752-131.87l-25.021-28.409-17.313-19.561-13.037-14.669-7.602-0.403-6.16-0.364c-22.174-1.375-39.81-3.196-52.968-5.632l-3.97-0.772-4.516-0.931-4.49-0.981c-33.608-7.572-48.619-16.467-59.506-33.761l-0.989-1.609c-6.821-11.378-12.049-26.257-15.94-44.832l-4.539-21.665 21.042 6.873 6.52 2.092c17.386 5.478 34.771 10.15 52.155 14.018l1.993 0.426-10.296-11.161-8.088-8.709c-14.946-16.041-28.012-29.756-39.195-41.143l-8.408-8.493c-15.537-15.784-25.87-29.062-31.103-40.358-5.013-10.82-9.351-28.79-13.375-54.525l-3.508-23.006 17.81 3.432c41.698 8.036 96.103 12.175 163.107 12.36h53.139c80.228-0.323 129.733-13.172 148.076-36.201z" />
<glyph unicode="&#xe979;" glyph-name="surface_4A4" d="M321.872 160.826l-12.334-31.372 42.482 21.635 9.694 5.033c3.458 1.818 6.026 3.204 7.723 4.169l1.84 1.078c37.828 22.823 41.241 62.123 12.954 112.22l-1.989 3.45c-4.060 6.907-11.317 18.561-21.834 35.076l-17.588 27.434-21.85 33.174-21.61 32.562-24.525 36.747 16.926-4.005 29.486-7.364c35.565-8.818 69.893-17.096 102.99-24.834l13.665-3.18-2.776 4.529c24.739-40 46.983-81.030 66.733-123.090 1.535-3.27 3.837-6.121 6.71-8.312 9.87-7.528 23.976-5.629 31.518 4.229l1.193 1.586c21.171 28.667 23.343 58.352 5.928 86.51l-7.225 11.791 17.419-3.687c94.701-19.868 176.909-34.246 246.647-43.132l11.835-1.479 8.701 2.749 5.544 1.795c14.126 4.632 23.015 8.034 27.432 10.583 20.24 11.686 23.563 32.018 10.941 54.849l-1.125 1.992-14.296 19.561-6.897 9.835-4.242 5.802c-14.631 20.203-28.385 41.449-41.225 63.69-32.804 56.818-55.898 104.154-69.271 141.869-13.173 37.152-19.386 72.528-18.71 106.167l0.404 20.073-18.368-8.105c-9.889-4.363-17.194-7.86-22.072-10.592l-2.832-1.641c-31.459-18.667-47.433-40.893-45.509-66.561 3.546-42.987 32.124-110.586 85.715-204.238l3.865-6.724 4.726-8.114c6.363-10.83 12.972-21.703 19.828-32.621l5.929-9.352-8.859 1.386c-38.388 6.112-95.298 16.688-170.579 31.711l-37.113 7.465-44.819 9.169-4.15 6.382-3.395 5.153c-12.277 18.516-22.673 32.878-31.361 43.056l-2.654 3.052-3.064 3.445c-25.143 27.959-40.778 37.236-62.086 38.052l-1.888 0.052c-13.264 0.218-28.764-2.694-46.796-8.611l-21.032-6.902 16.473-14.786 5.072-4.6c13.437-12.318 26.176-25.037 38.217-38.159l1.365-1.513-14.813 3.336-15.326 3.514c-21.017 4.868-39.081 9.272-54.186 13.208l-8.863 2.335c-21.438 5.564-38.103 7.873-50.502 6.757-11.877-1.069-29.608-6.296-53.907-15.68l-21.678-8.465 11.878-13.708c27.13-31.311 57.095-74.95 89.8-130.859l4.828-8.308 24.2-41.928 3.215-5.678c37.347-66.648 49.949-114.011 39.472-140.66z" />
<glyph unicode="&#xe97a;" glyph-name="surface_4A5" d="M166.456 475.427l-33.336-5.005 39.977-25.973 6.882-4.406c4.485-2.851 7.738-4.87 9.796-6.077l1.853-1.055c38.679-21.349 74.421-4.654 103.663 44.891l1.094 1.873c3.833 6.639 10.592 19.266 20.36 38.021l14.964 28.948 17.805 35.51c5.297 10.621 11.093 22.283 17.395 34.996l19.561 39.613 4.994-16.661 5.572-19.501 2.794-9.716 6.069-20.965c8.069-27.738 16.041-54.618 23.919-80.644l4.078-13.424 2.534 4.669c-22.272-41.425-46.682-81.203-73.233-119.337-2.064-2.965-3.383-6.384-3.844-9.967-1.584-12.311 7.113-23.578 19.421-25.181l1.97-0.24c35.412-4.002 62.206 8.961 77.884 38.121l6.599 12.153 1.3-4.011 4.216-12.918c30.145-91.948 58.797-170.33 85.97-235.168l4.637-10.989 6.731-6.161 4.327-3.904c11.074-9.917 18.465-15.915 22.881-18.465 20.24-11.686 39.51-4.397 52.971 17.949l1.163 1.971 9.793 22.161 5.068 10.89 2.904 6.575c10.181 22.772 21.704 45.306 34.544 67.547l4.556 7.843c30.98 53.009 58.904 94.059 83.672 123.082 25.588 29.984 53.118 53.053 82.588 69.287l17.586 9.687-16.203 11.855-4.99 3.613c-6.858 4.909-12.207 8.475-16.154 10.754l-1.901 1.083c-31.896 17.911-59.131 20.631-80.398 6.131-35.455-24.565-79.708-83.114-134.018-176.351l-3.891-6.709-4.664-8.15c-6.197-10.926-12.309-22.086-18.337-33.483l-5.135-9.811-3.229 8.365c-13.901 36.301-33.197 90.875-57.827 163.581l-12.092 35.873-8.284 24.774-6.185 18.625 3.451 6.785 2.765 5.517c9.896 19.89 17.137 36.075 21.607 48.688l1.316 3.824 1.452 4.376c11.641 35.754 11.859 53.932 1.911 72.794l-0.899 1.661c-6.443 11.596-16.715 23.563-30.855 36.221l-16.493 14.764-4.568-21.659-1.448-6.692c-3.949-17.795-8.595-35.187-13.938-52.176l-0.628-1.939-4.517 14.497c-8.397 27.113-15.156 49.969-20.274 68.56l-2.409 8.844c-5.9 21.347-12.233 36.935-19.399 47.115-6.864 9.751-20.257 22.493-40.532 38.845l-18.17 14.541-5.933-17.14c-13.551-39.151-36.361-86.921-68.427-143.198l-4.781-8.335-24.211-41.921-3.31-5.623c-39.045-65.668-73.762-100.263-102.079-104.514z" />
<glyph unicode="&#xe97b;" glyph-name="surface_4B1" d="M856.799 475.427l33.336-5.005-39.977-25.973-8.074-5.163c-3.874-2.455-6.733-4.222-8.604-5.32l-1.853-1.055c-38.679-21.349-74.421-4.654-103.663 44.891l-1.094 1.873c-3.833 6.639-10.592 19.266-20.36 38.021l-14.964 28.948-17.805 35.51c-5.297 10.621-11.093 22.283-17.395 34.996l-19.561 39.613-4.994-16.661-5.572-19.501-2.794-9.716-6.069-20.965c-8.069-27.738-16.041-54.618-23.919-80.644l-4.078-13.424-2.534 4.669c22.272-41.425 46.682-81.203 73.233-119.337 2.064-2.965 3.383-6.384 3.844-9.967 1.584-12.311-7.113-23.578-19.421-25.181l-1.97-0.24c-35.412-4.002-62.206 8.961-77.884 38.121l-6.599 12.153-5.516-16.929c-30.145-91.948-58.797-170.33-85.97-235.168l-4.637-10.989-6.731-6.161-4.327-3.904c-11.074-9.917-18.465-15.915-22.881-18.465-20.24-11.686-39.51-4.397-52.971 17.949l-1.163 1.971-9.793 22.161-5.068 10.89-2.904 6.575c-10.181 22.772-21.704 45.306-34.544 67.547-32.804 56.818-62.251 100.486-88.227 130.925-25.588 29.984-53.118 53.053-82.588 69.287l-17.586 9.687 16.203 11.855 4.99 3.613c6.858 4.909 12.207 8.475 16.154 10.754l1.901 1.083c31.896 17.911 59.131 20.631 80.398 6.131 35.455-24.565 79.708-83.114 134.018-176.351l3.891-6.709 4.664-8.15c6.197-10.926 12.309-22.086 18.337-33.483l5.135-9.811 3.229 8.365c13.901 36.301 33.197 90.875 57.827 163.581l12.092 35.873 8.284 24.774 6.185 18.625-3.451 6.785-2.765 5.517c-9.896 19.89-17.137 36.075-21.607 48.688l-1.316 3.824-1.452 4.376-1.424 4.47c-10.217 32.832-10.011 50.265-0.487 68.323l0.899 1.661c6.443 11.596 16.715 23.563 30.855 36.221l16.493 14.764 4.568-21.659 1.448-6.692c3.949-17.795 8.595-35.187 13.938-52.176l0.628-1.939 4.517 14.497c8.397 27.113 15.156 49.969 20.274 68.56l2.409 8.844c5.9 21.347 12.233 36.935 19.399 47.115 6.864 9.751 20.257 22.493 40.532 38.845l18.17 14.541 5.933-17.14c13.551-39.151 36.361-86.921 68.427-143.198l4.781-8.335 24.211-41.921 3.31-5.623c39.045-65.668 73.762-100.263 102.079-104.514z" />
<glyph unicode="&#xe97c;" glyph-name="surface_4B2" d="M399.138 778.025l-3.794 33.495 35.435-31.893 7.077-6.463c3.036-2.796 5.322-4.942 6.875-6.453l1.989-1.998c30.632-31.836 23.757-70.68-16.532-111.749l-3.52-3.51c-5.571-5.448-14.797-14.080-27.752-25.968l-25.8-23.516-29.692-26.389-29.302-25.86-33.2-29.147 17.386-0.512 30.387-0.518 21.821-0.437c28.881-0.614 56.909-1.358 84.087-2.232l14.022-0.465-3.854-3.656c34.249 32.234 66.354 66.109 96.317 101.624 2.329 2.761 5.291 4.92 8.632 6.292 11.482 4.717 24.616-0.768 29.35-12.242l0.742-1.841c13.030-33.169 7.445-62.405-16.665-85.097l-10.031-9.519 4.211-0.218c102.424-5.366 190.073-12.997 262.974-22.904l11.815-1.635 7.693-4.907c15.346-9.872 24.591-16.435 28.648-20.492 16.526-16.526 14.473-37.026-3.627-55.812l-1.603-1.633-18.872-15.195-9.207-7.714-5.599-4.507c-19.361-15.728-38.145-32.69-56.305-50.85l-6.396-6.43c-43.184-43.644-75.609-81.241-97.232-112.677-22.34-32.476-37.497-65.039-45.551-97.707l-4.805-19.493-15.645 12.583c-8.984 7.226-15.383 12.738-19.351 16.705l-1.538 1.556c-25.556 26.173-35.232 51.776-26.731 76.071 14.551 40.605 59.652 98.504 135.655 175.094l5.474 5.495 6.665 6.615c8.949 8.814 18.148 17.606 27.596 26.378l8.147 7.499-13.374 1.413c-38.586 3.915-94.803 8.275-168.516 13.060l-83.445 5.139-5.66-5.090-6.866-6.082c-15.644-13.733-28.658-24.251-39.184-31.488l-3.353-2.261-3.851-2.535c-31.523-20.499-49.025-25.413-69.819-20.686l-1.837 0.439c-12.868 3.222-27.086 10.047-42.972 20.429l-18.529 12.11 19.739 10.019 6.089 3.131c16.167 8.42 31.764 17.409 46.791 26.967l1.71 1.108-15.172 0.611c-28.362 1.094-52.189 1.707-71.471 1.839l-9.166 0.038c-22.147 0.174-38.842 2.257-50.53 6.544-11.195 4.106-26.97 13.745-48.012 29.097l-18.749 13.787 15.021 10.167c35.168 23.803 76.564 59.346 124.074 106.595l37.575 37.575c56.501 56.958 82.421 101.050 79.108 130.303z" />
<glyph unicode="&#xe97d;" glyph-name="surface_4B3" d="M373.095 137.085l-21.002-26.367-2.505 47.608-0.434 9.574c-0.17 4.124-0.269 7.258-0.298 9.424l0.006 2.819c0.851 44.171 33.18 66.777 90.708 67.329l3.982 0.003c8.011-0.063 21.733-0.52 41.294-1.371l32.552-1.515 39.655-2.336 39.005-2.434 44.086-2.866-11.932 12.656-14.103 14.576-7.018 7.278-15.121 15.738c-22.486 23.464-44.093 46.279-64.823 68.451l-2.644 2.83 5.311-0.14c-47.011 1.425-93.665 0.174-139.966-3.753-3.6-0.305-7.22 0.262-10.553 1.655-11.454 4.783-16.863 17.949-12.097 29.41l0.777 1.827c14.24 32.668 38.863 49.391 71.956 48.389l13.824-0.362-2.824 3.132c-68.63 76.219-125.211 143.592-169.756 202.147l-7.198 9.51-1.97 8.91-1.591 7.491c-2.8 13.533-4.177 22.369-4.177 27.256 0 23.372 15.947 36.415 42.030 36.9l2.288 0.022 24.089-2.6 11.965-1.056 7.146-0.772c24.812-2.569 50.088-3.857 75.77-3.857l9.070 0.024c61.397 0.325 110.909 3.983 148.428 10.921 38.761 7.168 72.504 19.475 101.299 36.88l17.182 10.386 2.165-19.96c1.243-11.462 1.87-19.885 1.87-25.496l-0.013-2.188c-0.437-36.578-11.698-61.524-34.889-72.692-39.001-18.423-111.833-27.473-219.733-27.887l-7.756-0.015-9.39 0.036c-12.561 0.096-25.282 0.383-38.165 0.861l-11.064 0.458 5.629-6.979c24.487-30.189 62.101-74.187 112.752-131.87l25.021-28.409 17.313-19.561 13.037-14.669 7.602-0.403 6.16-0.364c22.174-1.375 39.81-3.196 52.968-5.632l3.97-0.772 4.516-0.931 4.49-0.981c33.608-7.572 48.619-16.467 59.506-33.761l0.989-1.609c6.821-11.378 12.049-26.257 15.94-44.832l4.539-21.665-21.042 6.873-6.52 2.092c-17.386 5.478-34.771 10.15-52.155 14.018l-1.993 0.426 10.296-11.161 8.088-8.709c14.946-16.041 28.012-29.756 39.195-41.143l8.408-8.493c15.537-15.784 25.87-29.062 31.103-40.358 5.013-10.82 9.351-28.79 13.375-54.525l3.508-23.006-17.81 3.432c-41.698 8.036-96.103 12.175-163.107 12.36h-53.139c-80.228-0.323-129.733-13.172-148.076-36.201z" />
<glyph unicode="&#xe97e;" glyph-name="surface_4B4" d="M169.596 493.372l-31.356 12.376 44.795 16.315c8.563 3.079 14.515 5.153 17.954 6.255l2.698 0.818c42.49 12.101 73.56-12.206 90.907-67.060l0.644-2.071c2.241-7.332 5.987-21.155 11.285-41.626l8.069-31.573 9.36-38.605c2.772-11.54 5.796-24.207 9.076-38.012l10.149-42.998 8.614 15.111 9.816 17.748 4.908 8.839 10.63 19.062c15.864 28.364 31.366 55.697 46.507 82.004l1.933 3.356 1.419-5.119c-12.382 45.373-27.219 89.623-44.511 132.752-1.344 3.353-1.86 6.981-1.503 10.576 1.226 12.352 12.234 21.374 24.588 20.167l1.974-0.209c34.748-3.992 57.732-22.038 66.813-52.904l4.195-15.086 2.169 3.616c52.823 87.916 100.71 161.723 143.682 221.44l6.99 9.664 7.945 4.489c15.92 8.915 26.056 13.997 31.543 15.675 22.35 6.833 39.487-4.604 47.576-29.405l0.69-2.182 4.557-23.796 2.489-11.751 1.351-7.059c4.798-24.479 10.956-49.027 18.464-73.587l2.675-8.667c18.262-58.619 36.235-104.899 53.84-138.75 18.187-34.971 39.822-63.642 64.885-86.090l14.956-13.395-18.455-7.906c-10.598-4.54-18.469-7.602-23.835-9.243l-2.096-0.628c-35.107-10.277-62.256-6.801-79.716 12.111-29.020 31.911-58.969 98.914-90.913 201.978l-2.282 7.413-2.711 8.991c-3.581 12.040-7.026 24.289-10.335 36.749l-2.797 10.714-5.028-7.424c-21.711-32.244-52.789-81.078-93.143-146.38l-19.852-32.234-13.645-22.275-10.216-16.756 1.837-7.387 2.147-8.917c4.781-20.259 7.958-36.689 9.407-49.38l0.422-4.022 0.43-4.59c3.3-37.457-0.577-55.218-14.513-71.358l-1.25-1.416c-8.886-9.849-21.587-19.199-38.212-28.351l-19.392-10.675 0.421 22.132 0.094 6.846c0.155 18.228-0.459 36.219-1.844 53.974l-0.176 2.030-7.663-13.109-7.883-13.605c-10.773-18.691-19.872-34.905-27.295-48.636l-4.337-8.075c-10.551-19.473-20.228-33.236-29.501-41.543-8.882-7.957-24.798-17.36-48.232-28.732l-20.975-10.081-1.925 18.036c-4.506 42.226-16.454 95.463-35.868 159.594l-15.536 50.817c-23.765 76.628-50.527 120.214-77.912 131.022z" />
<glyph unicode="&#xe97f;" glyph-name="surface_4B5" d="M623.941 121.295l3.794-33.495-35.435 31.893c-7.188 6.523-11.972 10.959-14.442 13.397l-1.499 1.517c-30.632 31.836-23.757 70.68 16.532 111.749l1.526 1.541c5.421 5.421 15.868 15.218 31.456 29.506l24.089 21.947 29.692 26.389c8.888 7.865 18.652 16.482 29.302 25.86l33.2 29.147-17.386 0.512-30.387 0.518-21.821 0.437c-28.881 0.614-56.909 1.358-84.087 2.232l-14.022 0.465 3.854 3.656c-34.249-32.234-66.354-66.109-96.317-101.624-2.33-2.761-5.291-4.92-8.632-6.292-11.482-4.717-24.616 0.768-29.35 12.242l-0.742 1.841c-13.030 33.169-7.445 62.405 16.665 85.097l10.031 9.519-4.211 0.218c-102.424 5.366-190.073 12.997-262.974 22.904l-11.815 1.635-7.693 4.907c-15.346 9.872-24.591 16.435-28.648 20.492-16.526 16.526-14.473 37.026 3.627 55.812l1.603 1.633 18.872 15.195 9.207 7.714 5.599 4.507c19.361 15.728 38.145 32.69 56.305 50.85l6.396 6.43c43.184 43.644 75.609 81.241 97.232 112.677 22.34 32.476 37.497 65.039 45.551 97.707l4.805 19.493 15.645-12.583c8.984-7.226 15.383-12.738 19.351-16.705l1.538-1.556c25.556-26.173 35.232-51.776 26.731-76.071-14.365-40.084-58.5-97.022-132.747-172.157l-8.382-8.431-6.665-6.615c-8.949-8.814-18.147-17.606-27.596-26.378l-8.147-7.499 13.374-1.413c38.586-3.915 94.803-8.275 168.516-13.060l83.445-5.139 5.66 5.090 6.866 6.082c15.644 13.733 28.658 24.251 39.184 31.488l3.353 2.261 3.851 2.535c31.523 20.499 49.025 25.413 69.819 20.686l1.837-0.439c12.868-3.222 27.086-10.047 42.972-20.429l18.529-12.11-19.739-10.019-6.089-3.131c-16.167-8.42-31.764-17.409-46.791-26.967l-1.71-1.108 15.172-0.611c28.362-1.094 52.189-1.707 71.471-1.839l9.166-0.038c22.147-0.174 38.842-2.257 50.53-6.544 11.195-4.106 26.97-13.745 48.012-29.097l18.749-13.787-15.021-10.167c-35.168-23.803-76.564-59.346-124.074-106.595l-37.575-37.575-4.575-4.652c-53.324-54.711-77.755-97.199-74.533-125.651z" />
<glyph unicode="&#xe980;" glyph-name="surface_5A1" d="M774.766 540.427l-313.57-181.040 36.135-62.588-48.995-28.287-36.135 62.588-127.072-73.365-34.675 60.059 127.072 73.365-131.765 228.224 40.145 23.178 447.434-30.378 41.428-71.755zM682.659 565.642l-0.73 1.264-1.149-0.19-2.469-0.363c-9.47-1.289-23.534-2.112-42.193-2.469l-2.573-0.046-301.925 19.979 94.9-164.372 214.167 123.582c11.384 6.407 24.088 13.275 38.113 20.603l3.858 2.010z" />
<glyph unicode="&#xe981;" glyph-name="surface_5A2" d="M735.398 201.27l-313.57 181.040-36.135-62.588-48.995 28.287 36.135 62.588-127.072 73.365 34.675 60.059 127.072-73.365 131.765 228.224 40.145-23.178 197.409-402.678-41.428-71.755zM711.181 293.644l0.73 1.264-0.739 0.9c-5.507 6.791-12.907 17.794-22.201 33.008l-3.908 6.459-133.66 271.464-94.9-164.372 208.083-120.144c11.843-6.897 24.945-14.882 39.309-23.954l7.287-4.627z" />
<glyph unicode="&#xe982;" glyph-name="surface_5A3" d="M379.47 164.215v362.080h-72.27v56.575h72.27v146.73h69.35v-146.73h263.53v-46.355l-250.025-372.3h-82.855zM447.36 231.375h1.46l0.41 1.090c3.412 8.907 10.039 22.271 19.878 40.094l1.247 2.251 168.265 251.485h-189.8v-236.885l-0.006-3.392c-0.056-14.847-0.478-31.612-1.265-50.297l-0.188-4.346z" />
<glyph unicode="&#xe983;" glyph-name="surface_5A4" d="M245.76 359.867l313.57 181.040-36.135 62.588 48.995 28.287 36.135-62.588 127.072 73.365 34.675-60.059-127.072-73.365 131.765-228.224-40.145-23.178-447.434 30.378-41.427 71.755zM337.867 334.653l0.73-1.264 1.149 0.19 2.469 0.363c9.47 1.289 23.534 2.112 42.193 2.469l2.573 0.046 301.925-19.979-94.9 164.372-208.089-120.133c-12.886-7.375-27.616-15.392-44.191-24.053l-3.858-2.010z" />
<glyph unicode="&#xe984;" glyph-name="surface_5A5" d="M287.187 698.88l313.57-181.040 36.135 62.588 48.995-28.287-36.135-62.588 127.072-73.365-34.675-60.059-127.072 73.365-131.765-228.224-40.145 23.178-197.409 402.678 41.427 71.755zM311.405 606.506l-0.73-1.264 0.739-0.9c6.007-7.409 14.268-19.829 24.783-37.262l1.326-2.205 133.66-271.464 94.9 164.372-214.109 123.683c-11.241 6.655-23.541 14.223-36.9 22.705l-3.67 2.336z" />
<glyph unicode="&#xe985;" glyph-name="surface_5B1" d="M230.4 319.92h362.080v-72.27h56.575v72.27h146.73v69.35h-146.73v263.53h-46.355l-372.3-250.025v-82.855zM297.56 387.81v1.46l1.090 0.41c8.536 3.27 21.166 9.492 37.889 18.665l4.456 2.46 251.485 168.265v-189.8l-240.277-0.006c-13.705-0.052-29.044-0.415-46.019-1.090l-8.624-0.363z" />
<glyph unicode="&#xe986;" glyph-name="surface_5B2" d="M245.76 619.813l256.029-256.029-51.103-51.103 40.005-40.005 51.103 51.103 103.754-103.754 49.038 49.038-103.754 103.754 186.344 186.344-32.778 32.778-440.050 86.461-58.587-58.587zM341.255 620.329l1.032 1.032 1.061-0.481c8.711-3.885 22.847-8.65 42.407-14.294l2.473-0.71 296.808-58.845-134.209-134.209-174.884 174.802c-9.337 9.135-19.831 19.057-31.482 29.766l-3.206 2.94z" />
<glyph unicode="&#xe987;" glyph-name="surface_5B3" d="M735.398 698.88l-313.57-181.040-36.135 62.588-48.995-28.287 36.135-62.588-127.072-73.365 34.675-60.059 127.072 73.365 131.765-228.224 40.145 23.178 197.409 402.678-41.428 71.755zM711.181 606.506l0.73-1.264-0.739-0.9c-5.757-7.1-13.584-18.803-23.48-35.109l-2.629-4.358-133.66-271.464-94.9 164.372 208.083 120.144c11.843 6.897 24.945 14.882 39.309 23.954l7.287 4.627z" />
<glyph unicode="&#xe988;" glyph-name="surface_5B4" d="M795.785 580.53h-362.080v72.27h-56.575v-72.27h-146.73v-69.35h146.73v-263.53h46.355l372.3 250.025v82.855zM728.625 512.64v-1.46l-1.090-0.41c-8.536-3.27-21.165-9.492-37.889-18.665l-4.456-2.46-251.485-168.265v189.8l240.277 0.006c13.705 0.052 29.044 0.415 46.019 1.090l8.624 0.363z" />
<glyph unicode="&#xe989;" glyph-name="surface_5B5" d="M777.175 278.612l-256.029 256.029 51.103 51.103-40.005 40.005-51.103-51.103-103.754 103.754-49.038-49.038 103.754-103.754-186.344-186.344 32.778-32.778 440.050-86.461 58.587 58.587zM681.681 278.096l-1.032-1.032-1.061 0.481c-7.985 3.561-20.528 7.862-37.63 12.902l-7.25 2.103-296.808 58.845 134.209 134.209 174.884-174.802c9.337-9.135 19.831-19.057 31.482-29.766l3.206-2.94z" />
<glyph unicode="&#xe98a;" glyph-name="surface_6A1" d="M780.647 580.082c28.105-48.679 30.942-97.758 8.51-147.236s-70.209-95.326-143.333-137.544c-90.404-52.195-170.166-74.643-239.286-67.345s-121.746 42.241-157.881 104.829c-19.192 33.241-30.305 64.568-33.34 93.981l-0.277 2.935 57.846 33.397 0.024-3.366c0.526-34.708 9.51-67.169 26.954-97.383 25.307-43.832 62.205-67.836 110.697-72.012s104.557 12.108 168.199 48.852c-0.665 0.178-0.908 0.6-0.73 1.264-53.292-2.109-94.599 22.23-123.921 73.017-23.725 41.093-29.255 83.278-16.59 126.555s41.546 77.934 86.643 103.971c48.047 27.74 96.023 35.771 143.929 24.092s85.424-41.014 112.556-88.008zM726.202 555.392c-15.208 26.342-37.811 42.373-67.807 48.095s-60.062-0.117-90.197-17.515c-32.874-18.98-54.086-42.466-63.635-70.457s-5.746-56.843 11.409-86.557c14.843-25.709 36.112-42.23 63.807-49.562s54.080-3.758 79.158 10.72c35.192 20.318 59.307 45.831 72.345 76.539s11.344 60.286-5.081 88.735z" />
<glyph unicode="&#xe98b;" glyph-name="surface_6A2" d="M756.345 279.121c-28.105-48.679-69.19-75.675-123.255-80.988s-117.659 13.14-190.783 55.358c-90.404 52.195-149.726 110.047-177.966 173.555s-24.291 126.556 11.844 189.144c19.192 33.241 40.765 58.529 64.72 75.864l2.403 1.707 57.846-33.398-2.903-1.704c-29.795-17.809-53.415-41.82-70.859-72.034-25.307-43.832-27.645-87.79-7.016-131.872s62.765-84.495 126.406-121.238c-0.178 0.665 0.065 1.086 0.73 1.264-28.472 45.098-28.047 93.040 1.274 143.827 23.725 41.093 57.493 66.975 101.305 77.645s88.266 2.987 133.363-23.049c48.047-27.74 78.99-65.273 92.829-112.6s7.193-94.487-19.939-141.48zM707.741 313.926c15.208 26.342 17.791 53.932 7.748 82.77s-30.132 51.957-60.267 69.355c-32.874 18.98-63.819 25.607-92.835 19.881s-52.101-23.446-69.256-53.159c-14.843-25.709-18.516-52.389-11.018-80.039s23.785-48.714 48.863-63.193c35.192-20.318 69.345-28.446 102.458-24.383s57.882 20.319 74.307 48.768z" />
<glyph unicode="&#xe98c;" glyph-name="surface_6A3" d="M512.015 155.475c-56.21 0-100.132 22.082-131.765 66.247s-47.45 108.466-47.45 192.903c0 104.39 20.44 184.69 61.32 240.9s97.455 84.315 169.725 84.315c38.384 0 71.071-6.039 98.060-18.117l2.68-1.228v-66.795l-2.927 1.662c-30.321 16.899-62.925 25.348-97.813 25.348-50.613 0-89.851-19.953-117.713-59.86s-41.792-96.603-41.792-170.090c0.487 0.487 0.973 0.487 1.46 0 24.82 47.207 66.552 70.81 125.195 70.81 47.45 0 86.748-16.303 117.895-48.91s46.72-74.947 46.72-127.020c0-55.48-17.033-101.044-51.1-136.692s-78.232-53.473-132.495-53.473zM517.855 214.97c30.417 0 55.602 11.558 75.555 34.675s29.93 52.073 29.93 86.87c0 37.96-9.733 68.072-29.2 90.337s-46.355 33.398-80.665 33.398c-29.687 0-54.628-10.159-74.825-30.477s-30.295-44.956-30.295-73.913c0-40.637 10.037-74.277 30.112-100.922s46.538-39.968 79.388-39.968z" />
<glyph unicode="&#xe98d;" glyph-name="surface_6A4" d="M238.485 319.812c-28.105 48.679-30.942 97.758-8.51 147.236s70.209 95.326 143.333 137.544c90.404 52.195 170.166 74.643 239.286 67.345s121.746-42.241 157.881-104.829c19.192-33.241 30.305-64.568 33.34-93.981l0.277-2.935-57.846-33.397-0.024 3.366c-0.525 34.708-9.51 67.169-26.954 97.383-25.307 43.832-62.206 67.836-110.697 72.012s-104.557-12.108-168.199-48.852c0.665-0.178 0.908-0.6 0.73-1.264 53.292 2.109 94.599-22.23 123.921-73.017 23.725-41.093 29.255-83.278 16.59-126.555s-41.546-77.934-86.643-103.971c-48.047-27.74-96.023-35.771-143.929-24.092s-85.424 41.014-112.556 88.008zM292.929 344.502c15.208-26.342 37.811-42.373 67.807-48.095s60.062 0.117 90.197 17.515c32.874 18.98 54.086 42.466 63.635 70.457s5.746 56.843-11.409 86.557c-14.843 25.709-36.112 42.23-63.807 49.562s-54.080 3.758-79.158-10.72c-35.192-20.318-59.307-45.831-72.345-76.539s-11.344-60.286 5.081-88.735z" />
<glyph unicode="&#xe98e;" glyph-name="surface_6A5" d="M272.711 611.881c28.105 48.679 69.19 75.675 123.255 80.988s117.659-13.14 190.783-55.358c90.404-52.195 149.726-110.047 177.966-173.555s24.291-126.556-11.844-189.144c-19.192-33.241-40.765-58.529-64.72-75.864l-2.403-1.707-57.846 33.397 2.903 1.704c29.795 17.809 53.415 41.82 70.859 72.034 25.307 43.832 27.645 87.79 7.016 131.872s-62.765 84.495-126.406 121.238c0.178-0.665-0.065-1.086-0.73-1.264 28.472-45.098 28.047-93.040-1.274-143.827-23.725-41.093-57.493-66.975-101.305-77.645s-88.266-2.987-133.363 23.049c-48.047 27.74-78.99 65.273-92.829 112.6s-7.193 94.487 19.939 141.48zM321.315 577.076c-15.208-26.342-17.791-53.932-7.748-82.77s30.132-51.957 60.267-69.355c32.874-18.98 63.819-25.607 92.835-19.881s52.101 23.446 69.256 53.159c14.843 25.709 18.516 52.389 11.018 80.039s-23.785 48.714-48.863 63.192c-35.192 20.318-69.345 28.446-102.458 24.383s-57.882-20.319-74.307-48.768z" />
<glyph unicode="&#xe98f;" glyph-name="surface_6B1" d="M756.345 611.881c-28.105 48.679-69.19 75.675-123.255 80.988s-117.659-13.14-190.783-55.358c-90.404-52.195-149.726-110.047-177.966-173.555s-24.291-126.556 11.844-189.144c19.192-33.241 40.765-58.529 64.72-75.864l2.403-1.707 57.846 33.397-2.903 1.704c-29.795 17.809-53.415 41.82-70.859 72.034-25.307 43.832-27.645 87.79-7.016 131.872s62.765 84.495 126.406 121.238c-0.178-0.665 0.065-1.086 0.73-1.264-28.472-45.098-28.047-93.040 1.274-143.827 23.725-41.093 57.493-66.975 101.305-77.645s88.266-2.987 133.363 23.049c48.047 27.74 78.99 65.273 92.829 112.6s7.193 94.487-19.939 141.48zM707.741 577.076c15.208-26.342 17.791-53.932 7.748-82.77s-30.132-51.957-60.267-69.355c-32.874-18.98-63.819-25.607-92.835-19.881s-52.101 23.446-69.256 53.159c-14.843 25.709-18.516 52.389-11.018 80.039s23.785 48.714 48.863 63.192c35.192 20.318 69.345 28.446 102.458 24.383s57.882-20.319 74.307-48.768z" />
<glyph unicode="&#xe990;" glyph-name="surface_6B2" d="M760.398 282.001c35.374 43.683 45.854 91.714 31.438 144.092s-54.433 105.135-120.052 158.273c-81.126 65.695-156.394 100.344-225.804 103.949s-126.855-22.676-172.336-78.84c-24.156-29.83-40.033-59.033-47.632-87.608l-0.732-2.855 51.909-42.035 0.551 3.321c5.949 34.198 19.901 64.854 41.856 91.967 31.852 39.334 72.052 57.27 120.599 53.809s101.376-28.316 158.486-74.562c-0.684-0.072-0.991-0.45-0.919-1.135-52.306 10.419-96.912-7.158-133.817-52.733-29.861-36.876-41.922-77.676-36.184-122.402s28.843-83.474 69.311-116.245c43.116-34.915 89.245-50.352 138.388-46.311s90.789 27.146 124.938 69.317zM710.487 314.904c-19.142-23.638-43.974-35.937-74.496-36.896s-59.304 9.511-86.346 31.409c-29.5 23.889-46.777 50.404-51.829 79.544s3.217 57.042 24.809 83.706c18.682 23.071 42.274 36.061 70.774 38.97s54.003-4.748 76.506-22.971c31.581-25.573 51.408-54.545 59.481-86.914s1.774-61.319-18.9-86.848z" />
<glyph unicode="&#xe991;" glyph-name="surface_6B3" d="M516.395 155.475c56.21 0 100.132 22.083 131.765 66.247s47.45 108.466 47.45 192.903c0 104.39-20.44 184.69-61.32 240.9s-97.455 84.315-169.725 84.315c-38.384 0-71.071-6.039-98.060-18.117l-2.68-1.228v-66.795l2.927 1.662c30.321 16.899 62.925 25.348 97.813 25.348 50.613 0 89.851-19.953 117.713-59.86s41.792-96.603 41.792-170.090c-0.487 0.487-0.973 0.487-1.46 0-24.82 47.207-66.552 70.81-125.195 70.81-47.45 0-86.748-16.303-117.895-48.91s-46.72-74.947-46.72-127.020c0-55.48 17.033-101.044 51.1-136.692s78.232-53.473 132.495-53.473zM510.555 214.97c-30.417 0-55.602 11.558-75.555 34.675s-29.93 52.073-29.93 86.87c0 37.96 9.733 68.072 29.2 90.338s46.355 33.397 80.665 33.397c29.687 0 54.628-10.159 74.825-30.477s30.295-44.956 30.295-73.913c0-40.637-10.038-74.277-30.113-100.922s-46.537-39.968-79.387-39.968z" />
<glyph unicode="&#xe992;" glyph-name="surface_6B4" d="M288.362 253.578c33.039-45.475 76.721-68.028 131.045-67.665 54.324 0.372 115.641 25.371 183.952 75.002 84.453 61.359 137.403 125.094 158.849 191.206s10.93 128.402-31.55 186.87c-22.561 31.053-46.66 53.948-72.295 68.683l-2.569 1.446-54.038-39.261 3.065-1.391c31.493-14.597 57.494-36.008 78-64.233 29.75-40.947 36.67-84.419 20.762-130.416s-53.589-90.593-113.041-133.787c0.108 0.68-0.178 1.073-0.858 1.181 23.602 47.827 18.168 95.463-16.301 142.906-27.89 38.388-64.179 60.598-108.866 66.63s-88.094-6.255-130.223-36.863c-44.884-32.61-71.735-73.173-80.551-121.687s2.723-94.721 34.618-138.621zM333.062 293.273c-17.878 24.608-23.331 51.777-16.357 81.507s24.536 54.822 52.687 75.275c30.71 22.312 60.793 32.138 90.248 29.476s54.266-17.871 74.433-45.629c17.449-24.017 23.891-50.167 19.324-78.449s-18.563-50.934-41.99-67.954c-32.876-23.886-65.992-35.539-99.348-34.959s-59.688 14.157-78.997 40.734z" />
<glyph unicode="&#xe993;" glyph-name="surface_6B5" d="M273.472 625.874c-37.612-41.772-50.591-89.188-38.937-142.249s48.856-107.84 111.604-164.339c77.577-69.851 150.928-108.392 220.055-115.624s127.868 16.005 176.226 69.713c25.684 28.525 43.068 56.857 52.151 84.995l0.881 2.813-49.638 44.695-0.724-3.287c-7.73-33.84-23.268-63.724-46.612-89.65-33.867-37.613-74.95-53.421-123.25-47.423s-99.755 33.582-154.366 82.755c0.687 0.036 1.013 0.398 0.977 1.085 51.689-13.143 97.154 2.076 136.394 45.657 31.75 35.262 45.93 75.376 42.54 120.34s-24.434 84.869-63.132 119.713c-41.23 37.123-86.488 54.954-135.775 53.49s-92.085-22.357-128.394-62.683zM321.593 590.404c20.353 22.604 45.794 33.586 76.325 32.946s58.725-12.602 84.584-35.885c28.21-25.4 44.075-52.783 47.595-82.147s-6.198-56.796-29.156-82.293c-19.864-22.061-44.103-33.799-72.717-35.212s-53.68 7.568-75.199 26.944c-30.199 27.191-48.483 57.161-54.851 89.908s1.438 61.328 23.419 85.74z" />
<glyph unicode="&#xe994;" glyph-name="surface_7A1" d="M759.103 655.33c-114.509 136.467-317.966 154.267-454.433 39.758s-154.267-317.966-39.758-454.433c114.509-136.467 317.966-154.267 454.433-39.758s154.267 317.966 39.758 454.433zM735.57 635.584c103.604-123.47 87.499-307.55-35.971-411.154s-307.55-87.499-411.154 35.971c-103.604 123.47-87.499 307.55 35.971 411.154s307.55 87.499 411.154-35.971zM684.73 460.281l-148.721-5.153 54.639-47.717c-6.178-7.084-12.99-13.787-20.427-20.027-66.124-55.485-159.678-55.945-223.085-5.611 6.497-16.194 15.607-31.611 27.391-45.654 61.429-73.208 172.248-81.351 247.522-18.189 12.291 10.314 22.875 21.891 31.713 34.363l43.3-37.817-12.331 145.805zM653.885 560.762c-61.429 73.208-172.248 81.351-247.522 18.189-12.291-10.314-22.875-21.891-31.713-34.363l-43.3 37.816 12.331-145.805 148.721 5.153-54.639 47.717c6.178 7.084 12.99 13.787 20.427 20.027 66.124 55.485 159.678 55.945 223.085 5.611-6.497 16.194-15.607 31.611-27.391 45.654z" />
<glyph unicode="&#xe995;" glyph-name="surface_7A2" d="M815.195 337.59c60.929 167.402-25.384 352.5-192.785 413.429s-352.5-25.384-413.429-192.785c-60.929-167.402 25.384-352.5 192.785-413.429s352.5 25.384 413.429 192.785zM786.328 348.097c-55.126-151.458-222.597-229.551-374.055-174.425s-229.551 222.597-174.425 374.055c55.126 151.459 222.597 229.551 374.055 174.425s229.551-222.597 174.425-374.055zM609.091 304.474l-78.823 126.219-14.004-71.177c-9.224 1.809-18.435 4.356-27.558 7.677-81.114 29.523-128.289 110.313-116.402 190.392-10.776-13.724-19.572-29.322-25.842-46.548-32.685-89.802 15.672-189.846 108.009-223.454 15.078-5.488 30.396-8.865 45.616-10.283l-11.1-56.407 120.105 83.582zM680.688 381.428c32.685 89.802-15.672 189.846-108.009 223.454-15.078 5.488-30.396 8.865-45.616 10.283l11.1 56.407-120.105-83.582 78.823-126.22 14.004 71.177c9.224-1.809 18.435-4.356 27.558-7.677 81.114-29.523 128.289-110.313 116.402-190.392 10.776 13.724 19.572 29.322 25.842 46.548z" />
</font>
</defs>
</svg>
