<?xml version="1.0" standalone="no"?>
<!DOCTYPE svg PUBLIC "-//W3C//DTD SVG 1.1//EN" "http://www.w3.org/Graphics/SVG/1.1/DTD/svg11.dtd" >
<svg xmlns="http://www.w3.org/2000/svg">
<metadata>Generated by IcoMoon</metadata>
<defs>
<font id="icomoon" horiz-adv-x="1024">
<font-face units-per-em="1024" ascent="960" descent="-64" />
<missing-glyph horiz-adv-x="1024" />
<glyph unicode="&#x20;" horiz-adv-x="512" d="" />
<glyph unicode="&#xe900;" glyph-name="input-search" d="M994 22.8l-197.6 197.6c63.6 76.4 102 174.4 102 281.6 0 242.8-197.2 440-440 440s-440-197.2-440-440 197.2-440 440-440c106.8 0 205.2 38.4 281.2 102l197.6-197.6c8-8 18-11.6 28.4-11.6s20.4 4 28.4 11.6c15.6 15.2 15.6 40.8 0 56.4zM98.4 501.6c0 198.4 161.6 360 360 360s360-161.6 360-360-161.6-360-360-360-360 161.6-360 360z" />
<glyph unicode="&#xe901;" glyph-name="page-left" d="M365.2 448l412.4 411.2c22 22 22 57.2 0 79.2s-57.2 22-79.2 0l-452-450.8c-10.4-10.4-16.4-24.8-16.4-39.6s6-29.2 16.4-39.6l452.4-450.8c10.8-10.8 25.2-16.4 39.6-16.4s28.8 5.6 39.6 16.4c22 22 21.6 57.2 0 79.2l-412.8 411.2z" />
<glyph unicode="&#xe902;" glyph-name="page-right" d="M658.8 448l-412.4 411.2c-22 22-22 57.2 0 79.2s57.2 22 79.2 0l452.4-450.8c10.4-10.4 16.4-24.8 16.4-39.6s-6-29.2-16.4-39.6l-452.8-450.8c-10.8-10.8-25.2-16.4-39.6-16.4s-28.8 5.6-39.6 16.4c-22 22-21.6 57.2 0 79.2l412.8 411.2z" />
<glyph unicode="&#xe903;" glyph-name="personal-change-photo" d="M920 725.2h-135.6l-68.4 105.6c-21.2 32.4-57.2 52-95.6 52h-205.6c-36.8 0-71.2-17.6-92.4-47.2l-80-110.4h-138.4c-57.2 0-104-46.8-104-104v-504c0-57.2 46.8-104 104-104h816c57.2 0 104 46.8 104 104v504c0 57.2-46.8 104-104 104zM513.2 137.2c-128 0-232 104-232 232s104 232 232 232c128 0 232-104 232-232s-104-232-232-232zM868.8 545.2c-28.8 0-52 23.2-52 52s23.2 52 52 52 52-23.2 52-52-23.2-52-52-52zM513.2 521.2c-84 0-152-68-152-152s68-152 152-152 152 68 152 152-68.4 152-152 152z" />
<glyph unicode="&#xe904;" glyph-name="personal-class-report" d="M508.8 486c84 0 152 68 152 152s-68 152-152 152-152-68-152-152 68-152 152-152zM508.8 449.6c-114.8 0-208-138.4-208-309.2v-10c0-13.2 10.8-24.4 24.4-24.4h367.6c13.2 0 24 10.8 24 24v10c0 171.2-93.2 309.6-208 309.6zM851.6 386.4c23.6 19.2 39.2 48.4 39.2 81.2 0 57.6-46.4 104-104 104s-104-46.4-104-104c0-27.6 10.8-52.8 28.4-71.6 50.8-56.4 83.6-146.4 83.6-247.6v0h121.6c10.4 0 18.8 8.4 18.8 18.8v8c0.4 90.8-33.6 170-83.6 211.2zM341.2 467.6c0 57.6-46.4 104-104 104s-104-46.4-104-104c0-32.8 15.2-62 39.2-81.2-50-41.2-83.6-120.4-83.6-211.2v-8c0-10.4 8.4-18.8 18.8-18.8h121.6c0 101.2 32.8 191.2 83.6 247.6 17.6 18.4 28.4 43.6 28.4 71.6z" />
<glyph unicode="&#xe905;" glyph-name="personal-information" d="M856 788h-688c-44 0-80-36-80-80v-520c0-44 36-80 80-80h688c44 0 80 36 80 80v520c0 44-36 80-80 80zM511.6 300v-24.4c0-22-18-40-40-40h-216c-22 0-40 18-40 40v24.4c0 0 0 2.4 0 3.6 1.6 73.2 56.8 133.2 127.6 142.8-49.6 9.6-87.6 53.6-87.6 106.4 0 59.6 48.4 108 108 108s108-48.4 108-108c0-52.8-37.6-96.4-87.6-106 71.2-9.6 126-70 127.6-143.2 0-1.2 0-3.6 0-3.6v0zM782 238.4h-160c-13.2 0-24 10.8-24 24s10.8 24 24 24h160c13.2 0 24-10.8 24-24s-10.8-24-24-24zM782 403.6h-160c-13.2 0-24 10.8-24 24s10.8 24 24 24h160c13.2 0 24-10.8 24-24s-10.8-24-24-24zM782 568.4h-160c-13.2 0-24 10.8-24 24s10.8 24 24 24h160c13.2 0 24-10.8 24-24s-10.8-24-24-24z" />
<glyph unicode="&#xe906;" glyph-name="personal-order" d="M812.4 832.8h-600.8c-44 0-79.6-36-79.6-79.6v-635.2c0-47.2 58.8-69.2 89.6-33.2l77.6 91.2 79.6-96c17.6-21.6 50.8-20.4 67.2 2l66 90 79.2-93.6c17.6-20.8 50-20 66.4 1.6l72.4 94.8 72-86.4c30.4-36.8 90-15.2 90 32.4v632.4c0 44-36 79.6-79.6 79.6zM696 388h-368c-15.6 0-28 12.4-28 28s12.4 28 28 28h368c14.4 0 26.8-11.2 28-25.6 0-0.8 0-1.6 0-2.4s0-1.6 0-2.4c-1.2-14.4-13.6-25.6-28-25.6zM724 585.2c-1.2-14.4-13.2-25.6-28-25.6h-368c-15.6 0-28 12.4-28 28 0 15.2 12.4 28 28 28h368c14.4 0 26.8-11.2 28-25.6 0-0.8 0-1.6 0-2.4s0-1.6 0-2.4z" />
<glyph unicode="&#xe907;" glyph-name="personal-password" d="M812.4 583.6h-40.4v68.8c0 143.2-116.8 260-260 260s-260-116.8-260-260v-68.8h-40.4c-43.6 0-79.6-35.6-79.6-79.6v-440.8c0-44 36-79.6 79.6-79.6h600.8c44 0 79.6 36 79.6 79.6v440.8c0 44-36 79.6-79.6 79.6zM552.8 243.2v-89.6c0-22.4-18.4-40.8-40.8-40.8s-40.8 18.4-40.8 40.8v89.6c-39.6 16-67.2 54.8-67.2 100 0 59.6 48.4 108 108 108s108-48.4 108-108c0-45.2-28-83.6-67.2-100zM692 583.6h-360v68.8c0 99.2 80.8 180 180 180s180-80.8 180-180v-68.8z" />
<glyph unicode="&#xe908;" glyph-name="personal-report" d="M408.8 705.6h206c33.6 0 60.8 27.6 60.8 60.8s-27.6 60.8-60.8 60.8h-206c-33.2 0.4-60.8-27.2-60.8-60.8s27.6-60.8 60.8-60.8zM813.2 828h-41.2v-81.2c0-50.8-41.6-92.8-92.8-92.8h-334.4c-50.8 0-92.8 41.6-92.8 92.8v81.2h-41.2c-43.2 0-78.8-35.6-78.8-78.8v-602c0-43.6 35.6-78.8 78.8-78.8h602c43.6 0 78.8 35.6 78.8 78.8v602c0.4 43.2-35.2 78.8-78.4 78.8zM528 250.4h-200c-15.2 0-28 12.4-28 28s12.8 28 28 28h200c15.6 0 28-12.4 28-28s-12.4-28-28-28zM696 408.4h-368c-15.2 0-28 12.4-28 28s12.8 28 28 28h368c15.6 0 28-12.4 28-28s-12.4-28-28-28z" />
<glyph unicode="&#xe909;" glyph-name="photo-choice" d="M410 756.4c6 0 12.4 2.4 16.8 6.8l58 57.6v-222c0-15.6 12.8-28 28-28 15.6 0 28 12.4 28 28v221.6l56-56.8c9.2-9.6 24.4-9.6 34-0.4s9.6 24.4 0.4 34l-101.2 102.4c-4.4 4.4-10.4 7.2-16.8 7.2v0c-6.4 0-12.4-2.4-16.8-6.8l-103.2-102.4c-9.6-9.2-9.6-24.4 0-34 4.4-4.8 10.8-7.2 16.8-7.2zM596.8 132.4l-56-56.8v221.2c0 15.6-12.4 28-28 28-15.2 0-28-12.4-28-28v-222l-58 57.6c-4.8 4.8-10.8 6.8-16.8 6.8s-12.4-2.4-17.2-7.2c-9.2-9.6-9.2-24.4 0-34l103.2-102c4.4-4.4 10.4-6.8 16.8-6.8v0c6.4 0 12.4 2.4 16.8 7.2l101.2 102.4c9.2 9.6 9.2 24.8-0.4 34-8.8 9.2-24 9.2-33.6-0.4zM964 464l-102.4 102.8c-9.2 9.6-24.4 9.6-34 0-4.8-4.8-7.2-10.8-7.2-17.2 0-6 2.4-12.4 6.8-16.8l57.6-58h-222c-15.2 0-28-12.4-28-28 0-15.2 12.8-28 28-28h221.2l-56.8-56c-9.6-9.2-9.6-24.4-0.4-34s24.4-9.6 34-0.4l102.4 101.2c4.4 4.4 7.2 10.4 7.2 16.8v0c0.4 6.8-2 13.2-6.4 17.6zM360.8 475.2h-222l57.6 58c4.8 4.8 6.8 10.8 6.8 16.8s-2.4 12.4-7.2 17.2c-9.6 9.2-24.4 9.2-34 0l-102-103.2c-4.4-4.4-6.8-10.4-6.8-16.8v0c0-6.4 2.4-12.4 7.2-16.8l102.4-101.2c9.6-9.2 24.8-9.2 34 0.4s9.2 24.8-0.4 34l-56.8 56h221.2c15.6 0 28 12.8 28 28 0 14.8-12.4 27.6-28 27.6z" />
<glyph unicode="&#xe90a;" glyph-name="photo-enlarge" d="M1008.4-8.8l-202.8 202.8c71.2 80.4 114.8 186.4 114.8 302.4 0 251.6-204.8 456.4-456.4 456.4s-456.8-204.8-456.8-456.8 204.8-456.4 456.8-456.4c116 0 221.6 43.2 302.4 114.8l202.8-202.8c5.6-5.6 12.8-8.4 20-8.4s14.4 2.8 19.6 8c10.8 11.2 10.8 28.8-0.4 40zM464 104.8c-216 0-391.2 175.6-391.2 391.2s175.2 391.6 391.2 391.6 391.2-175.6 391.2-391.6-175.6-391.2-391.2-391.2zM636 524h-144v144c0 15.2-12.4 28-28 28v0c-15.2 0-28-12.4-28-28v-144h-144c-15.2 0-28-12.4-28-28v0c0-15.2 12.4-28 28-28h144v-144c0-15.2 12.4-28 28-28v0c15.2 0 28 12.4 28 28v144h144c15.2 0 28 12.4 28 28v0c0 15.6-12.8 28-28 28z" />
<glyph unicode="&#xe90b;" glyph-name="photo-narrow" d="M1008.4-8.8l-202.8 202.8c71.2 80.4 114.8 186.4 114.8 302.4 0 251.6-204.8 456.4-456.4 456.4s-456.8-204.8-456.8-456.8 204.8-456.4 456.8-456.4c116 0 221.6 43.2 302.4 114.8l202.8-202.8c5.6-5.6 12.8-8.4 20-8.4s14.4 2.8 19.6 8c10.8 11.2 10.8 28.8-0.4 40zM464 104.8c-216 0-391.2 175.6-391.2 391.2s175.2 391.6 391.2 391.6 391.2-175.6 391.2-391.6-175.6-391.2-391.2-391.2zM636 524h-344c-15.2 0-28-12.4-28-28v0c0-15.2 12.4-28 28-28h344c15.2 0 28 12.4 28 28v0c0 15.6-12.8 28-28 28z" />
<glyph unicode="&#xe90c;" glyph-name="photo-retate-left" d="M498.4 936c-92.8 0-183.2-26-261.2-75.6-57.2-36.4-106-84-143.6-140v187.6c0 15.6-12.4 28-28 28s-28-12.4-28-28v-304c0-13.6 9.6-25.2 23.2-27.6 13.2-2.4 26.4 5.2 31.2 18 5.6 15.2 12 30 18.8 44.4 35.2 71.6 89.2 131.6 156.4 174.4 69.2 43.6 149.2 66.8 231.2 66.8 238.4 0 432-193.6 432-432s-193.6-432-432-432c-174 0-330.4 103.6-398 264-6 14.4-22.4 20.8-36.8 14.8s-20.8-22.4-14.8-36.8c76.4-181.2 253.2-298 449.6-298 269.2 0 488 218.8 488 488s-218.8 488-488 488z" />
<glyph unicode="&#xe90d;" glyph-name="photo-retate-right" d="M525.6 936c92.8 0 183.2-26 261.2-75.6 57.2-36.4 106-84 143.6-139.6v187.2c0 15.6 12.4 28 28 28s28-12.4 28-28v-304c0-13.6-9.6-25.2-23.2-27.6-13.2-2.4-26.4 5.2-31.2 18-5.6 15.2-12 30-18.8 44.4-35.2 71.2-89.2 131.6-156.4 174-69.2 44-149.2 67.2-231.2 67.2-238.4 0-432-193.6-432-432s193.6-432 432-432c174 0 330.4 103.6 398 264 6 14.4 22.4 20.8 36.8 14.8s20.8-22.4 14.8-36.8c-76.4-181.2-253.2-298-449.6-298-269.2 0-488 218.8-488 488s218.8 488 488 488z" />
<glyph unicode="&#xe90e;" glyph-name="photo-tailoring" d="M934 167.6h-87.6v483.2c0 72.8-59.2 132-132 132h-483.2v81.2c0 15.6-12.4 28-28 28s-28-12.4-28-28v-81.2h-85.2c-15.6 0-28-12.4-28-28s12.4-28 28-28h85.2v-483.2c0-72.8 59.2-132 132-132h483.2v-79.6c0-15.6 12.4-28 28-28s28 12.4 28 28v79.6h87.6c15.6 0 28 12.4 28 28s-12.4 28-28 28zM307.2 167.6c-42 0-76 34-76 76v483.2h483.2c42 0 76-34 76-76v-483.2h-483.2z" />
<glyph unicode="&#xe90f;" glyph-name="popup-close" d="M557.2 448l352.8 352.8c12.4 12.4 12.4 32.8 0 45.2s-32.8 12.4-45.2 0l-352.8-352.8-352.8 352.8c-12.4 12.4-32.8 12.4-45.2 0s-12.4-32.8 0-45.2l352.8-352.8-352.8-352.8c-12.4-12.4-12.4-32.8 0-45.2 6.4-6.4 14.4-9.2 22.8-9.2s16.4 3.2 22.8 9.2l352.8 352.8 352.8-352.8c6.4-6.4 14.4-9.2 22.8-9.2s16.4 3.2 22.8 9.2c12.4 12.4 12.4 32.8 0 45.2l-353.6 352.8z" />
<glyph unicode="&#xe910;" glyph-name="popup-success" d="M368.8 114c-9.6 0-19.6 3.6-26.8 11.2l-311.6 314c-14.8 14.8-14.8 38.8 0.4 53.6 14.8 14.8 38.8 14.8 53.6-0.4l284.4-287.2 570.8 566c14.8 14.8 38.8 14.8 53.6-0.4 14.8-14.8 14.8-38.8-0.4-53.6l-597.6-592c-7.2-7.6-16.8-11.2-26.4-11.2z" />
<glyph unicode="&#xe911;" glyph-name="selection-drop" d="M512.4 167.6c-14 0-28.4 5.2-39.2 16l-455.6 445.6c-22 21.6-22.4 57.2-0.8 79.2s57.2 22.4 79.2 0.8l416-407.2 416 410.4c22 21.6 57.6 21.6 79.2-0.4s21.6-57.6-0.4-79.2l-455.2-449.2c-10.8-10.8-25.2-16-39.2-16z" />
<glyph unicode="&#xe912;" glyph-name="report-ability" d="M618.8 619.2c-36 0-65.2-29.2-65.2-65.2s29.2-65.2 65.2-65.2 65.2 29.2 65.2 65.2-29.2 65.2-65.2 65.2zM512 959.6c-282.4 0-511.6-228.8-511.6-511.6s229.2-511.6 511.6-511.6 511.6 229.2 511.6 511.6c0 282.8-228.8 511.6-511.6 511.6zM378 249.2c-46-35.2-97.6-50.8-107.2-42.4-10 8.8 3.2 54.4 39.2 103.6 36.4 49.6 64 34 80.8 17.6 17.2-16.8 37.2-40.8-12.8-78.8zM623.2 365.2c-10-70-61.6-126.4-129.2-143.2 8.8 19.6 13.6 41.2 13.6 64 0 10-0.8 20-2.8 29.6l-124.4 125.2c-10 2-20.4 3.2-30.8 3.2-22.4 0-44-4.8-63.6-13.2 16.8 68 74 119.6 144.4 128.8 65.6 80.8 165.6 132.4 277.6 132.4 14.8 0 29.2-0.8 43.6-2.8 2-15.2 3.2-31.2 3.2-46.8 0-111.6-51.2-211.6-131.6-277.2z" />
<glyph unicode="&#xe913;" glyph-name="report-advantage" d="M512 960c-282.8 0-512-229.2-512-512s229.2-512 512-512 512 229.2 512 512-229.2 512-512 512zM341.2 212.4h-40.4c-26.4 0-48 21.6-48 48v206c0 26.4 21.6 48 48 48h40.8l-0.4-302zM754.8 447.2l-19.6-146.4c-0.4-5.6-1.2-11.6-2.4-16.8v0 0c-9.2-40.8-46-71.2-89.6-71.2h-262.4v325.6c50.8 19.6 86.8 69.2 86.8 126.8v0 0c0 35.2 28.8 64 64 64 33.6 0 60.8-26 63.6-58.8 1.6-10.8 2.8-22 2.8-33.6 0-36-8.8-70.4-24.4-100h102c44 0 80-36 80-80-0.4-3.2-0.4-6.4-0.8-9.6v0z" />
<glyph unicode="&#xe914;" glyph-name="report-analysis" d="M512 960c-282.8 0-512-229.2-512-512s229.2-512 512-512 512 229.2 512 512-229.2 512-512 512zM636 528.8c0 24.4 20 44 44 44 24.4 0 44-19.6 44-44v-164c0-24.4-19.6-44-44-44-24 0-44 19.6-44 44v164zM468 662c0 23.6 19.2 42.8 42.8 42.8h2c23.6 0 42.8-19.2 42.8-42.8v-298c0-23.6-19.2-42.8-42.8-42.8h-2c-23.6 0-42.8 19.2-42.8 42.8v298zM300 488.8c0 24.4 20 44 44 44 24.4 0 44-19.6 44-44v-124c0-24.4-19.6-44-44-44-24 0-44 19.6-44 44v124zM764 234.8c0-24-19.6-44-44-44h-416c-24 0-44 19.6-44 44v0c0 24 19.6 44 44 44h416c24.4 0.4 44-19.6 44-44v0z" />
<glyph unicode="&#xe915;" glyph-name="report-career" d="M871.2 600l-148-152.8-143.6 200c24.4 19.6 40.4 50 40.4 84 0 59.6-48.4 108-108 108s-108-48.4-108-108c0-34 16-64.8 40.8-84.4l-142-199.6-150 154c-33.2 34-90 3.2-79.2-43.2l100.4-438.8c8.4-36.4 40.8-62.4 78-62.4h520.4c37.2 0 70 26 78 62.4l100 437.6c10.8 46.4-46.4 77.2-79.2 43.2zM825.6 276l-31.2-132.4c-3.2-12.8-16-20.8-28.8-18-12.8 3.2-20.8 16-18 28.8l31.2 132.4c3.2 12.8 16 20.8 28.8 18 12.8-3.2 20.8-16 18-28.8z" />
<glyph unicode="&#xe916;" glyph-name="report-character" d="M512 887.6c-242.8 0-439.6-196.8-439.6-439.6s196.8-439.6 439.6-439.6 439.6 196.8 439.6 439.6-196.8 439.6-439.6 439.6zM564.4 574c8.4 41.2 45.2 71.2 87.6 71.2 41.2 0 76.8-28 86.8-68 3.2-12.8-4.8-26-17.6-29.2s-26 4.8-29.2 17.6c-4.4 18.4-20.8 31.2-40 31.2-19.6 0-36.4-14-40.4-32.8-2.4-11.2-12.4-19.2-23.6-19.2-1.6 0-3.2 0-4.8 0.4-13.2 3.2-21.6 16-18.8 28.8zM279.6 574c8.4 41.6 45.2 71.6 87.2 71.6 41.2 0 76.8-28 86.8-68 3.2-12.8-4.8-26-17.6-29.2s-26 4.8-29.2 17.6c-4.4 18.4-20.8 31.2-40 31.2-19.6 0-36.4-14-40.4-32.8-2.4-11.2-12.4-19.2-23.6-19.2-1.6 0-3.2 0-4.8 0.4-12.8 2.8-21.2 15.6-18.4 28.4zM512 184.8c-122 0-223.6 84.8-250.4 198.4 74.4 40.8 159.6 64 250.4 64s176-23.2 250.4-64c-26.8-113.6-128.4-198.4-250.4-198.4z" />
<glyph unicode="&#xe917;" glyph-name="report-characteristic" d="M649.6 549.2l-137.6-74.8-137.2 74.8c-11.2 6-25.6 2-31.6-9.2s-2-25.6 9.2-31.6l136-74.4v-126c0-12.8 10.4-23.2 23.2-23.2s23.2 10.4 23.2 23.2v125.6l136.8 74.4c11.2 6 15.6 20.4 9.2 31.6-5.6 11.6-19.6 16-31.2 9.6zM512 960c-282.8 0-512-229.2-512-512s229.2-512 512-512 512 229.2 512 512-229.2 512-512 512zM768 343.2c0-26.8-14-51.2-37.2-64.4l-181.6-104.8c-23.2-13.2-51.6-13.2-74.4 0l-181.6 104.8c-23.2 13.2-37.2 38-37.2 64.4v209.6c0 26.8 14 51.2 37.2 64.4l181.6 104.8c23.2 13.2 51.6 13.2 74.4 0l181.6-104.8c23.2-13.2 37.2-38 37.2-64.4v-209.6z" />
<glyph unicode="&#xe918;" glyph-name="report-cognitive" d="M494 512l-104 117.2c-4 4.4-6 10-6 16v194.8c0 26.4 21.6 48 48 48h160c26.4 0 48-21.6 48-48v-194.8c0-6-2-11.6-6-16l-104-117.2c-9.6-10.4-26.4-10.4-36 0zM530 384l104-117.2c4-4.4 6-10 6-16v-194.8c0-26.4-21.6-48-48-48h-160c-26.4 0-48 21.6-48 48v194.8c0 6 2 11.6 6 16l104 117.2c9.6 10.4 26.4 10.4 36 0zM576 466l117.2 104c4.4 4 10 6 16 6h194.8c26.4 0 48-21.6 48-48v-160c0-26.4-21.6-48-48-48h-194.8c-6 0-11.6 2-16 6l-117.2 104c-10.4 9.6-10.4 26.4 0 36zM448 430l-117.2-104c-4.4-4-10-6-16-6h-194.8c-26.4 0-48 21.6-48 48v160c0 26.4 21.6 48 48 48h194.8c6 0 11.6-2 16-6l117.2-104c10.4-9.6 10.4-26.4 0-36z" />
<glyph unicode="&#xe919;" glyph-name="report-college" d="M512 960c-282.8 0-512-229.2-512-512s229.2-512 512-512 512 229.2 512 512-229.2 512-512 512zM723.2 208.4h-424c-24.4 0-44 19.6-44 44s19.6 44 44 44v0c0 0.4 0 0.8 0 0.8v80c0 24.4 19.6 44 44 44s44-19.6 44-44v-80c0-0.4 0-0.8 0-0.8h80c0 0.4 0 0.8 0 0.8v80c0 24.4 19.6 44 44 44s44-19.6 44-44v-80c0-0.4 0-0.8 0-0.8h80c0 0.4 0 0.8 0 0.8v80c0 24.4 19.6 44 44 44s44-19.6 44-44v-80c0-0.4 0-0.8 0-0.8v0c24.4 0 44-19.6 44-44s-20-44-44-44zM737.2 462.8h-450.4c-29.6 0-43.2 36.8-21.2 56l214 188.8c18 15.6 44.8 15.6 62.8 0l215.6-188.8c22.8-19.2 8.8-56-20.8-56z" />
<glyph unicode="&#xe91a;" glyph-name="report-comprehensive" d="M824 776h-192.4c-4 62.4-56 112-119.6 112s-115.6-49.6-119.6-112h-192.4c-39.6 0-72-32.4-72-72v-624c0-39.6 32.4-72 72-72h624c39.6 0 72 32.4 72 72v624c0 39.6-32.4 72-72 72zM512 808c22 0 40-18 40-40s-18-40-40-40-40 18-40 40 18 40 40 40zM512 613.2c66.4 0 120-53.6 120-120s-53.6-120-120-120-120 53.6-120 120 53.6 120 120 120zM780 136h-532v17.2c0 98 119.2 177.2 266 177.2s266-79.2 266-177.2v-17.2z" />
<glyph unicode="&#xe91b;" glyph-name="report-concept" d="M512 960c-282.8 0-512-229.2-512-512s229.2-512 512-512 512 229.2 512 512-229.2 512-512 512zM535.6 277.2c-10.4-26.8-46-32.4-64-9.6l-70.8 88.8-113.2 6c-28.8 1.6-44.8 33.6-29.2 57.6l62.8 94.8-29.2 109.6c-7.6 28 18.4 53.2 46 45.6l109.2-30.4 95.2 61.6c24 15.6 56-0.8 57.6-29.6l4.8-113.2 88-71.6c22.4-18 16.4-53.6-10.4-63.6l-106.4-39.6-40.4-106.4zM763.6 196.8c-5.6-5.6-12.8-8-19.6-8-7.2 0-14.4 2.8-19.6 8l-105.2 105.2c-10.8 10.8-10.8 28.4 0 39.6 10.8 10.8 28.4 10.8 39.6 0l105.2-105.2c10.4-10.8 10.4-28.8-0.4-39.6z" />
<glyph unicode="&#xe91c;" glyph-name="report-environmental" d="M595.2 318c24.4 0 44 28.8 44 64s-19.6 64-44 64-44-28.8-44-64 19.6-64 44-64zM512 960c-282.8 0-512-229.2-512-512s229.2-512 512-512 512 229.2 512 512-229.2 512-512 512zM512 176.4c-119.2 0-216 96.8-216 216 0 95.2 118 238 179.6 310.4 19.2 22.4 54 22.4 73.2 0 61.6-72.4 179.6-215.6 179.6-310.4-0.4-119.2-97.2-216-216.4-216z" />
<glyph unicode="&#xe91d;" glyph-name="report-fit" d="M512 960c-282.8 0-512-229.2-512-512s229.2-512 512-512 512 229.2 512 512-229.2 512-512 512zM388 520v-152h-80c-26.4 0-48 21.6-48 48v240c0 26.4 21.6 48 48 48h240c26.4 0 48-21.6 48-48v-88h-160c-26.4 0-48-21.6-48-48zM764 240c0-26.4-21.6-48-48-48h-240c-26.4 0-48 21.6-48 48v240c0 26.4 21.6 48 48 48h240c26.4 0 48-21.6 48-48v-240z" />
<glyph unicode="&#xe91e;" glyph-name="report-high-school" d="M512 960c-282.8 0-512-229.2-512-512s229.2-512 512-512 512 229.2 512 512-229.2 512-512 512zM768 332c0-26.4-21.6-48-48-48h-148c-8.8-24.8-32.4-42.4-60-42.4s-51.2 17.6-60 42.4h-148c-26.4 0-48 21.6-48 48v288c0 26.4 21.6 48 48 48h104.4c31.2 0 60-14 79.6-37.2v-152.4c0-13.2 10.8-24 24-24s24 10.8 24 24v156c19.6 20.8 46.8 33.2 76 33.2h108c26.4 0 48-21.6 48-48v-287.6z" />
<glyph unicode="&#xe91f;" glyph-name="report-individual" d="M512 960c-282.8 0-512-229.2-512-512s229.2-512 512-512 512 229.2 512 512-229.2 512-512 512zM281.6 612l199.6 85.2c18.4 8 39.2 8 58 0.4l202-84.4c34.4-14.4 36-62 3.2-78.8l-199.2-102c-21.2-10.8-46.4-10.8-68 0l-198 101.2c-33.2 16.4-31.6 63.6 2.4 78.4zM758.4 325.6l-235.2-129.2c-4-2.4-8.8-3.6-13.6-3.6s-9.2 1.2-13.6 3.6l-231.2 129.2c-13.6 7.6-18.4 24.4-10.8 38s24.4 18.4 38 10.8l217.6-121.6 221.6 121.6c13.6 7.6 30.4 2.4 38-11.2 8-13.2 2.8-30-10.8-37.6zM758.4 432.8l-235.2-129.2c-4-2.4-8.8-3.6-13.6-3.6s-9.2 1.2-13.6 3.6l-231.2 129.2c-13.6 7.6-18.4 24.4-10.8 38s24.4 18.4 38 10.8l217.6-121.6 221.6 121.6c13.6 7.6 30.4 2.4 38-11.2 8-13.2 2.8-30-10.8-37.6z" />
<glyph unicode="&#xe920;" glyph-name="report-inferiority" d="M512 960c-282.8 0-512-229.2-512-512s229.2-512 512-512 512 229.2 512 512-229.2 512-512 512zM341.2 381.6h-40.4c-26.4 0-48 21.6-48 48v206c0 26.4 21.6 48 48 48h40.8l-0.4-302zM675.2 359.2h-102c15.6-30 24.4-64 24.4-100 0-11.6-0.8-22.4-2.8-33.6-2.8-32.8-30-58.8-63.6-58.8-35.2 0-64 28.4-64 64v0 0c0 57.6-36 106.8-86.8 126.8v326h262.8c43.6 0 80.4-30.4 89.6-71.2v0 0c1.2-5.6 2-11.2 2.4-16.8l19.6-146.4c0.4-3.2 0.8-6.4 0.8-9.6-0.4-44.4-36-80.4-80.4-80.4z" />
<glyph unicode="&#xe921;" glyph-name="report-integrated-model" d="M512 960c-282.8 0-512-229.2-512-512s229.2-512 512-512 512 229.2 512 512-229.2 512-512 512zM490.4 533.6c-38.4-9.6-66.8-44.4-66.8-85.6s28.4-76 66.8-85.6v-169.2c-131.2 10.8-234.4 120.8-234.4 254.8s103.2 244 234.4 255.2v-169.6zM533.6 192.8v169.2c31.6 8 56.4 32.8 64.4 64.4h169.2c-10.4-124-109.6-223.2-233.6-233.6zM597.6 469.6c-8 31.6-32.8 56.4-64.4 64.4v169.2c124-10.4 223.2-109.2 233.6-233.6h-169.2z" />
<glyph unicode="&#xe922;" glyph-name="report-interest" d="M916 443.6v0c22 38.8 34.8 84 34.8 132 0 148-120 268-268 268-64.8 0-124.4-23.2-170.8-61.2-46.4 38.4-106 61.2-170.8 61.2-148 0-268-120-268-268 0-49.6 13.6-96 36.8-135.6v0c0 0 40.8-73.6 145.2-189.6 66-73.2 144.4-138 197.6-178.4 35.2-26.8 84-26.4 118.4 1.2 57.2 45.6 144 118 198.4 177.2 53.6 58.4 102 126.8 127.6 164.8 6.4 8.8 12.4 17.6 17.6 27.2 0.8 0.8 1.2 1.2 1.2 1.2z" />
<glyph unicode="&#xe923;" glyph-name="report-label" d="M512 960c-282.8 0-512-229.2-512-512s229.2-512 512-512 512 229.2 512 512-229.2 512-512 512zM764.4 298.4l-209.6-121.2c-26.8-15.2-60.8-6-76.4 20.4l-200 346.8c-8.8 15.2-9.6 33.2-3.6 48.4v0l76 180 190-24c17.6-1.6 34.4-11.2 44-27.6l200-346.8c15.2-26.4 6-60.8-20.4-76zM412.8 665.2c-33.2-19.2-44.8-62-25.6-95.2s62-44.8 95.2-25.6c33.2 19.2 44.8 62 25.6 95.2s-62 44.8-95.2 25.6z" />
<glyph unicode="&#xe924;" glyph-name="report-learning" d="M943.6 816.4c0 35.2-28.8 64-64 64-16.8 0-32-6.4-43.6-17.2v0l-394-357.6c-1.6-1.6-3.6-3.2-5.2-4.8l-0.4-0.4c-0.8-0.8-1.6-1.6-2-2l-0.4-0.4c66-18.4 116.4-73.6 128.4-141.6 4 3.2 8 6.8 11.6 10.4v0l0.4 0.4c1.2 1.6 2.8 2.8 4 4.4l345.2 398-0.4 0.4c13.2 11.6 20.4 28 20.4 46.4zM337.2 448.4c-96 0-176-67.6-195.6-158v0c0 0 0 0 0-0.4-1.6-7.2-2.8-14-3.2-21.6-4-25.6-11.6-67.2-17.2-86.4-17.2-54.4-32-79.2-32-79.2v0c-6-8.8-9.2-19.2-9.2-30.8 0-30.4 24-54.8 54-56v0c0 0 0.8 0 2 0v0 0c12.8 0 82.4 0.8 144.4 8.4 86 10.4 152 47.6 152 47.6v0c62.4 34 104.8 100 104.8 176 0 110.8-89.6 200.4-200 200.4z" />
<glyph unicode="&#xe925;" glyph-name="report-occupation" d="M512 960c-282.8 0-512-229.2-512-512s229.2-512 512-512 512 229.2 512 512-229.2 512-512 512zM446.4 703.6h131.6c14.8 0 24.4-15.2 18-28.8l-22.4-46.8c-3.2-6.8-10.4-11.2-18-11.2h-87.6c-7.6 0-14.8 4.4-18 11.6l-22 46.8c-6 13.2 3.6 28.4 18.4 28.4zM624 280.8l-90-84.4c-12.4-11.6-31.6-11.6-43.6 0l-90.4 84.4c-12.4 11.6-18 29.2-14 46l55.2 232.8c2 9.2 10 15.2 19.6 15.2h100.4c9.2 0 17.2-6.4 19.6-15.2l57.6-232.8c3.6-16.4-1.6-34.4-14.4-46z" />
<glyph unicode="&#xe926;" glyph-name="report-promote" d="M639.6 238c6.4-3.6 12-1.2 14 0s7.2 4.8 7.2 12v99.6c-29.2-29.6-67.2-50.4-110-58.4l88.8-53.2zM598.4 391.2l-7.2 65.6 44.4 48.8c9.6 10.8 4 28-10 30.8l-64.4 13.6-33.2 56.8c-7.2 12.4-25.2 12.4-32.4 0l-32.8-57.2-64.4-13.6c-14-2.8-19.6-20-10-30.8l44.4-48.8-7.2-65.6c-1.6-14.4 13.2-24.8 26-19.2l60 27.2 60-27.2c13.6-5.2 28.4 5.2 26.8 19.6zM369.2 251.6c0-7.6 5.2-11.2 7.2-12.4s8-3.6 14 0.4l83.2 51.6c-40 7.2-76 26-104.4 52.8 0 0 0-92.4 0-92.4zM512 960c-282.8 0-512-229.2-512-512s229.2-512 512-512 512 229.2 512 512-229.2 512-512 512zM707.6 422v-171.6c0-22-11.6-41.6-30.8-52.8-9.2-5.2-19.6-8-30-8-10.8 0-21.2 2.8-31.2 8.8l-103.6 62-96.8-60.4c-18.8-11.6-42-12.4-61.2-1.6-19.6 10.8-31.2 30.8-31.2 52.8v156c-12.8 27.2-20 57.6-20 89.6 0 115.6 93.6 209.6 209.6 209.6s209.6-93.6 209.6-209.6c-0.4-26.4-5.6-51.6-14.4-74.8z" />
<glyph unicode="&#xe927;" glyph-name="report-proposal" d="M636 578.4h-248c-24.4 0-44-20-44-44v0c0-24.4 19.6-44 44-44h248c24.4 0 44 19.6 44 44v0c0 24-19.6 44-44 44zM512 960c-282.8 0-512-229.2-512-512s229.2-512 512-512 512 229.2 512 512-229.2 512-512 512zM764 324c0-26.4-21.6-48-48-48h-288l-97.6-72.8c-29.2-21.6-70.4-0.8-70.4 35.2v413.6c0 26.4 21.6 48 48 48h408c26.4 0 48-21.6 48-48v-328z" />
<glyph unicode="&#xe928;" glyph-name="report-score" d="M512 960c-282.8 0-512-229.2-512-512s229.2-512 512-512 512 229.2 512 512-229.2 512-512 512zM732 236c0-26.4-21.6-48-48-48h-344c-26.4 0-48 21.6-48 48v80h174.4c24 0 44 20 44 44 0 24.4-20 44-44 44h-174.4v256c0 26.4 21.6 48 48 48h197.2c12.8 0 24.8-5.2 34-14l146.8-146.8c8.8-9.2 14-21.2 14-34v-277.2z" />
<glyph unicode="&#xe929;" glyph-name="report-selected-subjects" d="M236 424.8v-240c2.8-64.4 136-116 300-116s297.2 51.6 300 116v0 240l-282-112.8c-11.6-4.4-24.4-4.4-35.6 0l-282.4 112.8zM116 464.8v0c-24.4 0-44-19.6-44-44v-208c0-24 19.6-44 44-44v0c24 0 44 19.6 44 44v208c0 24-19.6 44-44 44zM908.4 677.2l-344.4 140c-33.2 13.6-70 13.6-103.2 0.4l-344-136.4c-59.2-23.2-59.2-106.8 0-130.4l345.2-136.8c32.4-12.8 68.8-13.2 101.2-0.4l344.4 133.2c58.8 22.8 59.6 106.4 0.8 130.4zM725.2 667.6c-5.2-12-19.6-17.6-31.6-12.4l-139.6 60.8c-12 5.2-17.6 19.6-12.4 31.6s19.6 17.6 31.6 12.4l139.2-61.2c12.4-5.2 18-19.2 12.8-31.2z" />
<glyph unicode="&#xe92a;" glyph-name="report-step" d="M512 960c-282.8 0-512-229.2-512-512s229.2-512 512-512 512 229.2 512 512-229.2 512-512 512zM804 487.2l-111.2-111.2c-9.2-9.2-21.2-14-34-14h-188v-215.6c0-23.2-18.8-42-42-42h-4c-23.2 0-42 18.8-42 42v215.6h-140c-17.6 0-32 14.4-32 32v232c0 17.6 14.4 32 32 32h140.4v92c0 23.2 18.8 42 42 42h4c23.2 0 42-18.8 42-42v-92.4h188c12.8 0 25.2-5.2 34-14l110.8-111.6c12.4-12.4 12.4-32.4 0-44.8z" />
<glyph unicode="&#xe92b;" glyph-name="report-summary" d="M512 960c-282.8 0-512-229.2-512-512s229.2-512 512-512 512 229.2 512 512-229.2 512-512 512zM470 271.2c0-20.4-16.8-37.2-37.2-37.2h-93.2c-20.4 0-37.2 16.8-37.2 37.2v139.6c0 20.4 16.8 37.2 37.2 37.2h93.2c20.4 0 37.2-16.8 37.2-37.2v-139.6zM470 528.4c0-20.4-16.8-37.2-37.2-37.2h-93.2c-20.4 0-37.2 16.8-37.2 37.2v93.2c0 20.4 16.8 37.2 37.2 37.2h93.2c20.4 0 37.2-16.8 37.2-37.2v-93.2zM733.6 271.2c0-20.4-16.8-37.2-37.2-37.2h-139.6c-20.4 0-37.2 16.8-37.2 37.2v93.2c0 20.4 16.8 37.2 37.2 37.2h139.6c20.4 0 37.2-16.8 37.2-37.2v-93.2zM733.6 481.6c0-20.4-16.8-37.2-37.2-37.2h-139.6c-20.4 0-37.2 16.8-37.2 37.2v140c0 20.4 16.8 37.2 37.2 37.2h139.6c20.4 0 37.2-16.8 37.2-37.2v-140z" />
<glyph unicode="&#xe92c;" glyph-name="report-temperament" d="M366 410.4c15.6-66 75.2-115.6 146-115.6s130.4 49.2 146 115.6c-43.2 23.6-93.2 37.2-146 37.2s-102.8-13.6-146-37.2zM553.6 504.8c0.8 0 2-0.4 2.8-0.4 6.4 0 12.4 4.4 13.6 11.2 2.4 11.2 12 19.2 23.6 19.2 11.2 0 20.8-7.6 23.2-18.4 2-7.6 9.6-12 16.8-10.4 7.6 2 12 9.6 10.4 16.8-5.6 23.2-26.4 39.6-50.4 39.6-24.4 0-46-17.6-50.8-41.6-1.6-6.8 3.2-14.4 10.8-16zM387.6 504.8c0.8 0 2-0.4 2.8-0.4 6.4 0 12.4 4.4 13.6 11.2 2.4 11.2 12 19.2 23.6 19.2 11.2 0 20.8-7.6 23.2-18.4 2-7.6 9.6-12 16.8-10.4 7.6 2 12 9.6 10.4 16.8-5.6 23.2-26.4 39.6-50.4 39.6-24.4 0-46-17.6-50.8-41.6-1.6-6.8 3.2-14.4 10.8-16zM512 960c-282.8 0-512-229.2-512-512s229.2-512 512-512 512 229.2 512 512-229.2 512-512 512zM512 192c-141.2 0-256 114.8-256 256s114.8 256 256 256 256-114.8 256-256-114.8-256-256-256z" />
<glyph unicode="&#xe92d;" glyph-name="report-type" d="M512 960c-282.8 0-512-229.2-512-512s229.2-512 512-512 512 229.2 512 512-229.2 512-512 512zM426.4 148.8l-0.8 212-127.2 43.2 298 343.2 0.4-255.6 128.8-0.4-299.2-342.4z" />
<glyph unicode="&#xe92e;" glyph-name="report-whole" d="M512 960c-282.8 0-512-229.2-512-512s229.2-512 512-512 512 229.2 512 512-229.2 512-512 512zM710.8 211.2c-38 0-70.4 25.6-80.4 60.4h-137.2c-10.8-58.4-62-102.4-123.6-102.4-69.6 0-125.6 56.4-125.6 125.6 0 69.6 56.4 125.6 125.6 125.6 19.6 0 38-4.4 54.4-12.4l100.8 137.2c-16.4 18.8-26.4 43.2-26.4 70.4 0 59.2 48 107.2 107.2 107.2s107.2-48 107.2-107.2c0-39.2-21.2-73.6-52.4-92l47.2-144.8c0.8 0 2 0 2.8 0 46.4 0 83.6-37.6 83.6-83.6 0.8-46.4-36.8-84-83.2-84zM606.4 508.4c-15.2 0-30 3.2-43.2 9.2l-100.8-137.2c16-17.2 27.2-38.4 31.6-62.4h137.2c5.6 18.8 17.6 35.2 33.2 46l-47.2 144.8c-4 0-7.6-0.4-10.8-0.4z" />
<glyph unicode="&#xe92f;" glyph-name="report-wish-filling" d="M512 888c-243.2 0-440-196.8-440-440s196.8-440 440-440 440 196.8 440 440-196.8 440-440 440zM751.6 480l-92.8-93.2 20-130c4.4-27.6-24.4-48.4-49.6-36l-117.6 59.2-117.6-59.2c-24.8-12.4-53.6 8.4-49.6 36l20 130-92.4 93.6c-19.6 20-8.8 53.6 18.8 58l129.6 21.2 60.4 116.8c12.8 24.8 48.4 24.8 61.2 0l60-116.8 129.6-21.2c28.4-4.8 39.6-38.8 20-58.4z" />
<glyph unicode="&#xe930;" glyph-name="subject-choose-correct" d="M330 72.4c-1.6 0-2.8 0-4.4 0-18.4 1.2-35.2 10.4-46.4 24.8l-262 344.8c-21.2 28-16 68 12 89.2s68 16 89.2-12l218-286.4 574.8 572.4c24.8 24.8 65.2 24.8 90 0s24.8-65.2 0-90l-626-624c-12.4-12.4-28.4-18.8-45.2-18.8z" />
<glyph unicode="&#xe931;" glyph-name="subject-choose-error" d="M603.6 448l278.4 278.4c25.2 25.2 25.2 66.4 0 91.6s-66.4 25.2-91.6 0l-278.4-278.4-278.4 278c-25.2 25.2-66.4 25.2-91.6 0s-25.2-66.4 0-91.6l278.4-278.4-278.4-278.4c-25.2-25.2-25.2-66.4 0-91.6 12.8-12.8 29.2-18.8 45.6-18.8s33.2 6.4 45.6 18.8l278.4 278.4 278.4-278.4c12.8-12.8 29.2-18.8 45.6-18.8s33.2 6.4 45.6 18.8c25.2 25.2 25.2 66.4 0 91.6l-277.6 278.8z" />
<glyph unicode="&#xe932;" glyph-name="reasoning-12A" d="M334.259 368c11.66 0 20.865-3.157 27.615-9.47s10.126-14.806 10.126-25.478c0-8.046-2.162-15.938-6.485-23.676s-12.51-17.586-24.561-29.543v0l-29.54-28.914v-0.335h59.414v-14.583h-78.828v14.248l38.991 38.974c9.64 9.76 16.141 17.54 19.503 23.339 3.515 6.062 5.272 12.334 5.272 18.815 0 7.375-2.064 13.032-6.192 16.971s-10.098 5.909-17.908 5.909c-11.548 0-22.566-4.917-33.054-14.75v0 16.678l1.285 0.964c9.917 7.235 21.372 10.853 34.364 10.853zM608 444v-12h-560v12h560zM167.439 622.453c10.224 0 18.004-3.24 23.34-9.721s8.005-15.923 8.005-28.327v0-56.405h-16.431v52.483l-0.010 1.251c-0.304 18.135-7.294 27.202-20.971 27.202-7.246 0-13.201-2.67-17.863-8.010s-6.994-12.099-6.994-20.276v0-52.65h-16.515v92.283h16.515v-15.269h0.337l0.713 1.143c6.992 10.864 16.95 16.295 29.874 16.295zM514.846 660v-117.899h29.154v-14.101h-74.824v14.101h29.238v98.124l-29.997-8.594v15.019l46.428 13.35zM391.825 585.406v-12.432h-49.714v12.432h49.714zM246.981 658.999c7.19 0 12.92-1.989 17.189-5.966s6.404-9.248 6.404-15.812c0-9.067-6.235-19.497-18.706-31.29v0l-14.324-13.35v-0.417h34.631v-11.515h-50.978v10.68l22.946 22.293c5.418 5.339 8.919 9.408 10.505 12.209 1.685 2.976 2.528 6.3 2.528 9.971 0 3.393-1.109 6.147-3.328 8.26s-5.182 3.171-8.89 3.171c-6.966 0-13.482-3.059-19.548-9.178v0 14.101l0.898 0.739c5.187 4.069 12.078 6.103 20.673 6.103z" />
<glyph unicode="&#xe933;" glyph-name="reasoning-12B" d="M518.259 368c11.66 0 20.865-3.157 27.615-9.47s10.126-14.806 10.126-25.478c0-8.046-2.162-15.938-6.485-23.676s-12.51-17.586-24.561-29.543v0l-29.54-28.914v-0.335h59.414v-14.583h-78.828v14.248l38.991 38.974c9.64 9.76 16.141 17.54 19.503 23.339 3.515 6.062 5.272 12.334 5.272 18.815 0 7.375-2.064 13.032-6.192 16.971s-10.098 5.909-17.908 5.909c-11.548 0-22.566-4.917-33.054-14.75v0 16.678l1.285 0.964c9.917 7.235 21.372 10.853 34.364 10.853zM1008 444v-12h-988v12h988zM78.737 657.27l-1.398-1.723c-17.95-22.486-26.926-48.275-26.926-77.367 0-29.783 9.385-55.843 28.156-78.18v0h-14.33l-1.329 1.521c-17.941 20.899-26.911 46.397-26.911 76.493 0 30.831 9.413 57.249 28.24 79.255v0h14.497zM475.022 657.27l1.333-1.568c17.994-21.534 26.991-47.429 26.991-77.688 0-30.996-9.441-57.001-28.324-78.014v0h-14.413l1.361 1.637c17.92 21.918 26.879 47.433 26.879 76.543 0 29.893-9.469 56.256-28.408 79.090v0h14.581zM571.391 657.27l-1.398-1.723c-17.95-22.486-26.926-48.275-26.926-77.367 0-29.783 9.385-55.843 28.156-78.18v0h-14.33l-1.329 1.521c-17.941 20.899-26.911 46.397-26.911 76.493 0 30.831 9.413 57.249 28.24 79.255v0h14.497zM967.676 657.27l1.333-1.568c17.994-21.534 26.991-47.429 26.991-77.688 0-30.996-9.441-57.001-28.324-78.014v0h-14.413l1.361 1.637c17.92 21.918 26.879 47.433 26.879 76.543 0 29.893-9.469 56.256-28.408 79.090v0h14.581zM142.341 622.771c10.168 0 17.905-3.213 23.212-9.638s7.961-15.788 7.961-28.087v0-55.926h-16.341v52.037l-0.010 1.24c-0.302 17.981-7.254 26.971-20.856 26.971-7.207 0-13.128-2.647-17.765-7.942s-6.955-11.996-6.955-20.103v0-52.203h-16.425v91.499h16.425v-15.14h0.335l0.709 1.133c6.954 10.771 16.857 16.157 29.71 16.157zM409.073 659.421c11.676 0 20.894-3.116 27.654-9.349s10.14-14.616 10.14-25.15c0-7.942-2.165-15.733-6.494-23.371s-12.528-17.36-24.595-29.162v0l-29.581-28.542v-0.331h59.497v-14.395h-78.939v14.064l39.045 38.472c9.654 9.635 16.164 17.314 19.53 23.038 3.52 5.984 5.279 12.175 5.279 18.573 0 7.28-2.067 12.865-6.201 16.753s-10.112 5.832-17.933 5.832c-11.564 0-22.598-4.853-33.101-14.56v0 16.463l1.287 0.952c9.931 7.142 21.402 10.713 34.412 10.713zM634.994 622.771c10.168 0 17.905-3.213 23.212-9.638s7.961-15.788 7.961-28.087v0-55.926h-16.341v52.037l-0.010 1.24c-0.302 17.981-7.254 26.971-20.856 26.971-7.207 0-13.128-2.647-17.765-7.942s-6.955-11.996-6.955-20.103v0-52.203h-16.425v91.499h16.425v-15.14h0.335l0.709 1.133c6.954 10.771 16.857 16.157 29.71 16.157zM911.782 660v-116.898h28.994v-13.981h-74.413v13.981h29.078v97.291l-29.832-8.521v14.891l46.173 13.237zM278.43 624.509v-35.905h36.369v-12.41h-36.369v-35.905h-12.737v35.905h-36.369v12.41h36.369v35.905h12.737zM771.084 624.509v-35.905h36.369v-12.41h-36.369v-35.905h-12.737v35.905h-36.369v12.41h36.369v35.905h12.737z" />
<glyph unicode="&#xe934;" glyph-name="reasoning-12C" d="M394.259 368c11.66 0 20.865-3.157 27.615-9.47s10.126-14.806 10.126-25.478c0-8.046-2.162-15.938-6.485-23.676s-12.51-17.586-24.561-29.543v0l-29.54-28.914v-0.335h59.414v-14.583h-78.828v14.248l38.991 38.974c9.64 9.76 16.141 17.54 19.503 23.339 3.515 6.062 5.272 12.334 5.272 18.815 0 7.375-2.064 13.032-6.192 16.971s-10.098 5.909-17.908 5.909c-11.548 0-22.566-4.917-33.054-14.75v0 16.678l1.285 0.964c9.917 7.235 21.372 10.853 34.364 10.853zM732 444v-12h-684v12h684zM146.674 657.27l-1.396-1.723c-17.924-22.486-26.886-48.275-26.886-77.367 0-29.783 9.372-55.843 28.115-78.18v0h-14.308l-1.327 1.521c-17.914 20.899-26.872 46.397-26.872 76.493 0 30.831 9.399 57.249 28.198 79.255v0h14.476zM542.372 657.27l1.331-1.568c17.968-21.534 26.951-47.429 26.951-77.688 0-30.996-9.427-57.001-28.282-78.014v0h-14.392l1.359 1.637c17.893 21.918 26.84 47.433 26.84 76.543 0 29.893-9.455 56.256-28.366 79.090v0h14.559zM210.183 622.771c10.153 0 17.878-3.213 23.178-9.638s7.949-15.788 7.949-28.087v0-55.926h-16.317v52.037l-0.010 1.24c-0.302 17.981-7.243 26.971-20.825 26.971-7.196 0-13.109-2.647-17.739-7.942s-6.945-11.996-6.945-20.103v0-52.203h-16.4v91.499h16.4v-15.14h0.335l0.708 1.133c6.944 10.771 16.832 16.157 29.666 16.157zM486.561 660v-116.898h28.951v-13.981h-74.303v13.981h29.035v97.291l-29.788-8.521v14.891l46.105 13.237zM644.873 622.771c10.153 0 17.878-3.213 23.178-9.638s7.949-15.788 7.949-28.087v0-55.926h-16.317v52.037l-0.010 1.24c-0.302 17.981-7.243 26.971-20.825 26.971-7.196 0-13.109-2.647-17.739-7.942s-6.945-11.996-6.945-20.103v0-52.203h-16.4v91.499h16.4v-15.14h0.335l0.708 1.133c6.944 10.771 16.832 16.157 29.666 16.157zM346.071 624.509v-35.905h36.315v-12.41h-36.315v-35.905h-12.719v35.905h-36.315v12.41h36.315v35.905h12.719z" />
<glyph unicode="&#xe935;" glyph-name="reasoning-12D" d="M390.259 368c11.66 0 20.865-3.157 27.615-9.47s10.126-14.806 10.126-25.478c0-8.046-2.162-15.938-6.485-23.676s-12.51-17.586-24.561-29.543v0l-29.54-28.914v-0.335h59.414v-14.583h-78.828v14.248l38.991 38.974c9.64 9.76 16.141 17.54 19.503 23.339 3.515 6.062 5.272 12.334 5.272 18.815 0 7.375-2.064 13.032-6.192 16.971s-10.098 5.909-17.908 5.909c-11.548 0-22.566-4.917-33.054-14.75v0 16.678l1.285 0.964c9.917 7.235 21.372 10.853 34.364 10.853zM728 444v-12h-680v12h680zM162.414 657.27l-1.388-1.723c-17.815-22.486-26.722-48.275-26.722-77.367 0-29.783 9.314-55.843 27.944-78.18v0h-14.221l-1.319 1.521c-17.805 20.899-26.708 46.397-26.708 76.493 0 30.831 9.342 57.249 28.027 79.255v0h14.388zM555.703 657.27l1.323-1.568c17.858-21.534 26.787-47.429 26.787-77.688 0-30.996-9.37-57.001-28.11-78.014v0h-14.304l1.384 1.678c17.762 21.909 26.643 47.41 26.643 76.502 0 29.893-9.398 56.256-28.193 79.090v0h14.471zM225.537 622.771c10.091 0 17.77-3.213 23.037-9.638s7.901-15.788 7.901-28.087v0-55.926h-16.217v52.037l-0.010 1.24c-0.3 17.981-7.199 26.971-20.698 26.971-7.152 0-13.029-2.647-17.631-7.942s-6.903-11.996-6.903-20.103v0-52.203h-16.3v91.499h16.3v-15.14h0.333l0.703 1.133c6.901 10.771 16.73 16.157 29.485 16.157zM500.231 660v-116.898h28.775v-13.981h-73.851v13.981h28.858v97.291l-29.607-8.521v14.891l45.824 13.237zM360.597 624.509v-35.905h36.094v-12.41h-36.094v-35.905h-12.641v35.905h-36.094v12.41h36.094v35.905h12.641zM631.134 659.007c7.097 0 12.752-1.972 16.966-5.915s6.321-9.169 6.321-15.677c0-8.99-6.154-19.331-18.463-31.024v0l-14.138-13.237v-0.414h34.181v-11.417h-50.315v10.589l22.648 22.103c5.347 5.293 8.803 9.328 10.369 12.106 1.663 2.951 2.495 6.246 2.495 9.886 0 3.364-1.095 6.094-3.285 8.19s-5.115 3.144-8.774 3.144c-6.875 0-13.306-3.033-19.294-9.1v0 13.981l0.886 0.733c5.12 4.034 11.921 6.051 20.404 6.051z" />
<glyph unicode="&#xe936;" glyph-name="surface_1A1" d="M461.6 104.4l72.4 41.6-110.4 191.2 88.4 51.2 88-152.4 70 40.4-88 152.4 86.4 49.6 99.6-172.4 70 40.4-99.6 172.4 102.8 59.6-44.8 78-102.8-59.6-54 93.6c22.8 3.2 45.6 6.8 68.8 10.8l10 2-25.6 88.4c-93.2-20.8-174-26.8-242-18.4-23.6-30.8-46.4-59.6-68.8-86.8 52.4-5.6 106-7.2 161.2-4.4l8.4 0.4 72.4-125.6-86.4-49.6-88.8 154-70.8-41.2 88.8-154-88.4-51.2-126.4 218.8-72-41.2 281.6-488z" />
<glyph unicode="&#xe937;" glyph-name="surface_1A2" d="M158.8 308.4l72.4-41.6 110.4 191.2 88.4-51.2-88-152.4 70-40.4 88 152.4 86.4-49.6-100-172.8 70-40.4 99.6 172.4 102.8-59.6 44.8 78-102.8 59.6 54 93.6c14-18 28.4-36 43.6-54l6.4-7.6 64 66.4c-64.4 70.4-110.4 137.2-137.2 200.4-38.4 4.8-74.8 10.4-109.6 16.4 21.6-48.4 46.8-95.6 76.8-141.6l4.4-6.8-72.8-125.6-86.4 50 88.8 154-70 40.4-88.8-154-88.4 51.2 126.4 218.8-71.6 40.4-281.6-487.6z" />
<glyph unicode="&#xe938;" glyph-name="surface_1A3" d="M220 729.6v-83.6h220.8v-102h-176v-80.8h176v-99.6h-199.2v-80.8h199.2v-118.8h90v118.8h108c-8.8-21.2-17.2-42.8-24.8-64.8l-3.2-9.6 89.2-22c28.8 91.2 64 164 104.8 219.2-14.8 35.6-28.4 70-40.8 103.2-31.2-42.8-59.2-88.4-84.4-137.2l-3.6-7.2h-145.2v99.6h177.6v80h-177.6v102h252.8v83.6h-563.6z" />
<glyph unicode="&#xe939;" glyph-name="surface_1A4" d="M558.8 791.2l-72.4-41.6 110.4-191.2-88.4-51.2-88 152.4-70-40.4 88-152.4-86.4-50-99.6 172.4-70-40.4 99.6-172.4-102.8-59.2 44.8-78 102.8 59.6 54-93.6c-22.8-3.2-45.6-6.8-68.8-10.8l-10-2 25.6-88.4c93.2 20.8 174 26.8 242 18.4 23.6 30.8 46.4 59.6 68.8 86.8-52.4 5.6-106 7.2-161.2 4.4l-8.4-0.4-72.8 125.6 86.4 50 88.8-154 70 40.4-88.8 154 88.4 51.2 126.4-218.8 72.4 41.6-280.8 488z" />
<glyph unicode="&#xe93a;" glyph-name="surface_1A5" d="M869.6 591.2l-72.4 41.6-110.4-191.2-88.4 51.2 88 152.4-70 40.4-88-152.4-86.4 49.6 99.6 172.4-70 40.4-99.6-172.4-102.8 59.6-44.8-78 102.8-59.6-54-93.6c-14 18-28.4 36-43.6 54l-6.4 7.6-64-66.4c64.4-70.4 110.4-137.2 137.2-200.4 38.4-4.8 74.8-10.4 109.6-16.4-21.6 48.4-46.8 95.6-76.8 141.6l-4.4 6.8 72.8 125.6 86.4-50-88.8-154 70-40.4 88.8 154 88.4-51.2-126.4-218.8 72.4-41.6 281.2 489.2z" />
<glyph unicode="&#xe93b;" glyph-name="surface_1B1" d="M558.8 103.6l-72.4 41.6 110.4 191.2-88.4 51.2-88-152.4-70 40.4 88 152.4-86.4 49.6-99.6-172.4-70 40.4 99.6 172.4-102.8 59.6 44.8 78 102.8-59.2 54 93.6c-22.8 3.2-45.6 6.8-68.8 10.8l-10 2 25.6 88.4c93.2-20.8 174-26.8 242-18.4 23.6-30.8 46.4-59.6 68.8-86.8-52.4-5.6-106-7.2-161.2-4.4l-8.4 0.4-72.4-125.6 86.4-50 88.8 154 70-40.4-88.8-154 88.4-51.2 126.4 218.8 72.4-41.6-281.2-488.4z" />
<glyph unicode="&#xe93c;" glyph-name="surface_1B2" d="M359.6 96l-39.2 73.6 194.8 103.6-48 90-155.2-82.4-38 71.6 155.2 82.4-46.8 88-176-93.6-38 71.6 176 93.6-55.6 104.8 79.6 42.4 55.6-104.8 95.2 50.8c-17.6 14.4-35.2 29.6-52.4 45.6l-7.2 6.8 68.4 61.6c68.4-67.2 133.6-115.2 195.6-144 3.6-38.4 7.6-75.2 12.4-110.4-47.6 23.2-93.6 50.4-138.8 81.6l-6.8 4.8-128.4-68 46.8-88 156.8 83.2 38-71.6-156.8-83.2 48-90 223.2 118.4 39.2-73.6-497.6-264.8z" />
<glyph unicode="&#xe93d;" glyph-name="surface_1B3" d="M158.8 591.2l72.4 41.6 110.4-191.2 88.4 51.2-88 152.4 70 40.4 88-152.4 86.4 50-99.6 172.4 70 40.4 99.6-172.4 102.8 59.6 44.8-78-102.8-59.2 54-93.6c14 18 28.4 36 43.6 54l6.4 7.6 64-66.4c-64.4-70.4-110.4-137.2-137.2-200.4-38.4-4.8-74.8-10.4-109.6-16.4 21.6 48.4 46.8 95.6 76.8 141.6l4.4 6.8-72.8 125.6-86.4-50 88.8-154-70-40.4-88.8 154-88-50.4 126.4-218.8-72.4-41.6-281.6 487.6z" />
<glyph unicode="&#xe93e;" glyph-name="surface_1B4" d="M230.4 740h83.2v-220.8h102v176h80.8v-176h99.6v199.2h80.8v-199.2h118.8v-90h-118.8v-108c21.2 8.8 42.8 17.2 64.8 24.8l9.6 3.2 22.4-89.2c-91.2-28.8-164.4-64-219.2-104.8-35.6 14.8-70 28.4-103.2 40.8 42.8 31.2 88.4 59.2 137.2 84.4l7.2 3.6v145.2h-99.6v-177.6h-80.8v177.6h-102v-252.8h-83.2v563.6z" />
<glyph unicode="&#xe93f;" glyph-name="surface_1B5" d="M562.4 811.6l58.8-58.8-156-156 72-72 124.4 124.4 57.2-57.2-124.4-124.4 70.4-70.4 140.8 140.8 57.2-57.2-140.8-140.8 84-84-63.6-63.6-84 84-76.4-76.4c21.2-8.8 42.4-18.4 63.6-28.4l9.2-4.4-47.6-78.8c-84.8 44-161.2 70.8-229.2 80.8-14.8 35.6-29.6 69.6-44 102 52-8.4 104.4-20.8 156.8-37.2l8-2.4 102.8 102.8-70.4 70.4-125.6-125.6-57.2 57.2 125.6 125.6-72 72-178.8-178.8-58.8 58.8 398 397.6z" />
<glyph unicode="&#xe940;" glyph-name="surface_2A1" d="M187.6 392.4l228.8 132c-2-20.8-4.4-42-6.8-63.2l-1.6-12.8 84.4 0.4c0.4 34.8 0.4 71.2-0.8 108l-0.4 11.2 44 25.6 39.2-67.6 69.2 40-39.2 67.6 93.2 53.6-39.2 67.6-93.2-53.6-43.2 74.8-69.2-40 40.8-70.8c-66.4-11.2-131.2-14.4-194.8-10l-6.4 0.4-78-77.6c44.4-2.8 90.8-1.6 139.2 4l6.8 0.8-212.4-122.4 39.6-68zM270.8 255.6l10.8-18.8c20.8-36 37.2-62.8 49.2-81.2 13.6-21.2 31.2-34 52.8-38.8 20.8-4.4 44.4 0.8 70.8 15.6l2.4 1.2 260.8 150.4 32-55.6 68.4 39.6-32 55.6 88.4 51.2-42 72.8-88.4-51.2-86 149.2-68.4-39.6 64.4-111.6c-119.6-8.4-228.8 8.4-327.6 50.4-8-27.6-18.8-56.8-32-87.2 93.6-32 196.4-45.2 308.4-39.6l6 0.4-170.8-98.4c-25.6-14.8-46-8.8-61.6 18-15.6 27.2-29.6 52.8-41.6 77.2-20.4-20.8-41.6-40.8-64-59.6z" />
<glyph unicode="&#xe941;" glyph-name="surface_2A2" d="M308 716.8l228.8-132c-19.2-8.8-38.4-17.2-58.4-25.6l-12-5.2 42.4-72.8c30.4 16.8 61.6 35.2 93.2 54.8l9.6 6 44-25.6-39.2-67.6 69.2-40 39.2 67.6 93.2-53.6 39.2 67.6-93.2 53.6 43.2 74.8-69.2 40-40.8-70.8c-42.8 52-78.4 106.4-106.4 163.6l-2.8 6-106 28.8c19.6-40 44-79.6 72.8-118.8l4-5.2-212.4 122.4-38.4-68zM231.2 576.4l-9.2-15.6c-21.6-37.6-37.2-66-47.6-86-11.6-22.4-14-44.4-7.2-65.2 6.8-20 22.8-38 48.8-53.6l2.4-1.6 260.8-150.4-32-55.6 68.4-39.6 32 55.6 88.4-51.2 42 72.8-88.4 51.2 86 149.2-68.4 39.6-64.4-111.6c-66.8 99.2-106.8 202.4-120 309.2-28-6.8-58.4-12-91.6-15.6 18.8-97.2 58.8-192.8 120-287.2l3.2-5.2-170.8 98.4c-25.6 14.8-30.8 35.6-15.2 62.4 15.6 27.2 30.8 52 46 74.8-28 6.8-55.6 15.2-83.2 25.2z" />
<glyph unicode="&#xe942;" glyph-name="surface_2A3" d="M637.6 744.8v-264.4c-16.8 12-34 24.8-51.6 37.6l-10.4 7.6-42-73.2c30-18 61.2-36 94-53.6l10-5.2v-51.2h-78v-79.6h78v-107.6h78v107.6h86.4v79.6h-81.6c23.6 63.2 53.2 121.2 88.8 174l3.6 5.6-28 106.4c-24.8-36.8-46.8-77.6-66.4-122.4l-2.8-6v245.2h-78zM477.2 741.2h-21.6c-41.6 0-73.2-0.8-94.8-2-25.2-1.2-45.2-10-60-26.4-14-16-21.6-38.8-22-69.2v-303.6h-64.4v-79.2h64.4v-102h84v102h172.4v79.2h-128.8c52.4 107.6 121.6 194 207.6 258.8-20 20.8-39.6 44.4-59.6 71.2-74.8-65.2-137.6-147.6-188.8-247.6l-2.8-5.6v197.2c0 29.6 15.2 44.4 46.4 44.4s60.4-0.8 87.6-2.4c-7.6 28-14.4 56.4-19.6 85.2z" />
<glyph unicode="&#xe943;" glyph-name="surface_2A4" d="M835.2 498.8l-228.8-132c2 20.8 4.4 42 6.8 63.2l1.6 12.8-84.4-0.4c-0.4-34.8-0.4-71.2 0.8-108l0.4-11.2-44-25.6-39.2 67.6-69.2-40 39.2-67.6-93.2-53.6 39.2-67.6 93.2 53.6 43.2-74.8 69.2 40-40.8 70.8c66.4 11.2 131.2 14.4 194.8 10l6.4-0.4 78 77.6c-44.4 2.8-90.8 1.6-139.2-4l-6.8-0.8 212.4 122.4-39.6 68zM752 636l-10.8 18.8c-20.8 36-37.2 62.8-49.2 81.2-13.6 21.2-31.2 34-52.8 38.8-20.8 4.4-44.4-0.8-70.8-15.6l-2.4-1.2-260.8-150.8-32 55.6-68.4-39.6 32-55.6-88.4-51.2 42-72.8 88.4 51.2 86-149.2 68.4 39.6-64.4 111.6c119.6 8.4 228.8-8.4 327.6-50.4 8 27.6 18.8 56.8 32 87.2-93.6 32-196.4 45.2-308.4 39.6l-6-0.4 170.8 98.4c25.6 14.8 46 8.8 61.6-18 15.6-27.2 29.6-52.8 41.6-77.2 20.4 21.2 41.6 40.8 64 60z" />
<glyph unicode="&#xe944;" glyph-name="surface_2A5" d="M713.2 178l-228.8 132c19.2 8.8 38.4 17.2 58.4 25.6l12 5.2-42.4 72.8c-30.4-16.8-61.6-35.2-93.2-54.8l-9.6-6-44 25.6 39.2 67.6-69.2 40-39.2-67.6-93.2 53.6-39.2-67.6 93.2-53.6-43.2-74.8 69.2-40 40.8 70.8c42.8-52 78.4-106.4 106.4-163.6l2.8-6 106-28.8c-19.6 40-44 79.6-72.8 118.8l-4 5.2 212.4-122.4 38.4 68zM790 318.4l9.2 15.6c21.6 37.6 37.2 66 47.6 86 11.6 22.4 14 44.4 7.2 65.2-6.8 20-22.8 38-48.8 53.6l-2.4 1.6-260.8 150.4 32 55.6-68.4 39.6-32-55.6-88.4 51.2-42-72.8 88.4-50.8-86-149.2 68.4-39.6 64.4 111.6c66.8-99.2 106.8-202.4 120-309.2 28 6.8 58.4 12 91.6 15.6-18.8 97.2-58.8 192.8-120 287.2l-3.2 5.2 170.8-98.4c25.6-14.8 30.8-35.6 15.2-62.4-15.6-27.2-30.8-52-46-74.8 28-7.2 55.6-15.6 83.2-25.6z" />
<glyph unicode="&#xe945;" glyph-name="surface_2B1" d="M835.2 392.4l-228.8 132c2-20.8 4.4-42 6.8-63.2l1.6-12.8-84.4 0.4c-0.4 34.8-0.4 71.2 0.8 108l0.4 11.2-44 25.6-39.2-67.6-69.2 40 39.2 67.6-93.2 53.6 39.2 67.6 93.2-53.6 43.2 74.8 69.2-40-40.8-70.8c66.4-11.2 131.2-14.4 194.8-10l6.4 0.4 78-77.6c-44.4-2.8-90.8-1.6-139.2 4l-6.8 0.8 212.4-122.4-39.6-68zM752 255.6l-10.8-18.8c-20.8-36-37.2-62.8-49.2-81.2-13.6-21.2-31.2-34-52.8-38.8-20.8-4.4-44.4 0.8-70.8 15.6l-2.4 1.2-260.8 150.4-32-55.6-68.4 39.6 32 55.6-88.4 51.2 42 72.8 88.4-51.2 86 149.2 68.4-39.6-64.4-111.6c119.6-8.4 228.8 8.4 327.6 50.4 8-27.6 18.8-56.8 32-87.2-93.6-32-196.4-45.2-308.4-39.6l-6 0.4 170.8-98.4c25.6-14.8 46-8.8 61.6 18 15.6 27.2 29.6 52.8 41.6 77.2 20.4-20.8 41.6-40.8 64-59.6z" />
<glyph unicode="&#xe946;" glyph-name="surface_2B2" d="M816.4 319.2l-186.8 186.8c-3.6-20.8-6.8-41.6-10-62.8l-2-12.8-81.6 22c8.4 34 18 68.8 28.8 104.4l3.2 10.8-36 36-55.2-55.2-56.4 56.4 55.2 55.2-76 76 55.2 55.2 76-76 61.2 60.8 56.4-56.4-57.6-57.6c61.2-28 123.2-48 185.6-60.4l6.4-1.2 55.2-95.2c-43.6 8.8-88 22-133.6 39.6l-6.4 2.4 173.2-173.2-54.8-54.8zM700.4 208.4l-17.6-17.6c-28.4-28-50.4-49.2-66-63.2-18.8-16.8-39.2-24.8-60.8-23.6-21.2 1.2-42.8 12.4-64.4 33.2l-214.8 214.8-45.2-45.2-56 56 45.2 45.2-72 72 59.2 60 72-72 121.6 121.6 56-56-91.2-91.2c113.2-38.8 223.2-50.8 329.6-36 0.4-28.8 3.2-59.6 8.4-92.4-98.8-6.8-201.6 7.2-308.4 41.6l-6 2 139.2-139.2c20.8-20.8 42.4-20.4 64 1.2 22 22 42 43.2 60.4 63.6 14.8-26 30-50.8 46.8-74.8z" />
<glyph unicode="&#xe947;" glyph-name="surface_2B3" d="M308 178l228.8 132c-19.2 8.8-38.4 17.2-58.4 25.6l-12 5.2 42.4 72.8c30.4-16.8 61.6-35.2 93.2-54.8l9.6-6 44 25.6-39.2 67.6 69.2 40 39.2-67.6 93.2 53.6 39.2-67.6-93.2-53.6 43.2-74.8-69.2-40-40.8 70.8c-42.8-52-78.4-106.4-106.4-163.6l-2.8-6-106-28.8c19.6 40 44 79.6 72.8 118.8l4 5.2-212.4-122.4-38.4 68zM231.2 318.4l-9.2 15.6c-21.6 37.6-37.2 66-47.6 86-11.6 22.4-14 44.4-7.2 65.2 6.8 20 22.8 38 48.8 53.6l2.4 1.6 260.8 150.8-32 55.6 68.4 39.6 32-55.6 88.4 51.2 42-72.8-88.4-51.2 86-149.2-68.4-39.6-64.4 111.6c-66.8-99.2-106.8-202.4-120-309.2-28 6.8-58.4 12-91.6 15.6 18.8 97.2 58.8 192.8 120 287.2l3.2 5.2-170.8-98.4c-25.6-14.8-30.8-35.6-15.2-62.4 15.6-27.2 30.8-52 46-74.8-28-7.2-55.6-15.6-83.2-25.6z" />
<glyph unicode="&#xe948;" glyph-name="surface_2B4" d="M215.2 322.4h264.4c-12 16.8-24.8 34-37.6 51.6l-7.6 10.4 73.2 42c18-30 36-61.2 53.6-94l5.2-10h51.2v78h79.6v-78h107.6v-78h-107.6v-86.4h-79.6v81.6c-63.2-23.6-121.2-53.2-174-88.8l-5.6-3.6-106 28c36.8 24.8 77.6 46.8 122.4 66.4l6 2.8h-245.2v78zM218.8 482.8v21.6c0 41.6 0.8 73.2 2 94.8 1.2 25.2 10 45.2 26.4 60 16 14 38.8 21.6 69.2 22h304v64h79.2v-64h102v-84h-102v-172h-79.6v128.8c-107.6-52.8-193.6-122-258.4-207.6-20.8 20-44.8 40-71.6 59.6 65.2 74.8 147.6 137.6 247.6 188.8l5.6 2.8h-197.2c-29.6 0-44.4-15.2-44.4-46 0-31.2 0.8-60.4 2.4-87.6-28 6.8-56.4 13.6-85.2 18.8z" />
<glyph unicode="&#xe949;" glyph-name="surface_2B5" d="M203.6 575.6l186.8-186.8c3.6 20.8 6.8 41.6 10 62.8l2 12.8 81.6-22c-8.4-34-18-68.8-28.8-104.4l-3.2-10.8 36-36 55.2 55.2 56.4-56.4-55.2-55.2 76-76-55.2-55.2-76 76-61.2-61.2-56.4 56.4 57.6 57.6c-61.2 28-123.2 48-185.6 60.4l-6.4 1.2-55.2 95.2c43.6-8.8 88-22 133.6-39.6l6.4-2.4-173.2 173.2 54.8 55.2zM319.6 686.4l17.6 17.6c28.4 28 50.4 49.2 66 63.2 18.8 16.8 39.2 24.8 60.8 23.6 21.2-1.2 42.8-12.4 64.4-33.2l214.8-214.8 45.2 45.2 56-56-45.2-45.2 72-72-59.2-59.2-72 72-121.6-121.6-56 56 91.2 91.2c-113.2 38.8-223.2 50.8-329.6 36-0.4 28.8-3.2 59.6-8.4 92.4 98.8 6.8 201.6-7.2 308.4-41.6l6-2-139.2 139.2c-20.8 20.8-42.4 20.4-64-1.2-22-22-42-43.2-60.4-63.6-14.8 25.2-30.4 50-46.8 74z" />
<glyph unicode="&#xe94a;" glyph-name="surface_3A1" d="M239.6 378l432.8 250 61.2-106c6.4-11.2 10.8-22.8 13.2-34.8l0.4-2.8c2-12.8 2-25.2-0.4-36.4-2.4-11.6-6.8-22.4-12.8-32s-14-17.2-24-22.8c-10.4-6-21.2-9.2-32.4-9.6-11.6-0.4-22.8 0.8-34 4.8-11.2 3.6-22 9.6-32 18-9.6 7.6-17.6 17.2-24 28l-1.6 2.4-39.2 67.6-46.4-26.8-146.8-303.2 71.6-34.8 111.2 228.8 0.8-1.2c11.2-13.2 23.6-24.4 38-33.6 17.6-11.6 36.4-19.6 56-24.8 20-5.2 39.6-6.4 60-4s39.6 8.8 58 19.6c19.6 11.2 35.6 26 48.4 44.4 12.8 18 21.2 38 26 59.6s5.2 43.6 2 66.8c-3.2 22-10.4 42.8-21.6 63.2l-1.6 3.2-112 194-68.8-39.6 10.8-18.4-432.8-250 40-69.6z" />
<glyph unicode="&#xe94b;" glyph-name="surface_3A2" d="M293.6 655.2l432.8-250-61.2-106c-6.4-11.2-14.4-20.8-23.6-28.8l-2-1.6c-10-8.4-20.8-14.4-32-18s-22.4-5.2-34-4.8c-11.2 0.4-22 3.6-31.6 9.2-10.4 6-18.4 13.6-24.8 23.2s-10.8 20.4-12.8 32c-2.4 11.6-2.4 23.6-0.4 36.8 2 12 6 23.6 12.4 34.8l1.2 2.4 39.2 67.6-46.4 26.8-336-24.4 5.6-79.6 253.6 18-0.4-1.2c-6-16.4-9.2-32.8-10-49.6-1.2-21.2 1.2-41.2 6.8-60.8s14.4-37.6 26.4-54c12-16.4 27.6-30 46-40.4 19.6-11.2 40.4-17.6 62.4-19.6s43.6 0.4 64.8 7.2c20.8 6.8 40.4 17.2 58.8 31.6 17.2 13.6 32 30.4 44 50.4l2 3.2 112 194-68.8 39.6-10.8-18.4-432.8 250-40.4-69.6z" />
<glyph unicode="&#xe94c;" glyph-name="surface_3A3" d="M613.6 736.8v-499.6h-122.4c-12.8 0-25.2 2-36.8 6l-2.4 0.8c-12 4.4-22.8 10.8-31.6 18.4-8.8 8-16 16.8-21.2 27.2-5.2 10-7.6 20.8-7.6 32 0 12 2.4 22.8 7.6 32.8 5.2 10.4 12.4 19.6 21.2 27.2 8.8 8 19.2 14 31.6 18.8 11.6 4.4 23.6 6.4 36.4 6.8h80.8v53.6l-188.8 279.2-66-44.8 142.4-210.8-1.2-0.4c-17.2-3.2-32.8-8.4-48-16-18.8-9.6-35.2-21.6-49.6-36.4s-25.6-31.2-33.6-50c-8-18.8-12-38.8-12-60 0-22.4 4.8-43.6 14.4-64 9.6-20 22.4-37.6 38.8-52.4s35.2-26.4 56.8-35.2c20.4-8 42.4-12.4 65.6-12.8h227.6v79.2h-21.2v499.6h-80.8z" />
<glyph unicode="&#xe94d;" glyph-name="surface_3A4" d="M788 516.8l-432.8-250-61.2 106c-6.4 11.2-10.8 22.8-13.2 34.8l-0.4 2.8c-2 12.8-2 25.2 0.4 36.4 2.4 11.6 6.8 22.4 12.8 32s14 17.2 24 22.8c10.4 6 21.2 9.2 32.4 9.6 11.6 0.4 22.8-0.8 34-4.8 11.2-3.6 22-9.6 32-18 9.6-7.6 17.6-17.2 24-28l1.6-2.4 39.2-67.6 46.4 26.8 146.8 303.2-71.6 34.8-111.2-228.8-0.8 1.2c-11.2 13.2-23.6 24.4-38 33.6-17.6 11.6-36.4 19.6-56 24.8-20 5.2-39.6 6.4-60 4s-39.6-8.8-58-19.6c-19.6-11.2-35.6-26-48.4-44.4-12.8-18-21.2-38-26-59.6s-5.2-43.6-2-66.8c3.2-22 10.4-42.8 21.6-63.2l1.6-3.2 112-194 68.8 39.6-10.8 18.4 432.8 250-40 69.6z" />
<glyph unicode="&#xe94e;" glyph-name="surface_3A5" d="M726 235.6l-432.8 250 61.2 106c6.4 11.2 14.4 20.8 23.6 28.8l2 1.6c10 8.4 20.8 14.4 32 18s22.4 5.2 34 4.8c11.2-0.4 22-3.6 31.6-9.2 10.4-6 18.4-13.6 24.8-23.2s10.8-20.4 12.8-32c2.4-11.6 2.4-23.6 0.4-36.8-2-12-6-23.6-12.4-34.8l-1.2-2.4-39.2-67.6 46.4-26.8 336 24.4-5.6 79.6-253.6-18 0.4 1.2c6 16.4 9.2 32.8 10 49.6 1.2 21.2-1.2 41.2-6.8 60.8s-14.4 37.6-26.4 54c-12 16.4-27.6 30-46 40.4-19.6 11.2-40.4 17.6-62.4 19.6s-43.6-0.4-64.8-7.2c-20.8-6.8-40.4-17.2-58.8-31.6-17.2-13.6-32-30.4-44-50.4l-2-3.2-112-194 68.8-39.6 10.8 18.4 432.8-250 40.4 69.6z" />
<glyph unicode="&#xe94f;" glyph-name="surface_3B1" d="M799.2 546.4h-499.6v-122.4c0-12.8 2-25.2 6-36.8l0.8-2.4c4.4-12 10.8-22.8 18.4-31.6 8-8.8 16.8-16 27.2-21.2 10-5.2 20.8-7.6 32-7.6 12 0 22.8 2.4 32.8 7.6 10.4 5.2 19.6 12.4 27.2 21.2 8 8.8 14 19.2 18.8 31.6 4.4 11.6 6.4 23.6 6.8 36.4v80.8h53.6l278.8-189.2-44.8-66-210.8 142.4-0.4-1.2c-3.2-17.2-8.4-32.8-16-48-9.6-18.8-21.6-35.2-36.4-49.6s-31.2-25.6-50-33.6c-18.8-8-38.8-12-60-12-22.4 0-43.6 4.8-64 14.4-20 9.6-37.6 22.4-52.4 38.8s-26.4 35.2-35.2 56.8c-8 20.4-12.4 42.4-12.8 65.6v227.6h79.2v-21.2h499.6v-80.4z" />
<glyph unicode="&#xe950;" glyph-name="surface_3B2" d="M761.6 299.6l-353.2 353.2-86.8-86.8c-9.2-9.2-16.4-19.2-21.6-30l-1.2-2.4c-5.2-12-8.4-23.6-9.2-35.6-0.8-11.6 0.8-23.2 4.4-34.4 3.6-10.8 9.2-20 17.2-28.4 8.4-8.4 18-14.4 28.8-18 11.2-3.6 22.4-4.8 34.4-4.4 11.6 0.8 23.6 3.6 35.6 9.2 11.2 5.2 21.2 12 30.4 20.8l57.2 57.2 38-38 63.2-330.8-78.4-15.2-48.4 249.6-1.2-0.8c-14-10-29.2-17.2-45.2-22.4-20-6.4-40.4-9.6-60.8-9.2s-40 4-58.8 11.6c-18.8 7.6-36 18.8-50.8 34-16 16-27.6 34.4-35.2 55.2s-10.8 42.4-9.6 64.4c1.2 22 6 43.6 15.2 64.8 8.8 20.4 21.2 38.8 37.2 55.2l160.8 160.8 56-56-15.2-15.2 353.2-353.2-56-55.2z" />
<glyph unicode="&#xe951;" glyph-name="surface_3B3" d="M293.6 235.6l432.8 250-61.2 106c-6.4 11.2-14.4 20.8-23.6 28.8l-2 1.6c-10 8.4-20.8 14.4-32 18s-22.4 5.2-34 4.8c-11.2-0.4-22-3.6-31.6-9.2-10.4-6-18.4-13.6-24.8-23.2s-10.8-20.4-12.8-32c-2.4-11.6-2.4-23.6-0.4-36.8 2-12 6-23.6 12.4-34.8l1.2-2.4 39.2-67.6-46.4-26.8-336 24.4 5.6 79.6 253.6-18-0.4 1.2c-6 16.4-9.2 32.8-10 49.6-1.2 21.2 1.2 41.2 6.8 60.8s14.4 37.6 26.4 54c12 16.4 27.6 30 46 40.4 19.6 11.2 40.4 17.6 62.4 19.6s43.6-0.4 64.8-7.2c20.8-6.8 40.4-17.2 58.8-31.6 17.2-13.6 32-30.4 44-50.4l2-3.2 112-194-68.8-39.6-10.8 18.4-432.8-250-40.4 69.6z" />
<glyph unicode="&#xe952;" glyph-name="surface_3B4" d="M223.2 346.4h499.6v122.4c0 12.8-2 25.2-6 36.8l-0.8 2.4c-4.4 12-10.8 22.8-18.4 31.6-8 8.8-16.8 16-27.2 21.2-10 5.2-20.8 7.6-32 7.6-12 0-22.8-2.4-32.8-7.6-10.4-5.2-19.6-12.4-27.2-21.2-8-8.8-14-19.2-18.8-31.6-4.4-11.6-6.4-23.6-6.8-36.4v-80.8h-53.6l-278.8 189.2 44.8 66 210.8-142.4 0.4 1.2c3.2 17.2 8.4 32.8 16 48 9.6 18.8 21.6 35.2 36.4 49.6s31.2 25.6 50 33.6 38.8 12 60 12c22.4 0 43.6-4.8 64-14.4 20-9.6 37.6-22.4 52.4-38.8s26.4-35.2 35.2-56.8c8-20.4 12.4-42.4 12.8-65.6v-227.6h-79.2v21.2h-499.6v80.4h-1.2z" />
<glyph unicode="&#xe953;" glyph-name="surface_3B5" d="M266.4 598.4l353.2-353.2 86.8 86.8c9.2 9.2 16.4 19.2 21.6 30l1.2 2.4c5.2 12 8.4 23.6 9.2 35.6 0.8 11.6-0.8 23.2-4.4 34.4-3.6 10.8-9.2 20-17.2 28.4-8.4 8.4-18 14.4-28.8 18-11.2 3.6-22.4 4.8-34.4 4.4-11.6-0.8-23.6-3.6-35.6-9.2-11.2-5.2-21.2-12-30.4-20.8l-57.2-57.2-38 38-63.2 330.8 78.4 15.2 48.4-249.6 1.2 0.8c14 10 29.2 17.2 45.2 22.4 20 6.4 40.4 9.6 60.8 9.2s40-4 58.8-11.6c18.8-7.6 36-18.8 50.8-34 16-16 27.6-34.4 35.2-55.2s10.8-42.4 9.6-64.4c-1.2-22-6-43.6-15.2-64.8-8.8-20.4-21.2-38.8-37.2-55.2l-160.8-160.8-56 56 15.2 15.2-353.2 353.2 56 55.2z" />
<glyph unicode="&#xe954;" glyph-name="surface_4A1" d="M702.4 739.2l12.4 31.2-42.4-21.6-9.6-5.2c-3.6-2-6-3.2-7.6-4l-2-1.2c-38-22.8-41.2-62-12.8-112.4l2-3.6c4-6.8 11.2-18.4 22-35.2l17.6-27.6 22-33.2c6.4-10 13.6-20.8 21.6-32.4l24.4-36.8-16.8 4-19.6 4.8-10 2.4c-35.6 8.8-70 17.2-102.8 24.8l-13.6 3.2 2.8-4.4c-24.8 40-46.8 81.2-66.8 123.2-1.6 3.2-4 6-6.8 8.4-10 7.6-24 5.6-31.6-4.4l-1.2-1.6c-21.2-28.8-23.2-58.4-6-86.4l7.2-11.6-17.6 3.6c-94.8 20-176.8 34.4-246.8 43.2l-12 1.6-8.8-2.8-3.6-1.2c-15.2-4.8-24.8-8.4-29.2-11.2-20.4-11.6-23.6-32-10.8-54.8l1.2-2 14.4-19.6 6.8-10 4.4-6c14.8-20.4 28.4-41.6 41.2-63.6 32.8-56.8 56-104 69.2-142 13.2-37.2 19.2-72.4 18.8-106l-0.4-20 18.4 8c10 4.4 17.2 8 22 10.4l2.8 1.6c31.6 18.8 47.6 40.8 45.6 66.4-3.6 42.8-32 110.4-85.6 204.4l-4 6.8-4.8 8c-6.4 10.8-12.8 21.6-20 32.8l-6 9.2 8.8-1.2c38.4-6 95.2-16.8 170.4-31.6l82-16.8 4-6.4 3.2-5.2c12.4-18.4 22.8-32.8 31.2-43.2l2.8-3.2 3.2-3.6c25.2-28 40.8-37.2 62-38h2c13.2-0.4 28.8 2.8 46.8 8.8l21.2 6.8-16.4 14.8-5.2 4.8c-13.6 12.4-26 25.2-38.4 38l-1.2 1.6 14.8-3.2 19.2-4.4c19.6-4.4 36.4-8.8 50.4-12.4l8.8-2.4c21.6-5.6 38-8 50.4-6.8 12 1.2 29.6 6.4 54 15.6l21.6 8.4-12 13.6c-27.2 31.2-57.2 74.8-89.6 130.8l-32 56c-37.2 68-50 115.2-39.6 142z" />
<glyph unicode="&#xe955;" glyph-name="surface_4A2" d="M856.8 419.6l33.2 5.2-48 31.2c-4 2.4-6.8 4.4-8.8 5.2l-2 1.2c-38.8 21.2-74.4 4.8-103.6-44.8l-1.2-2c-4-6.8-10.4-19.2-20.4-38l-14.8-28.8-18-35.6c-5.2-10.8-11.2-22.4-17.2-34.8l-19.6-39.6-10.4 36.4-2.8 9.6-6 20.8c-8 27.6-16 54.8-24 80.8l-4 13.6-2.4-4.8c22.4 41.6 46.8 81.2 73.2 119.2 2 2.8 3.2 6.4 4 10 1.6 12.4-7.2 23.6-19.6 25.2l-2 0.4c-35.6 4-62.4-8.8-78-38l-6.4-12-5.6 16.8c-30 92-58.8 170.4-86 235.2l-4.8 10.8-6.8 6-4.4 4c-11.2 10-18.4 16-22.8 18.4-20.4 11.6-39.6 4.4-52.8-18l-1.2-2-9.6-22-5.2-10.8-2.8-6.4c-10-22.8-21.6-45.2-34.4-67.6-32.8-56.8-62.4-100.4-88.4-130.8-25.6-30-53.2-53.2-82.4-69.2l-17.6-9.6 16.4-12 4.8-3.6c6.8-4.8 12.4-8.4 16-10.8l2-1.2c32-18 59.2-20.8 80.4-6 35.6 24.4 79.6 83.2 134 176.4l4 6.8 4.8 8c6 10.8 12.4 22 18.4 33.6l5.2 10 3.2-8.4c14-36.4 33.2-90.8 58-163.6l12-36 8.4-24.8 6-18.8-3.6-6.8-2.8-5.6c-10-20-17.2-36-21.6-48.8l-1.2-4-3.2-8.8c-10.4-32.8-10-50.4-0.4-68.4l0.8-1.6c6.4-11.6 16.8-23.6 30.8-36.4l16.4-14.8 4.4 21.6 1.6 6.8c4 17.6 8.4 35.2 14 52l0.8 2 4.4-14.4c8.4-27.2 15.2-50 20.4-68.4l2.4-8.8c6-21.2 12.4-36.8 19.2-47.2 6.8-9.6 20.4-22.4 40.4-38.8l18-14.4 6 17.2c13.6 39.2 36.4 86.8 68.4 143.2l4.8 8.4 24.4 42 3.2 5.6c39.2 64.8 74 99.6 102.4 103.6z" />
<glyph unicode="&#xe956;" glyph-name="surface_4A3" d="M648.4 137.2l21.2-26.4 2.4 47.6 0.4 9.6c0 4 0.4 7.2 0.4 9.6v2.8c-0.8 44-33.2 66.8-90.8 67.2h-4c-8 0-21.6-0.4-41.2-1.2l-32.4-1.6-122.8-7.6 12 12.8 14 14.4 7.2 7.2 15.2 15.6c17.6 18.4 34.4 36 50.8 53.6l16.4 17.6h-5.2c47.2 1.6 93.6 0 140-3.6 3.6-0.4 7.2 0.4 10.4 1.6 11.6 4.8 16.8 18 12 29.6l-0.8 2c-14.4 32.8-38.8 49.2-72 48.4l-14-0.4 2.8 3.2c68.8 76.4 125.2 143.6 169.6 202l7.2 9.6 2 8.8 1.6 7.6c2.8 13.6 4 22.4 4 27.2 0 23.2-16 36.4-42 36.8h-2.4l-36-3.6-7.2-0.8c-24.8-2.4-50-4-75.6-4h-9.2c-61.2 0.4-110.8 4-148.4 10.8-38.8 7.2-72.4 19.6-101.2 36.8l-17.2 10.4-2-20c-1.2-11.6-2-20-2-25.6v-2c0.4-36.4 11.6-61.6 34.8-72.8 39.2-18.4 112-27.6 219.6-28h16.8c12.4 0 25.2 0.4 38 0.8l11.2 0.4-5.6-6.8c-24.4-30-62-74-112.8-132l-25.2-28.4-17.2-19.6-13.2-14.8-7.6-0.4-6-0.4c-22-1.2-40-3.2-52.8-5.6l-4-0.8-8.8-1.6c-33.6-7.6-48.8-16.4-59.6-33.6l-0.8-1.6c-6.8-11.2-12-26.4-16-44.8l-4.4-21.6 21.2 6.8 6.4 2c17.2 5.6 34.8 10 52 14l2 0.4-10.4-11.2-8-8.8c-14.8-16-28-29.6-39.2-41.2l-8.4-8.4c-15.6-15.6-26-29.2-31.2-40.4-5.2-10.8-9.2-28.8-13.2-54.4l-3.6-23.2 18 3.6c41.6 8 96 12 163.2 12.4h53.2c80.4-0.4 130-13.2 148.4-36z" />
<glyph unicode="&#xe957;" glyph-name="surface_4A4" d="M322 160.8l-12.4-31.2 42.4 21.6 9.6 5.2c3.6 2 6 3.2 7.6 4l2 1.2c38 22.8 41.2 62 12.8 112.4l-2 3.6c-4 6.8-11.2 18.4-22 35.2l-17.6 27.6-22 33.2-21.6 32.4-24.4 36.8 16.8-4 19.6-4.8 10-2.4c35.6-8.8 70-17.2 102.8-24.8l13.6-3.2-2.8 4.4c24.8-40 46.8-81.2 66.8-123.2 1.6-3.2 4-6 6.8-8.4 10-7.6 24-5.6 31.6 4.4l1.2 1.6c21.2 28.8 23.2 58.4 6 86.4l-7.2 11.6 17.6-3.6c94.8-20 176.8-34.4 246.8-43.2l12-1.6 8.8 2.8 5.6 1.6c14 4.8 23.2 8 27.6 10.4 20.4 11.6 23.6 32 10.8 54.8l-1.2 2-14.4 19.6-6.8 10-4.4 6c-14.8 20.4-28.4 41.6-41.2 63.6-32.8 56.8-56 104-69.2 142-13.2 37.2-19.2 72.4-18.8 106l0.4 20-18.4-8c-10-4.4-17.2-8-22-10.4l-2.8-1.6c-31.6-18.8-47.6-40.8-45.6-66.4 3.6-42.8 32-110.4 85.6-204.4l4-6.8 4.8-8c6.4-10.8 12.8-21.6 20-32.8l6-9.2-8.8 1.2c-38.4 6-95.2 16.8-170.4 31.6l-82 16.8-4 6.4-3.2 5.2c-12.4 18.4-22.8 32.8-31.2 43.2l-2.8 3.2-3.2 3.6c-25.2 28-40.8 37.2-62 38h-2c-13.2 0.4-28.8-2.8-46.8-8.8l-21.2-6.8 16.4-14.8 5.2-4.8c13.6-12.4 26-25.2 38.4-38l1.2-1.6-14.8 3.2-15.2 3.6c-21.2 4.8-39.2 9.2-54 13.2l-8.8 2.4c-21.6 5.6-38 8-50.4 6.8-12-1.2-29.6-6.4-54-15.6l-21.6-8.4 12-13.6c27.2-31.2 57.2-74.8 89.6-130.8l32-56c36.4-67.6 49.2-114.8 38.8-141.6z" />
<glyph unicode="&#xe958;" glyph-name="surface_4A5" d="M166.4 475.6l-33.2-5.2 46.8-30.4c4.4-2.8 7.6-4.8 9.6-6l2-1.2c38.8-21.2 74.4-4.8 103.6 44.8l1.2 2c4 6.8 10.4 19.2 20.4 38l14.8 28.8 18 35.6c5.2 10.8 11.2 22.4 17.2 34.8l19.6 39.6 10.4-36.4 2.8-9.6 6-20.8c8-27.6 16-54.8 24-80.8l4-13.6 2.4 4.8c-22.4-41.6-46.8-81.2-73.2-119.2-2-2.8-3.2-6.4-4-10-1.6-12.4 7.2-23.6 19.6-25.2l2-0.4c35.6-4 62.4 8.8 78 38l6.4 12 1.2-4 4.4-12.8c30-92 58.8-170.4 86-235.2l4.8-10.8 6.8-6 4.4-4c11.2-10 18.4-16 22.8-18.4 20.4-11.6 39.6-4.4 52.8 18l1.2 2 9.6 22 5.2 10.8 2.8 6.4c10 22.8 21.6 45.2 34.4 67.6l4.4 8c30.8 53.2 58.8 94 83.6 123.2 25.6 30 53.2 53.2 82.4 69.2l17.6 9.6-16.4 12-4.8 3.6c-6.8 4.8-12.4 8.4-16 10.8l-2 1.2c-32 18-59.2 20.8-80.4 6-35.6-24.4-79.6-83.2-134-176.4l-4-6.8-4.8-8c-6-10.8-12.4-22-18.4-33.6l-5.2-10-3.2 8.4c-14 36.4-33.2 90.8-58 163.6l-12 36-8.4 24.8-6 18.8 3.6 6.8 2.8 5.6c10 20 17.2 36 21.6 48.8l1.2 4 1.6 4.4c11.6 35.6 12 54 2 72.8l-0.8 1.6c-6.4 11.6-16.8 23.6-30.8 36.4l-16.4 14.8-4.4-21.6-1.6-6.8c-4-17.6-8.4-35.2-14-52l-0.8-2-4.4 14.4c-8.4 27.2-15.2 50-20.4 68.4l-2.4 8.8c-6 21.2-12.4 36.8-19.2 47.2-6.8 9.6-20.4 22.4-40.4 38.8l-18 14.4-6-17.2c-13.6-39.2-36.4-86.8-68.4-143.2l-4.8-8.4-24.4-42-3.2-5.6c-38.4-65.2-73.2-100-101.6-104z" />
<glyph unicode="&#xe959;" glyph-name="surface_4B1" d="M856.8 475.6l33.2-5.2-48-31.2c-4-2.4-6.8-4.4-8.8-5.2l-2-1.2c-38.8-21.2-74.4-4.8-103.6 44.8l-1.2 2c-4 6.8-10.4 19.2-20.4 38l-14.8 28.8-18 35.6c-5.2 10.8-11.2 22.4-17.2 34.8l-19.6 39.6-10.4-36.4-2.8-9.6-6-20.8c-8-27.6-16-54.8-24-80.8l-4-13.6-2.4 4.8c22.4-41.6 46.8-81.2 73.2-119.2 2-2.8 3.2-6.4 4-10 1.6-12.4-7.2-23.6-19.6-25.2l-2-0.4c-35.6-4-62.4 8.8-78 38l-6.4 12-5.6-16.8c-30-92-58.8-170.4-86-235.2l-4.8-10.8-6.8-6-4.4-4c-11.2-10-18.4-16-22.8-18.4-20.4-11.6-39.6-4.4-52.8 18l-1.2 2-9.6 22-5.2 10.8-2.8 6.4c-10 22.8-21.6 45.2-34.4 67.6-32.8 56.8-62.4 100.4-88.4 130.8-25.6 30-53.2 53.2-82.4 69.2l-17.6 9.6 16.4 12 4.8 3.6c6.8 4.8 12.4 8.4 16 10.8l2 1.2c32 18 59.2 20.8 80.4 6 35.6-24.4 79.6-83.2 134-176.4l4-6.8 4.8-8c6-10.8 12.4-22 18.4-33.6l5.2-10 3.2 8.4c14 36.4 33.2 90.8 58 163.6l12 36 8.4 24.8 6 18.8-3.6 6.8-2.8 5.6c-10 20-17.2 36-21.6 48.8l-1.2 4-3.2 8.8c-10.4 32.8-10 50.4-0.4 68.4l0.8 1.6c6.4 11.6 16.8 23.6 30.8 36.4l16.4 14.8 4.4-21.6 1.6-6.8c4-17.6 8.4-35.2 14-52l0.8-2 4.4 14.4c8.4 27.2 15.2 50 20.4 68.4l2.4 8.8c6 21.2 12.4 36.8 19.2 47.2 6.8 9.6 20.4 22.4 40.4 38.8l18 14.4 6-17.2c13.6-39.2 36.4-86.8 68.4-143.2l4.8-8.4 24.4-42 3.2-5.6c39.2-64.8 74-99.6 102.4-103.6z" />
<glyph unicode="&#xe95a;" glyph-name="surface_4B2" d="M399.2 778l-3.6 33.6 35.6-32 7.2-6.4c3.2-2.8 5.2-4.8 6.8-6.4l2-2c30.8-32 23.6-70.8-16.4-111.6l-3.6-3.6c-5.6-5.6-14.8-14-27.6-26l-25.6-23.6-58.8-52.4-33.2-29.2 17.2-0.4 20.4-0.4h10l22-0.4c28.8-0.8 56.8-1.2 84-2.4l14-0.4-4-3.6c34.4 32.4 66.4 66 96.4 101.6 2.4 2.8 5.2 4.8 8.8 6.4 11.6 4.8 24.8-0.8 29.2-12.4l0.8-2c13.2-33.2 7.6-62.4-16.8-85.2l-10-9.6 4.4-0.4c102.4-5.2 190-12.8 262.8-22.8l12-1.6 7.6-4.8c15.2-10 24.4-16.4 28.8-20.4 16.4-16.4 14.4-37.2-3.6-56l-1.6-1.6-18.8-15.2-9.2-7.6-5.6-4.4c-19.2-15.6-38-32.8-56.4-50.8l-6.4-6.4c-43.2-43.6-75.6-81.2-97.2-112.8-22.4-32.4-37.6-65.2-45.6-97.6l-4.8-19.6-15.6 12.4c-8.8 7.2-15.2 12.8-19.2 16.8l-1.6 1.6c-25.6 26-35.2 51.6-26.8 76 14.4 40.8 59.6 98.4 135.6 175.2l12.4 12.4c8.8 8.8 18 17.6 27.6 26.4l8 7.6-13.2 1.6c-38.4 4-94.8 8.4-168.4 13.2l-83.2 5.2-5.6-5.2-6.8-6c-15.6-13.6-28.8-24.4-39.2-31.6l-3.2-2.4-4-2.4c-31.6-20.4-49.2-25.6-70-20.8l-2 0.4c-12.8 3.2-27.2 10-42.8 20.4l-18.4 12 19.6 10 6 3.2c16 8.4 31.6 17.6 46.8 26.8l1.6 1.2-15.2 0.8c-28.4 1.2-52 1.6-71.6 2h-9.2c-22 0-38.8 2.4-50.4 6.4-11.2 4-26.8 13.6-48 29.2l-18.8 13.6 15.2 10c35.2 24 76.4 59.2 124 106.4l37.6 37.6c54.8 57.2 80.8 101.2 77.6 130.4z" />
<glyph unicode="&#xe95b;" glyph-name="surface_4B3" d="M373.2 137.2l-21.2-26.4-2.4 47.6-0.4 9.6c0 4-0.4 7.2-0.4 9.6v2.8c0.8 44 33.2 66.8 90.8 67.2h4c8 0 21.6-0.4 41.2-1.2l32.4-1.6 122.8-7.6-12 12.8-14 14.4-7.2 7.2-15.2 15.6c-22.4 23.6-44 46.4-64.8 68.4l-2.8 2.8h5.2c-47.2 1.6-93.6 0-140-3.6-3.6-0.4-7.2 0.4-10.4 1.6-11.6 4.8-16.8 18-12 29.6l0.8 2c14.4 32.8 38.8 49.2 72 48.4l14-0.4-2.8 3.2c-68.8 76.4-125.2 143.6-169.6 202l-7.2 9.6-2 8.8-1.6 7.6c-2.8 13.6-4 22.4-4 27.2 0 23.2 16 36.4 42 36.8h2.4l36-3.6 7.2-0.8c24.8-2.4 50-4 75.6-4h9.2c61.2 0.4 110.8 4 148.4 10.8 38.8 7.2 72.4 19.6 101.2 36.8l17.2 10.4 2-20c1.2-11.6 2-20 2-25.6v-2c-0.4-36.4-11.6-61.6-34.8-72.8-39.2-18.4-112-27.6-219.6-28h-16.8c-12.4 0-25.2 0.4-38 0.8l-11.2 0.4 5.6-6.8c24.4-30 62-74 112.8-132l25.2-28.4 17.2-19.6 13.2-14.8 7.6-0.4 6-0.4c22-1.2 40-3.2 52.8-5.6l4-0.8 8.8-1.6c33.6-7.6 48.8-16.4 59.6-33.6l0.8-1.6c6.8-11.2 12-26.4 16-44.8l4.4-21.6-21.2 6.8-6.4 2c-17.2 5.6-34.8 10-52 14l-2 0.4 10.4-11.2 8-8.8c14.8-16 28-29.6 39.2-41.2l8.4-8.4c15.6-15.6 26-29.2 31.2-40.4 5.2-10.8 9.2-28.8 13.2-54.4l3.6-23.2-18 3.6c-41.6 8-96 12-163.2 12.4h-53.2c-80.4-0.4-129.6-13.2-148-36z" />
<glyph unicode="&#xe95c;" glyph-name="surface_4B4" d="M169.6 493.2l-31.2 12.4 44.8 16.4c8.4 3.2 14.4 5.2 18 6.4l2.8 0.8c42.4 12 73.6-12.4 90.8-67.2l0.8-2c2.4-7.2 6-21.2 11.2-41.6l8-31.6 9.2-38.8c2.8-11.6 5.6-24.4 9.2-38l10-42.8 8.8 15.2 10 17.6 4.8 8.8 10.8 19.2c16 28.4 31.2 55.6 46.4 82l2 3.2 1.6-5.2c-12.4 45.2-27.2 89.6-44.4 132.8-1.2 3.2-2 6.8-1.6 10.4 1.2 12.4 12.4 21.2 24.4 20l2-0.4c34.8-4 57.6-22 66.8-52.8l4-15.2 2 3.6c52.8 88 100.8 161.6 143.6 221.6l6.8 9.6 8 4.4c16 8.8 26 14 31.6 15.6 22.4 6.8 39.6-4.8 47.6-29.6l0.8-2 4.4-23.6 2.4-11.6 1.2-7.2c4.8-24.4 10.8-49.2 18.4-73.6l2.8-8.8c18.4-58.8 36.4-104.8 54-138.8 18-34.8 40-63.6 64.8-86l14.8-13.2-18.4-8c-10.4-4.4-18.4-7.6-24-9.2l-2-0.8c-35.2-10.4-62.4-6.8-79.6 12-29.2 32-58.8 98.8-90.8 202l-2.4 7.6-2.8 8.8c-3.6 12-7.2 24.4-10.4 36.8l-2.8 10.8-5.2-7.6c-21.6-32.4-52.8-81.2-93.2-146.4l-20-32.4-13.6-22.4-10.4-16.8 2-7.2 2-8.8c4.8-20.4 8-36.8 9.6-49.2l0.4-4 0.4-4.4c3.2-37.6-0.4-55.2-14.4-71.2l-1.2-1.6c-8.8-10-21.6-19.2-38.4-28.4l-19.2-10.8 0.4 22v6.8c0 18.4-0.4 36.4-2 54v2l-7.6-13.2-8-13.6c-10.8-18.8-20-34.8-27.2-48.8l-4.4-8c-10.4-19.6-20.4-33.2-29.6-41.6-8.8-8-24.8-17.2-48.4-28.8l-20.8-10-2 18c-4.4 42.4-16.4 95.6-36 159.6l-15.6 50.8c-22.8 77.6-49.6 121.2-76.8 132z" />
<glyph unicode="&#xe95d;" glyph-name="surface_4B5" d="M624 121.2l3.6-33.6-35.6 32c-7.2 6.4-12 10.8-14.4 13.2l-1.6 1.6c-30.8 32-23.6 70.8 16.4 111.6l1.6 1.6c5.6 5.6 16 15.2 31.6 29.6l24 22 29.6 26.4c8.8 8 18.8 16.4 29.2 26l33.2 29.2-17.2 0.4-20.4 0.4h-10l-22 0.4c-28.8 0.8-56.8 1.2-84 2.4l-14 0.4 4 3.6c-34.4-32.4-66.4-66-96.4-101.6-2.4-2.8-5.2-4.8-8.8-6.4-11.6-4.8-24.8 0.8-29.2 12.4l-0.8 2c-13.2 33.2-7.6 62.4 16.8 85.2l10 9.6-4.4 0.4c-102.4 5.2-190 12.8-262.8 22.8l-12 1.6-7.6 4.8c-15.2 10-24.4 16.4-28.8 20.4-16.4 16.4-14.4 37.2 3.6 56l1.6 1.6 18.8 15.2 9.2 7.6 5.6 4.4c19.2 15.6 38 32.8 56.4 50.8l6.4 6.4c43.2 43.6 75.6 81.2 97.2 112.8 22.4 32.4 37.6 65.2 45.6 97.6l4.8 19.6 15.6-12.4c8.8-7.2 15.2-12.8 19.2-16.8l1.6-1.6c25.6-26 35.2-51.6 26.8-76-14.4-40-58.4-97.2-132.8-172l-15.2-15.2c-8.8-8.8-18-17.6-27.6-26.4l-8-7.6 13.2-1.6c38.4-4 94.8-8.4 168.4-13.2l83.2-5.2 5.6 5.2 6.8 6c15.6 13.6 28.8 24.4 39.2 31.6l3.2 2.4 4 2.4c31.6 20.4 49.2 25.6 70 20.8l2-0.4c12.8-3.2 27.2-10 42.8-20.4l18.4-12-19.6-10-6-3.2c-16-8.4-31.6-17.6-46.8-26.8l-1.6-1.2 15.2-0.8c28.4-1.2 52-1.6 71.6-2h9.2c22 0 38.8-2.4 50.4-6.4 11.2-4 26.8-13.6 48-29.2l18.8-13.6-15.2-10c-35.2-24-76.4-59.2-124-106.4l-37.6-37.6-4.4-4.8c-52.4-54.8-76.8-97.6-73.6-126z" />
<glyph unicode="&#xe95e;" glyph-name="surface_5A1" d="M778 539.6l-43.2 74.8-449.6 30.4-42.8-24.8 132-228-127.2-73.2 37.2-64.4 127.2 73.2 36-62.4 53.2 30.8-36 62.4 313.2 181.2zM427.2 422.8l-91.2 158.4 300-19.6c15.2 0.4 27.6 0.8 36.8 2-12.4-6.4-23.6-12.4-33.6-18.4l-212-122.4z" />
<glyph unicode="&#xe95f;" glyph-name="surface_5A2" d="M581.6 676.8l-0.4 0.8-42.8 24.8-131.6-228.4-127.2 73.2-37.2-64.4 127.2-73.2-36-62.4 53.2-30.8 36 62.4 313.6-181.2 43.2 74.8-198 404.4zM665.6 324.4l-206 118.8 91.6 158.4 131.6-267.6 4-6.4c6.8-11.2 12.8-20 17.6-26.8-14 8.8-26.8 16.8-38.8 23.6z" />
<glyph unicode="&#xe960;" glyph-name="surface_5A3" d="M451.2 585.2v146.8h-74v-146.8h-72.4v-61.2h72.4v-362h86.4l251.2 374v49.2h-263.6zM468.4 276l-1.2-2.4c-7.2-13.2-13.2-24.4-16.8-32.8 0.8 16.4 1.2 31.6 1.2 45.2v238h182.8l-166-248z" />
<glyph unicode="&#xe961;" glyph-name="surface_5A4" d="M646.4 508.4l127.2 73.2-37.2 64.4-127.2-73.2-36 62.4-53.2-30.8 36-62.4-313.6-181.2 43.2-74.8 449.6-30.4 42.8 24.8-131.6 228zM386.8 338.8h-2.4c-15.2-0.4-27.6-0.8-36.8-2 14.8 7.6 28 15.2 39.6 21.6l206 118.8 91.6-158.4-298 20z" />
<glyph unicode="&#xe962;" glyph-name="surface_5A5" d="M653.2 490.4l36 62.4-53.2 30.8-36-62.4-313.6 180.8-43.2-74.8 198.4-404.8 42.8-24.8 131.6 228.4 127.2-73.2 37.2 64.4-127.2 73.2zM471.2 298.4l-132.8 270c-8 13.2-14.8 23.6-20 31.2 11.6-7.2 22.4-14 32.4-20l212-122.4-91.6-158.8z" />
<glyph unicode="&#xe963;" glyph-name="surface_5B1" d="M651.6 391.6v263.6h-49.6l-374-251.2v-86.4h362v-72.4h61.2v72.4h146.8v74h-146.4zM590 391.6h-238c-13.6 0-28.8-0.4-45.2-1.2 8 3.6 18.4 8.8 30.8 15.6l4.8 2.4 247.6 165.6v-182.4z" />
<glyph unicode="&#xe964;" glyph-name="surface_5B2" d="M780.4 559.2l-34.8 34.8-442 87.2-61.2-61.2 256-256-51.2-51.2 43.2-43.2 51.2 51.2 103.6-103.6 52.4 52.4-103.6 103.6 186.4 186zM382.8 584.4l-4.8 4.8c-8.4 8-17.6 16.8-27.6 26.4 8.8-3.2 20.4-7.2 35.2-11.2l2.8-0.8 292.4-58-129.2-129.2-168.8 168z" />
<glyph unicode="&#xe965;" glyph-name="surface_5B3" d="M736.4 702l-313.6-181.2-36 62.4-53.2-30.8 36-62.4-127.2-73.2 37.2-64.4 127.2 73.2 131.6-228.4 42.8 24.8 198.4 404.4-43.2 75.6zM685.6 570.4l-2.8-4.4-131.6-267.6-91.6 158.4 206 118.8c11.6 6.8 24.4 14.8 38.4 23.6-4.8-6.8-11.2-16.8-18.4-28.8z" />
<glyph unicode="&#xe966;" glyph-name="surface_5B4" d="M436 582.8v72.4h-61.2v-72.4h-146.8v-74h146.8v-263.6h49.6l374 251.2v86.4h-362.4zM688.4 494.4l-4.8-2.4-247.6-166v182.8h238c13.6 0 28.4 0.4 45.2 1.2-8-3.6-18.4-8.8-30.8-15.6z" />
<glyph unicode="&#xe967;" glyph-name="surface_5B5" d="M524.4 534.8l51.2 51.2-43.6 43.6-51.2-51.2-103.6 103.2-52.4-52.4 103.6-103.6-186.4-186.4 34.8-34.8 442-86.8 61.2 61.2-255.6 256zM642.8 292.8l-7.6 2-292.4 58 129.2 129.2 173.2-173.2c8.4-8 17.6-16.8 27.6-26.4-7.6 3.2-17.6 6.8-30 10.4z" />
<glyph unicode="&#xe968;" glyph-name="surface_6A1" d="M780 583.2c-28 46.4-66.8 75.6-115.2 86.4s-96.8 1.6-144-26.8c-44.4-26.8-73.2-62.8-85.2-106.4s-5.6-86.4 19.2-127.2c28-46.4 66.8-70.8 114.4-71.6-56.4-32.4-107.6-47.2-151.2-44.4-46.4 3.2-82.4 25.6-107.2 66.8-18 29.6-27.2 62-28 96.8 0 1.6-0.8 2.8-2 3.6s-2.8 0.8-4 0l-56.4-34c-1.2-0.8-2-2.4-2-4 3.2-30 15.2-62.8 35.6-96.4 37.2-61.6 91.2-96 160.4-102 68.8-6 148.4 18 236.8 71.6 71.6 43.2 118.8 90.4 140 140 22 49.2 18 99.2-11.2 147.6zM726.4 470c-12-29.6-34.8-54.8-68-74.8-23.2-14-48.4-18-74.8-11.6s-46.8 21.6-61.2 45.6c-16.8 27.6-20.8 55.2-12.4 81.6 8.4 26.8 28.4 49.6 59.6 68.4 28.4 17.2 57.2 23.2 85.6 18.4s50-19.6 64.8-44c16-26.4 18.4-54.4 6.4-83.6z" />
<glyph unicode="&#xe969;" glyph-name="surface_6A2" d="M771.2 401.6c-10 48.4-38.4 88.8-84 120-42.8 29.6-87.2 40.8-132 33.6s-81.2-30.8-108-70c-30.8-44.8-36.8-90-18-134-52.8 38-87.2 78.4-102.8 119.6-16.4 43.2-10.8 85.6 16.8 125.2 19.6 28.4 45.2 50.4 76.4 65.2 1.2 0.8 2 2 2.4 3.2 0 1.6-0.4 2.8-1.6 3.6l-54 37.2c-1.2 0.8-2.8 0.8-4.4 0-26-15.2-50.8-39.6-73.2-72-40.8-59.6-50-122.8-26.8-188.4 22.8-65.2 77.6-127.6 162.8-186 68.8-47.2 131.2-70.8 185.2-70 54.4 1.2 98.4 25.2 130.4 71.6 30.4 45.6 40.8 92.8 30.8 141.2zM688.4 303.6c-17.6-25.6-42.4-39.2-73.6-40.4-31.6-1.2-64 9.2-96.4 31.2-22.4 15.6-36.4 36.8-41.2 63.2s0.4 51.6 16.4 74.8c18.4 26.8 41.6 42 69.2 45.2s57.2-5.6 86.8-26c27.2-18.8 44.8-42.4 52-70.4 7.6-28 3.2-54-13.2-77.6z" />
<glyph unicode="&#xe96a;" glyph-name="surface_6A3" d="M647.6 475.2c-31.2 32.8-71.2 49.2-118.8 49.2-54.4 0-94.8-20.4-120.4-61.2 1.6 65.2 15.2 116.4 40.4 152.4 26.4 38 64.4 57.2 112.8 57.2 34.4 0 67.2-8.8 97.2-26 1.2-0.8 2.8-0.8 4 0s2 2 2 3.6v66.4c0 1.6-0.8 2.8-2.4 3.6-27.6 12.8-61.6 19.6-100.8 19.6-72 0-129.6-28.4-170.4-84.8-40.4-55.6-61.2-136.4-61.2-239.6 0-83.6 16-148.4 47.6-192.4 31.6-44.4 76.4-66.8 132.8-66.8 54.4 0 99.2 18 133.2 54 34 35.6 51.6 82 51.6 137.2-0.4 52-16.4 95.2-47.6 127.6zM586.8 255.6c-18.8-21.6-42.8-32.8-71.2-32.8-30.8 0-56 12.8-74.8 37.6-19.2 25.6-28.8 58-28.8 96.8 0 27.2 9.6 50.8 28.8 70s42.8 28.8 70.8 28.8c32.4 0 58-10.8 76.4-31.6 18.4-21.2 27.6-50 27.6-86.4 0-32.4-9.6-60.4-28.8-82.4z" />
<glyph unicode="&#xe96b;" glyph-name="surface_6A4" d="M764.8 580.4c-39.6 60.4-94.8 92.8-164 96.4-68.8 3.6-147.6-23.6-234-80-70-45.6-115.2-94.4-134.8-144.8-19.6-50.8-14-100.8 16.8-148 29.6-45.6 69.6-73.2 118-82 48.4-9.2 96.8 1.6 143.2 32 43.6 28.4 70.8 65.2 81.2 109.2s2.4 86.8-23.6 126.8c-29.6 45.6-69.2 68.4-117.2 67.6 55.2 34.4 105.6 51.2 149.6 49.6 46.4-1.6 83.2-22.4 109.6-62.8 18.8-28.8 29.6-61.2 31.2-95.6 0-1.6 0.8-2.8 2-3.2 1.2-0.8 2.8-0.4 4 0.4l55.2 36c1.2 0.8 2 2.4 1.6 4-4 29.6-17.2 61.6-38.8 94.4zM500.4 467.2c17.6-27.2 22.8-54.4 15.6-81.2-7.6-26.8-26.8-50.8-57.2-70.4-27.6-18-56.4-25.2-84.8-21.6-28.4 4-50.8 18-66.4 42-16.8 26-20 54-9.6 83.6 10.8 30 32.8 56 65.2 77.2 22.8 14.8 48 19.6 74.4 14.4 26.4-6 47.6-20.8 62.8-44z" />
<glyph unicode="&#xe96c;" glyph-name="surface_6A5" d="M762.4 448.8c-22.4 65.2-76.8 128.4-161.2 187.6-68.4 48-130.8 72-184.8 71.2-54.4-0.8-98.8-24.4-131.2-70.8-31.2-44.4-42-91.6-32.4-140s37.6-89.2 83.2-120.8c42.8-30 87.2-41.6 131.6-34.8 44.8 6.8 81.2 30 108.8 69.2 31.2 44.4 37.6 89.6 19.2 133.6 52.4-38.4 86.8-79.2 102-120.4 16-43.6 10-85.6-17.6-125.2-20-28.4-45.6-50-77.2-64.8-1.2-0.8-2-2-2.4-3.2 0-1.6 0.4-2.8 1.6-3.6l54-37.6c1.2-0.8 2.8-0.8 4.4 0 26.4 15.2 51.2 39.2 73.6 71.6 41.6 58.8 51.2 122.4 28.4 188zM530.4 463.6c-18.4-26.4-42-41.6-69.6-44.4-28-3.2-56.8 6-86.8 26.8-27.2 18.8-44.4 42.8-51.6 70.8s-2.4 54 14 77.2c17.6 25.2 42.4 38.8 74 39.6 31.6 1.2 64-9.6 96-32 22.4-15.6 36-37.2 40.8-63.6 5.2-26.4-0.8-51.6-16.8-74.4z" />
<glyph unicode="&#xe96d;" glyph-name="surface_6B1" d="M751.6 617.2c-28.8 48.4-70.8 75.6-125.2 80.4-54 4.8-117.6-14.8-189.6-57.2-88.8-52.8-147.6-111.6-174.8-175.2-27.6-63.6-22.8-127.6 14-189.6 20-34 43.2-59.6 68-76.8 1.2-0.8 2.8-0.8 4.4 0l56.4 33.6c1.2 0.8 2 2 2 3.6s-0.8 2.8-2 3.6c-30 16.8-54.4 40.4-72 70.4-24.4 41.6-27.2 84-8.4 126 18 40 55.2 78 110.8 112.4-21.6-42.8-18.8-88 9.2-134.8 24.4-40.8 59.2-66.8 103.2-77.2 44-10 89.2-2 134 24.8 47.6 28.4 78.4 66.8 92 114.4 13.2 46.8 5.6 94.8-22 141.6zM705.6 500c-9.2-27.6-28.4-50-56.8-66.8-31.2-18.4-60.8-25.2-88.4-20-27.2 5.2-49.6 21.6-66 49.6-14.4 24-18 49.6-11.2 75.6s22 46.4 45.6 60.4c33.6 20 66.4 28 98 24.8 31.2-3.6 54.8-18.8 70.8-45.2 14.4-24.8 17.2-51.2 8-78.4z" />
<glyph unicode="&#xe96e;" glyph-name="surface_6B2" d="M792 430.8c-15.6 52-56.8 104-122.8 155.2-81.6 63.2-158 96.4-226.8 98.4-69.6 2-127.2-25.6-171.2-82.8-24-31.2-39.6-62-46.4-91.6-0.4-1.6 0.4-3.2 1.6-4l52-40.4c1.2-0.8 2.8-1.2 4-0.4 1.2 0.4 2.4 1.6 2.4 3.2 4.8 34.4 17.6 65.6 38.8 92.8 29.6 38 68 56.4 114.4 54 44-2 92.8-22.8 145.2-61.6-47.6 4.4-88.8-14.8-122-58-29.2-37.6-40.4-79.6-34-124.4 6.8-44.8 30.8-83.6 72-115.6 44-34 90.8-48.4 140-43.6 49.2 5.2 91.2 29.6 124.4 72.4 34.4 44.8 44 94 28.4 146.4zM707.2 320.8c-17.6-22.8-40.8-34.8-69.6-36.4s-56.8 8-82.8 28.4c-28.8 22-46 47.2-51.2 74.8-5.2 27.2 2 54 22 79.6 17.2 22 39.6 35.2 66 38.4 26.8 3.2 51.2-3.6 72.8-20 30.8-24 50.8-51.6 58.8-82 8.4-30.4 3.2-58.4-16-82.8z" />
<glyph unicode="&#xe96f;" glyph-name="surface_6B3" d="M633.6 655.2c-40.8 56-98 84.8-170.4 84.8-39.6 0-73.6-6.4-100.8-19.6-1.6-0.8-2.4-2-2.4-3.6v-65.6c0-1.6 0.8-2.8 2-3.6s2.8-0.8 4 0c30 17.2 62.4 26 97.2 26 48.4 0 86-19.2 112.8-57.2 25.2-36 38.8-87.2 40.4-152.4-25.6 40.4-66 61.2-120.4 61.2-47.6 0-87.6-16.8-118.8-49.2-31.2-32.8-47.2-75.6-47.2-128 0-55.6 17.2-101.6 51.6-137.2 34-35.6 79.2-54 133.2-54 56.4 0 101.2 22.4 132.8 66.8 31.6 44 47.6 108.8 47.6 192.4-0.4 102.8-21.2 183.2-61.6 239.2zM583.2 260.8c-18.8-25.2-44-37.6-74.8-37.6-28.4 0-52.8 11.2-71.2 32.8-18.8 22-28.4 50-28.4 82.8 0 36.4 9.2 65.2 27.6 86.4 18.4 20.8 44 31.6 76.4 31.6 28 0 52-9.6 70.8-28.8 19.2-19.2 28.8-42.8 28.8-70 0-39.2-10-72-29.2-97.2z" />
<glyph unicode="&#xe970;" glyph-name="surface_6B4" d="M730 639.2c-23.2 32-48.4 55.6-75.2 70-1.2 0.8-3.2 0.8-4.4-0.4l-53.2-38.8c-1.2-0.8-1.6-2.4-1.6-3.6 0-1.6 1.2-2.8 2.4-3.2 31.6-14 58-35.2 78.4-63.2 28.4-38.8 35.2-80.8 20-124.8-14.4-41.6-47.6-82.8-99.2-122.4 17.6 44.4 10.4 89.2-22 133.2-28 38.4-65.2 61.2-110 66.8-44.8 6-88.8-6.8-131.2-37.2-44.8-32.8-72-74-80.8-122.4-8.8-48.8 3.2-95.6 35.2-139.6 33.2-45.6 78-68.4 132.4-68 54 0.4 115.6 25.6 183.2 75.2 83.2 60.8 136.4 124.8 157.2 190.8 22.4 66.4 11.6 129.6-31.2 187.6zM549.2 358c-4.4-26.8-17.6-48.4-39.6-64.4-31.6-22.8-63.6-34.4-95.2-34-31.2 0.4-56.4 13.2-74.8 38.4-16.8 23.2-22 48.8-15.6 76.8s23.6 52.4 50 72c29.2 21.2 58.4 30.8 86 28.4s51.2-16.8 70.4-43.2c16.8-22.4 22.8-47.2 18.8-74z" />
<glyph unicode="&#xe971;" glyph-name="surface_6B5" d="M793.2 369.6l-49.2 43.6c-1.2 0.8-2.4 1.2-4 0.8-1.2-0.4-2.4-1.6-2.8-2.8-6.8-34-22-64-45.2-90-32-36-71.6-51.6-117.6-46-43.6 5.2-91.2 29.2-140.8 71.2 47.2-7.6 89.6 8.8 125.6 49.6 31.6 35.6 46 76.4 42.4 121.6s-25.2 85.6-64 120c-41.2 36.8-87.6 54.8-136.8 52.8-49.6-1.6-92.8-23.2-128.8-63.6-37.6-42-50.4-90.4-38.4-143.6 12-52.8 49.6-107.6 112-163.2 77.2-68.8 150.8-106.8 219.6-113.6 69.2-6.8 128.4 16.8 176.4 70.8 26.4 29.6 44 59.2 52.8 88.4 0.4 1.2 0 2.8-1.2 4zM357.2 420c-29.2 26-46.8 54.8-53.2 86-6 30.8 1.2 58 21.6 81.2 19.2 21.2 43.2 32 72 31.6s56-12 80.8-34c27.2-24 42.4-50.4 46-78s-5.6-54-27.2-78c-18.8-20.8-41.6-32.4-68.8-33.6-26.8-2-50.8 6.4-71.2 24.8z" />
<glyph unicode="&#xe972;" glyph-name="surface_7A1" d="M759.2 655.2c-114.4 136.4-318 154.4-454.4 39.6-136.4-114.4-154.4-318-39.6-454.4 114.4-136.4 318-154.4 454.4-39.6s154 318 39.6 454.4zM735.6 635.6c103.6-123.6 87.6-307.6-36-411.2s-307.6-87.6-411.2 36-87.6 307.6 36 411.2 307.6 87.6 411.2-36zM684.8 460.4l-148.8-5.2 54.8-47.6c-6-7.2-12.8-13.6-20.4-20-66-55.6-159.6-56-223.2-5.6 6.4-16 15.6-31.6 27.2-45.6 61.6-73.2 172.4-81.2 247.6-18 12.4 10.4 22.8 22 31.6 34.4l43.2-38-12 145.6zM654 560.8c-61.6 73.2-172.4 81.2-247.6 18-12.4-10.4-22.8-22-31.6-34.4l-43.2 38 12.4-146 148.8 5.2-54.8 47.6c6 7.2 12.8 13.6 20.4 20 66 55.6 159.6 56 223.2 5.6-6.8 16.4-16 32-27.6 46z" />
<glyph unicode="&#xe973;" glyph-name="surface_7A2" d="M815.2 337.6c60.8 167.6-25.2 352.4-192.8 413.6-167.6 60.8-352.4-25.2-413.6-192.8-60.8-167.6 25.2-352.4 192.8-413.6 167.6-60.8 352.8 25.2 413.6 192.8zM786.4 348c-55.2-151.6-222.4-229.6-374-174.4s-229.6 222.4-174.4 374c55.2 151.6 222.4 229.6 374 174.4 151.2-54.8 229.6-222.4 174.4-374zM609.2 304.4l-78.8 126.4-14-71.2c-9.2 2-18.4 4.4-27.6 7.6-81.2 29.6-128.4 110.4-116.4 190.4-10.8-13.6-19.6-29.2-26-46.4-32.8-90 15.6-190 108-223.6 15.2-5.6 30.4-8.8 45.6-10.4l-11.2-56.4 120.4 83.6zM680.8 381.6c32.8 90-15.6 190-108 223.6-15.2 5.6-30.4 8.8-45.6 10.4l11.2 56.4-120-83.6 78.8-126.4 14 71.2c9.2-2 18.4-4.4 27.6-7.6 81.2-29.6 128.4-110.4 116.4-190.4 10.4 13.6 19.2 29.2 25.6 46.4z" />
<glyph unicode="&#xe974;" glyph-name="surface_7A3" d="M638 150.8c164 69.6 240.4 258.8 170.8 422.8s-258.8 240.4-422.8 170.8c-164-69.6-240.4-258.8-170.8-422.8 69.6-163.6 258.8-240.4 422.8-170.8zM626 179.2c-148.4-62.8-319.6 6.4-382.8 154.8s6.4 319.6 154.8 382.8c148.4 62.8 319.6-6.4 382.8-154.8 62.8-148.4-6.4-319.6-154.8-382.8zM473.2 279.2l38.4 143.6-61.6-38.4c-4.8 8-9.2 16.4-13.2 25.2-33.6 79.6-6.8 169.2 60 214.8-17.2-1.6-34.8-5.6-51.6-12.8-88-37.2-128-140.8-89.6-231.2 6.4-14.8 14.4-28.4 23.6-40.4l-48.8-30.4 142.8-30.4zM578.4 279.2c88 37.2 128 140.8 89.6 231.2-6.4 14.8-14.4 28.4-23.6 40.4l48.8 30.4-143.2 30.8-38.4-143.6 61.6 38.4c4.8-8 9.2-16.4 13.2-25.2 33.6-79.6 6.8-169.2-60-214.8 17.6 1.2 35.2 5.2 52 12.4z" />
<glyph unicode="&#xe975;" glyph-name="surface_7A4" d="M222 306.4c78-160 271.2-226.8 431.2-148.4s226.8 271.2 148.4 431.2c-78 160-271.2 226.8-431.2 148.4-160-78-226.4-270.8-148.4-431.2zM249.6 320c-70.8 144.8-10.4 319.6 134.4 390.4s319.6 10.4 390.4-134.4c70.8-144.8 10.4-319.6-134.4-390.4s-319.6-10.4-390.4 134.4zM341.6 477.6l145.6-30.8-41.6 59.6c7.6 5.2 16 10.4 24.8 14.4 77.6 38 168.4 15.6 218-48.4-2.4 17.2-7.6 34.4-15.6 50.8-42 86-147.6 120.8-235.6 77.6-14.4-7.2-27.6-15.6-39.2-25.6l-32.8 47.2-23.6-144.8zM347.2 372.8c42-86 147.6-120.8 235.6-77.6 14.4 7.2 27.6 15.6 39.2 25.6l32.8-47.2 23.2 144.4-145.6 30.8 41.6-59.6c-7.6-5.2-16-10.4-24.8-14.4-77.6-38-168.4-15.6-218 48.4 2.8-16.8 8-34 16-50.4z" />
<glyph unicode="&#xe976;" glyph-name="surface_7A5" d="M401.6 144.8c167.6-60.8 352.4 25.2 413.6 192.8 60.8 167.6-25.2 352.4-192.8 413.6-167.6 60.8-352.4-25.2-413.6-192.8s25.6-352.8 192.8-413.6zM412.4 173.6c-151.6 55.2-229.6 222.4-174.4 374s222.4 229.6 374 174.4c151.6-55.2 229.6-222.4 174.4-374-55.2-151.2-222.8-229.6-374-174.4zM368.8 350.8l126.4 78.8-71.2 14c2 9.2 4.4 18.4 7.6 27.6 29.6 81.2 110.4 128.4 190.4 116.4-13.6 10.8-29.2 19.6-46.4 26-90 32.8-190-15.6-223.6-108-5.6-15.2-8.8-30.4-10.4-45.6l-56.4 11.2 83.6-120.4zM445.6 279.2c90-32.8 190 15.6 223.6 108 5.6 15.2 8.8 30.4 10.4 45.6l56.4-11.2-83.6 120-126.4-78.8 71.2-14c-2-9.2-4.4-18.4-7.6-27.6-29.6-81.2-110.4-128.4-190.4-116.4 13.6-10.4 29.2-19.2 46.4-25.6z" />
<glyph unicode="&#xe977;" glyph-name="surface_7B1" d="M235.6 614c91.6 152.8 290 202 442.8 110.4s202-290 110.4-442.8c-91.6-152.8-290-202-442.8-110.4-152.8 92-202 290-110.4 442.8zM262 598.4c-83.2-138-38.4-317.6 100-400.4 138-83.2 317.6-38.4 400.4 100s38.4 317.6-100 400.4c-138 82.8-317.6 38-400.4-100zM339.6 433.2l147.6 18-46.4-55.6c7.2-6 14.8-11.6 23.2-16.4 74-44.4 166.4-30.4 221.2 29.2-4-17.2-10.4-33.6-20-49.2-49.2-82-157.6-107.2-241.6-56.8-13.6 8.4-26 18-36.8 28.8l-36.8-44-10.4 146zM354.4 537.2c49.2 82 157.6 107.2 241.6 56.8 13.6-8.4 26-18 36.8-28.8l36.8 44 10.8-146-147.6-18 46.4 55.6c-7.2 6-14.8 11.6-23.2 16.4-74 44.4-166.4 30.4-221.2-29.2 3.6 16.8 10 33.6 19.6 49.2z" />
<glyph unicode="&#xe978;" glyph-name="surface_7B2" d="M512 770.4c178 0 322.4-144.4 322.4-322.4s-144.4-322.4-322.4-322.4-322.4 144.4-322.4 322.4 144.4 322.4 322.4 322.4zM512 740c-161.2 0-292-130.8-292-292s130.8-292 292-292 292 130.8 292 292-130.8 292-292 292zM410.4 588.4l91.6-117.2-71.6 11.2c-1.6-9.2-2.4-18.8-2.4-28.4 0-86.4 59.6-158.4 139.2-174.4-16.4-5.6-34.4-8.4-52.4-8.4-95.6 0-173.2 79.6-173.2 178 0 16 2 31.6 6 46.4l-56.8 8.8 119.6 84zM507.2 629.2c95.6 0 173.2-79.6 173.2-178 0-16-2-31.6-6-46.4l56.8-8.8-119.6-84.4-91.6 117.2 71.6-11.2c1.6 9.2 2.4 18.8 2.4 28.4 0 86.4-59.6 158.4-139.2 174.4 16.4 6 34 8.8 52.4 8.8z" />
<glyph unicode="&#xe979;" glyph-name="surface_7B3" d="M813.2 563.6c64-166.4-19.2-352.8-185.6-416.8s-352.8 19.2-416.8 185.6c-64 166.4 19.2 352.8 185.6 416.8 166.4 63.6 352.8-19.2 416.8-185.6zM784.4 552.4c-57.6 150.4-226.4 225.6-377.2 168-150.4-57.6-225.6-226.4-168-377.2 57.6-150.4 226.4-225.6 377.2-168 150.8 58 226 226.8 168 377.2zM606.4 593.2l-76.8-127.6-15.2 70.8c-9.2-2-18.4-4.8-27.6-8-80.4-30.8-126.4-112.4-113.2-192.4-11.2 13.6-20 28.8-26.8 46-34.4 89.2 12.4 190 104 225.2 14.8 5.6 30.4 9.2 45.6 11.2l-12 56.4 122-81.6zM679.6 517.2c34.4-89.2-12.4-190-104-225.2-14.8-5.6-30.4-9.2-45.6-11.2l12-56.4-121.6 81.6 76.8 127.6 15.2-70.8c9.2 2 18.4 4.8 27.6 8 80.4 30.8 126.4 112.4 113.2 192.4 10.8-13.2 19.6-28.8 26.4-46z" />
<glyph unicode="&#xe97a;" glyph-name="surface_7B4" d="M622.4 144.8c-167.6-60.8-352.4 25.2-413.6 192.8-60.8 167.6 25.2 352.4 192.8 413.6 167.6 60.8 352.4-25.2 413.6-192.8 60.8-167.6-25.2-352.8-192.8-413.6zM612 173.6c151.6 55.2 229.6 222.4 174.4 374s-222.4 229.6-374 174.4c-151.6-55.2-229.6-222.4-174.4-374 54.8-151.2 222.4-229.6 374-174.4zM655.6 350.8l-126.4 78.8 71.2 14c-2 9.2-4.4 18.4-7.6 27.6-29.6 81.2-110.4 128.4-190.4 116.4 13.6 10.8 29.2 19.6 46.4 26 90 32.8 190-15.6 223.6-108 5.6-15.2 8.8-30.4 10.4-45.6l56.4 11.2-83.6-120.4zM578.4 279.2c-90-32.8-190 15.6-223.6 108-5.6 15.2-8.8 30.4-10.4 45.6l-56.4-11.2 83.6 120 126.4-78.8-71.2-14c2-9.2 4.4-18.4 7.6-27.6 29.6-81.2 110.4-128.4 190.4-116.4-13.6-10.4-29.2-19.2-46.4-25.6z" />
<glyph unicode="&#xe97b;" glyph-name="surface_7B5" d="M802 306.4c-78-160-271.2-226.8-431.2-148.4-160 78-226.8 271.2-148.4 431.2 78 160 271.2 226.8 431.2 148.4s226.4-270.8 148.4-431.2zM774.4 320c70.8 144.8 10.4 319.6-134.4 390.4s-319.6 10.4-390.4-134.4-10.4-319.6 134.4-390.4c145.2-70.8 319.6-10.4 390.4 134.4zM682.8 477.6l-145.6-30.8 41.6 59.6c-7.6 5.2-16 10.4-24.8 14.4-77.6 38-168.4 15.6-218-48.4 2.4 17.2 7.6 34.4 15.6 50.8 42 86 147.6 120.8 235.6 77.6 14.4-7.2 27.6-15.6 39.2-25.6l32.8 47.2 23.6-144.8zM677.2 372.8c-42-86-147.6-120.8-235.6-77.6-14.4 7.2-27.6 15.6-39.2 25.6l-32.8-47.2-23.2 144.4 145.6 30.8-41.6-59.6c7.6-5.2 16-10.4 24.8-14.4 77.6-38 168.4-15.6 218 48.4-3.2-16.8-8-34-16-50.4z" />
<glyph unicode="&#xe97c;" glyph-name="surface_8A1" d="M589.6 493.2c24-41.6 9.6-94.8-32-118.8s-94.8-9.6-118.8 32c-24 41.6-9.6 94.8 32 118.8s94.8 9.6 118.8-32zM634 518.8c-38 66-122.8 88.8-188.8 50.4s-88.8-122.4-50.8-188.8c38-66.4 122.8-88.8 188.8-50.4 66.4 38 88.8 122.8 50.8 188.8zM726 359.2c-5.6 9.6-18 13.2-28 7.6-9.6-5.6-13.2-18-7.6-28l20.4-35.6c5.6-9.6 18-13.2 28-7.6 9.6 5.6 13.2 18 7.6 28l-20.4 35.6zM580.8 754l34.4-59.6c2.8-4.8 7.2-8 12.4-9.6l90.4-24.4c13.2-3.6 24-12 30.8-24l45.6-78.8c6.8-12 8.8-26 5.2-39.2l-24.4-89.6c-1.6-5.2-0.8-10.8 2-15.6l34-58.8c16.8-29.2 6.8-66.8-22.4-84l-261.6-151.2c-29.2-16.8-66.8-6.8-84 22.4l-230.4 399.2c-16.8 29.2-6.8 66.8 22.4 84l261.6 151.2c29.6 17.6 67.2 7.6 84-22z" />
<glyph unicode="&#xe97d;" glyph-name="surface_8A2" d="M811.6 542.8c16.8 29.2 6.8 66.8-22.4 84l-261.6 151.2c-29.2 16.8-66.8 6.8-84-22.4l-230.4-399.6c-16.8-29.2-6.8-66.8 22.4-84l261.6-151.2c29.2-16.8 66.8-6.8 84 22.4l34 58.8c2.8 4.8 7.2 8 12.4 9.6l89.6 23.6c13.2 3.6 24.4 12 31.2 24l45.6 78.8c6.8 11.6 8.8 25.6 5.2 38.8l-24 90.8c-1.2 5.2-0.8 10.8 2 15.6l34.4 59.6zM542 219.2l-20.4-35.6c-5.6-9.6-18-13.2-28-7.6-9.6 5.6-13.2 18-7.6 28l20.4 35.6c5.6 9.6 18 13.2 28 7.6s13.2-18 7.6-28zM634 379.2c-38-66-122.8-88.8-188.8-50.4s-88.8 122.8-50.4 188.8c38 66 122.8 88.8 188.8 50.4s88.8-122.8 50.4-188.8zM558 523.6c-41.6 24-94.8 9.6-118.8-32s-9.6-94.8 32-118.8 94.8-9.6 118.8 32c24 41.6 9.6 94.8-32 118.8z" />
<glyph unicode="&#xe97e;" glyph-name="surface_8A3" d="M742.4 704h-460.8c-34 0-61.6-27.6-61.6-61.6v-302c0-34 27.6-61.6 61.6-61.6h68c5.6 0 10.8-2 14.4-6l65.2-66c9.6-9.6 22.8-15.2 36.4-15.2h90.8c13.6 0 26.4 5.2 36 14.8l66.4 66c4 4 9.2 6 14.4 6h68.8c34 0 61.6 27.6 61.6 61.6v302.4c0.4 34-27.2 61.6-61.2 61.6zM327.6 350.8h-40.8c-11.2 0-20.4 9.2-20.4 20.4s9.2 20.4 20.4 20.4h40.8c11.2 0 20.4-9.2 20.4-20.4s-9.2-20.4-20.4-20.4zM512 350.8c-76.4 0-138.4 62-138.4 138.4s62 138.4 138.4 138.4 138.4-62 138.4-138.4-62-138.4-138.4-138.4zM599.2 488.8c0-48.159-39.041-87.2-87.2-87.2s-87.2 39.041-87.2 87.2c0 48.159 39.041 87.2 87.2 87.2s87.2-39.041 87.2-87.2z" />
<glyph unicode="&#xe97f;" glyph-name="surface_8A4" d="M466.4 523.6c-41.6-24-56-77.2-32-118.8s77.2-56 118.8-32 56 77.2 32 118.8c-24 41.6-77.2 56-118.8 32zM811.6 356l-230.4 399.2c-16.8 29.2-54.4 39.6-84 22.4l-261.6-150.8c-29.2-16.8-39.6-54.4-22.4-84l34-58.8c2.8-4.8 3.6-10.4 2-15.6l-24.4-89.6c-3.6-13.2-1.6-27.2 5.2-39.2l45.6-78.8c6.8-11.6 18-20.4 30.8-24l90.4-24.4c5.2-1.6 9.6-4.8 12.4-9.6l34.4-59.6c16.8-29.2 54.4-39.6 84-22.4l261.6 151.2c29.2 17.2 39.2 54.8 22.4 84zM326 531.2c-9.6-5.6-22.4-2.4-28 7.6l-20.4 35.6c-5.6 9.6-2.4 22.4 7.6 28 9.6 5.6 22.4 2.4 28-7.6l20.4-35.6c5.6-10 2.4-22.4-7.6-28zM579.2 328.4c-66-38-150.8-15.6-188.8 50.4s-15.6 150.8 50.4 188.8 150.8 15.6 188.8-50.4 15.6-150.8-50.4-188.8z" />
<glyph unicode="&#xe980;" glyph-name="surface_8A5" d="M553.6 526c-41.6 24-94.8 9.6-118.8-32s-9.6-94.8 32-118.8c41.6-24 94.8-9.6 118.8 32s9.6 94.8-32 118.8zM788.8 626.8l-261.6 151.2c-29.2 16.8-66.8 6.8-84-22.4l-34-58.8c-2.8-4.8-7.2-8-12.4-9.6l-89.6-23.6c-13.2-3.6-24.4-12-31.2-24l-45.6-78.8c-6.8-11.6-8.8-25.6-5.2-38.8l24-90.8c1.2-5.2 0.8-10.8-2-15.6l-34-59.6c-16.8-29.2-6.8-66.8 22.4-84l261.6-151.2c29.2-16.8 66.8-6.8 84 22.4l230.4 399.2c16.8 29.6 6.8 67.2-22.8 84.4zM482.4 679.6l20.4 35.6c5.6 9.6 18 13.2 28 7.6s13.2-18 7.6-28l-20.4-35.6c-5.6-9.6-18-13.2-28-7.6s-13.2 18-7.6 28zM629.6 381.6c-38-66-122.8-88.8-188.8-50.4s-88.8 122.4-50.4 188.8 122.8 88.8 188.8 50.4c66-38 88.8-122.8 50.4-188.8z" />
<glyph unicode="&#xe981;" glyph-name="surface_8B1" d="M559.477 517.529c38.662-28.717 46.724-83.339 18.007-122.002s-83.339-46.724-122.002-18.007c-38.662 28.717-46.724 83.339-18.007 122.002s83.339 46.724 122.002 18.007zM812.8 572.4l-231.6 194c-26 22-64.8 18.4-86.4-7.6l-44.4-52.8c-3.6-4-8.4-6.8-14-7.2l-93.6-8.4c-13.6-1.2-26-7.6-34.8-18l-57.6-69.6c-8.8-10.4-13.2-24-11.6-37.6l8.4-92.4c0.4-5.6-1.2-10.8-4.8-15.2l-43.6-52c-22-26-18.4-64.8 7.6-86.4l231.6-194c26-22 64.8-18.4 86.4 7.6l296 352.8c22 26 18.4 64.8-7.6 86.8zM314.8 368.8l-26.4-31.2c-7.2-8.8-20-9.6-28.8-2.4s-9.6 20-2.4 28.8l26.4 31.2c7.2 8.8 20 9.6 28.8 2.4 8.4-7.2 9.6-20 2.4-28.8zM613.6 358.4c-49.2-58.4-136.4-66-194.8-17.2-58.4 49.2-66 136.4-17.2 194.8 49.2 58.4 136.4 66 194.8 17.2s66-136 17.2-194.8z" />
<glyph unicode="&#xe982;" glyph-name="surface_8B2" d="M513.804 535.001c48.145-1.141 86.249-41.095 85.108-89.239s-41.095-86.249-89.239-85.108c-48.145 1.141-86.249 41.095-85.108 89.239s41.095 86.249 89.239 85.108zM820.8 387.6l-270.8 372.8c-20 27.6-58.4 33.6-86 13.6l-244-177.2c-27.6-20-33.6-58.4-13.6-86l40.4-55.6c3.2-4.4 4.4-10 3.6-15.2l-14.4-92.8c-2-13.2 1.2-27.2 9.2-38l53.2-73.6c8-11.2 20-18.4 33.6-20.4l91.6-14c5.2-0.8 10.4-3.6 13.6-8.4l40-54.8c20-27.6 58.4-33.6 86-13.6l244.4 177.6c27.2 20 33.2 58.4 13.2 85.6zM560.8 179.6c-9.2-6.8-22-4.8-28.8 4.4l-24 33.2c-6.8 9.2-4.8 22 4.4 28.8s22 4.8 28.8-4.4l24-33.2c6.8-9.2 4.8-22-4.4-28.8zM592.8 336c-61.6-44.8-148.4-31.2-193.2 30.4s-31.2 148.4 30.4 193.2 148.4 31.2 193.2-30.4 31.2-148.4-30.4-193.2z" />
<glyph unicode="&#xe983;" glyph-name="surface_8B3" d="M599.2 488.8c0-48.159-39.041-87.2-87.2-87.2s-87.2 39.041-87.2 87.2c0 48.159 39.041 87.2 87.2 87.2s87.2-39.041 87.2-87.2zM742.4 704h-460.8c-34 0-61.6-27.6-61.6-61.6v-302c0-34 27.6-61.6 61.6-61.6h68.8c5.6 0 10.8-2 14.4-6l66.4-66c9.6-9.6 22.4-14.8 36-14.8h90.8c13.6 0 26.8 5.6 36.4 15.2l65.2 66c4 4 9.2 6 14.4 6h68c34 0 61.6 27.6 61.6 61.6v301.6c0.4 34-27.2 61.6-61.2 61.6zM512 350.8c-76.4 0-138.4 62-138.4 138.4s62 138.4 138.4 138.4 138.4-62 138.4-138.4-62-138.4-138.4-138.4zM737.2 350.8h-40.8c-11.2 0-20.4 9.2-20.4 20.4s9.2 20.4 20.4 20.4h40.8c11.2 0 20.4-9.2 20.4-20.4s-9.2-20.4-20.4-20.4z" />
<glyph unicode="&#xe984;" glyph-name="surface_8B4" d="M597.575 464.211c9.189-47.273-21.685-93.044-68.958-102.233s-93.044 21.685-102.233 68.958c-9.189 47.273 21.685 93.044 68.958 102.233s93.044-21.685 102.233-68.958zM815.2 521.2c18.8 28 11.6 66.4-16.4 85.2l-250.8 169.2c-28 18.8-66.4 11.6-85.2-16.4l-257.6-382c-18.8-28-11.6-66.4 16.4-85.2l250.4-168.8c28-18.8 66.4-11.6 85.2 16.4l38.4 57.2c3.2 4.4 7.6 7.6 13.2 8.8l92 18c13.2 2.8 24.8 10.4 32.4 21.6l50.8 75.2c7.6 11.2 10.4 25.2 7.6 38.4l-18 90.8c-1.2 5.2 0 10.8 3.2 15.6l38.4 56zM626.8 370.4c-42.8-63.2-128.8-80-192-37.2s-80 128.8-37.2 192c42.8 63.2 128.8 80 192 37.2s80-128.8 37.2-192zM752.8 557.2l-22.8-34c-6.4-9.2-19.2-12-28.4-5.6s-12 19.2-5.6 28.4l22.8 34c6.4 9.2 19.2 12 28.4 5.6 9.6-6.4 12-19.2 5.6-28.4z" />
<glyph unicode="&#xe985;" glyph-name="surface_8B5" d="M826.8 458.4l-52 45.2c-4 3.6-6.4 8.4-6.8 14l-6.8 93.6c-0.8 13.6-7.2 26-17.6 34.8l-68.4 59.6c-10.4 8.8-23.6 13.6-37.2 12.4l-92.4-6.8c-5.6-0.4-10.8 1.2-14.8 4.8l-51.2 44.4c-25.6 22.4-64.4 19.6-86.8-6l-198-228c-22.4-25.6-19.6-64.4 6-86.8l347.6-302.4c25.6-22.4 64.4-19.6 86.8 6l198 228c22 26 19.2 64.8-6.4 87.2zM407.2 701.2c7.6 8.4 20.4 9.6 28.8 2l30.8-26.8c8.4-7.6 9.6-20.4 2-28.8s-20.4-9.6-28.8-2l-30.8 26.8c-8.8 7.2-9.6 20-2 28.8zM619.6 360.4c-50-57.6-137.6-63.6-195.2-13.6s-63.6 137.6-13.6 195.2c50 57.6 137.6 63.6 195.2 13.6 57.6-50.4 63.6-137.6 13.6-195.2zM572.4 516.8c-36.4 31.6-91.2 27.6-122.8-8.4-31.6-36.4-27.6-91.2 8.4-122.8s91.2-27.6 122.8 8.4c31.6 36.4 28 91.2-8.4 122.8z" />
<glyph unicode="&#xe986;" glyph-name="surface_9A1" d="M879.2 416.4l-400-335.6-335.6 400 400 335.6 335.6-400zM489.6 450.8l-138.4 164.8-164.8-138.4 138.4-164.8 164.8 138.4zM647.6 262.4l-138.4 164.8-164.8-138.4 138.4-164.8 164.8 138.4zM472.4 256c5.6-6.4 4.8-16-2-21.6-6.4-5.6-16-4.8-21.6 2-5.6 6.4-4.8 16 2 21.6 6.8 5.2 16.4 4.4 21.6-2zM405.2 468.4l-1.6-20.4-56 4.8-4.8-56-20.4 1.6 4.8 56-56 4.8 1.6 20.4 56-4.8 4.8 56 20.4-1.6-4.8-56 56-4.8zM546.8 231.2l-15.6-13.2-85.6 102 15.6 13.2 85.6-102zM543.2 315.2c5.6-6.4 4.8-16-2-21.6-6.4-5.6-16-4.8-21.6 2-5.6 6.4-4.8 16 2 21.6 6.4 5.2 16 4.4 21.6-2zM678 608.8l-138.4 164.8-164.8-138.4 138.4-164.8 164.8 138.4zM836 420.4l-138.4 164.8-164.8-138.4 138.4-164.8 164.8 138.4zM584 656.8l-43.2-36.4 36.4-43.2-15.6-13.2-36.4 43.2-43.2-36.4-13.2 15.6 43.2 36.4-36.4 43.2 15.6 13.2 36.4-43.2 43.2 36.4 13.2-15.6zM734.8 389.2l-15.6-13.2-85.6 102 15.6 13.2 85.6-102z" />
<glyph unicode="&#xe987;" glyph-name="surface_9A2" d="M670 111.6l-490.8 178.8 178.8 490.8 490.8-178.8-178.8-490.8zM504.8 466l73.6 202-202 73.6-73.6-202 202-73.6zM420.8 234.8l73.6 202-202 73.6-73.6-202 202-73.6zM327.6 383.2c-2.8-8-11.6-12-19.6-9.2s-12 11.6-9.2 19.6c2.8 8 11.6 12 19.6 9.2s12-11.6 9.2-19.6zM478 547.6l-18.4-8.8-24 51.2-51.2-24-8.8 18.4 51.2 24-24 51.2 18.4 8.8 24-51.2 51.2 24 8.8-18.4-51.2-24 24-51.2zM343.2 306.8l-19.2 7.2 45.6 125.2 19.2-7.2-45.6-125.2zM414 351.6c-2.8-8-11.6-12-19.6-9.2s-12 11.6-9.2 19.6c2.8 8 11.6 12 19.6 9.2s12.4-11.6 9.2-19.6zM735.6 381.6l73.6 202-202 73.6-73.6-202 202-73.6zM651.6 150.8l73.6 202-202 73.6-73.6-202 202-73.6zM730.4 487.2l-52.8 19.2-19.2-52.8-19.2 7.2 19.2 52.8-52.8 19.2 7.2 19.2 52.8-19.2 19.2 52.8 19.2-7.2-19.2-52.8 52.8-19.2-7.2-19.2zM574 222.4l-19.2 7.2 45.6 125.2 19.2-7.2-45.6-125.2z" />
<glyph unicode="&#xe988;" glyph-name="surface_9A3" d="M250.8 186.8v522.4h522.4v-522.4h-522.4zM527.2 463.2h215.2v215.2h-215.2v-215.2zM281.6 463.2h215.2v215.2h-215.2v-215.2zM389.2 601.6c-8.4 0-15.2 6.8-15.2 15.2s6.8 15.2 15.2 15.2c8.4 0 15.2-6.8 15.2-15.2s-6.8-15.2-15.2-15.2zM595.2 516.4l-14.4 14.4 40 40-40 40 14.4 14.4 40-40 40 40 14.4-14.4-40-40 40-40-14.4-14.4-40 40-40-40zM322.4 560.8v20.4h133.2v-20.4h-133.2zM389.2 509.6c-8.4 0-15.2 6.8-15.2 15.2s6.8 15.2 15.2 15.2c8.4 0 15.2-6.8 15.2-15.2s-6.8-15.2-15.2-15.2zM527.2 217.6h215.2v215.2h-215.2v-215.2zM281.6 217.6h215.2v215.2h-215.2v-215.2zM624.8 258.4v56.4h-56.4v20.4h56.4v56.4h20.4v-56.4h56.4v-20.4h-56.4v-56.4h-20.4zM322.4 314.8v20.4h133.2v-20.4h-133.2z" />
<glyph unicode="&#xe989;" glyph-name="surface_9A4" d="M153.6 545.2l452.4 261.2 261.2-452.4-452.4-261.2-261.2 452.4zM531.2 444l107.6-186.4 186.4 107.6-107.6 186.4-186.4-107.6zM408.4 656.8l107.6-186.4 186.4 107.6-107.6 186.4-186.4-107.6zM582 632.8c-4.4 7.2-1.6 16.8 5.6 20.8 7.2 4.4 16.8 1.6 20.8-5.6s1.6-16.8-5.6-20.8c-7.2-4-16.8-1.6-20.8 5.6zM611.2 412l5.2 19.6 54.4-14.4 14.4 54.4 19.6-5.2-14.4-54.4 54.4-14.4-5.2-19.6-54.4 14.4-14.4-54.4-19.6 5.2 14.4 54.4-54.4 14.4zM513.2 670l17.6 10.4 66.4-115.2-17.6-10.4-66.4 115.2zM502 586.8c-4.4 7.2-1.6 16.8 5.6 20.8 7.2 4.4 16.8 1.6 20.8-5.6 4.4-7.2 1.6-16.8-5.6-20.8-7.2-4.4-16.4-1.6-20.8 5.6zM318.4 321.2l107.6-186.4 186.4 107.6-107.6 186.4-186.4-107.6zM195.6 534l107.6-186.4 186.4 107.6-107.6 186.4-186.4-107.6zM402.4 257.6l48.8 28-28 48.8 17.6 10.4 28-48.8 48.8 28 10.4-17.6-48.8-28 28-48.8-17.6-10.4-28 48.8-48.8-28-10.4 17.6zM300.4 547.2l17.6 10.4 66.4-115.2-17.6-10.4-66.4 115.2z" />
<glyph unicode="&#xe98a;" glyph-name="surface_9A5" d="M414.8 806.4l452.4-261.2-261.2-452.4-452.4 261.2 261.2 452.4zM516 428.8l-107.6-186.4 186.4-107.6 107.6 186.4-186.4 107.6zM638.8 641.6l-107.6-186.4 186.4-107.6 107.6 186.4-186.4 107.6zM704.8 479.2c4.4 7.2 13.6 10 20.8 5.6s10-13.6 5.6-20.8-13.6-10-20.8-5.6c-7.2 4-10 13.6-5.6 20.8zM528 343.6l19.6 5.2 14.4-54.4 54.4 14.4 5.2-19.6-54.4-14.4 14.4-54.4-19.6-5.2-14.4 54.4-54.4-14.4-5.2 19.6 54.4 14.4-14.4 54.4zM702.4 557.6l17.6-10.4-66.4-115.2-17.6 10.4 66.4 115.2zM624.8 525.6c4.4 7.2 13.6 10 20.8 5.6s10-13.6 5.6-20.8c-4.4-7.2-13.6-10-20.8-5.6-7.2 4-9.6 13.2-5.6 20.8zM303.2 551.6l-107.6-186.4 186.4-107.6 107.6 186.4-186.4 107.6zM426 764.4l-107.6-186.4 186.4-107.6 107.6 186.4-186.4 107.6zM290 446.8l48.8-28 28 48.8 17.6-10.4-28-48.8 48.8-28-10.4-17.6-48.8 28-28-48.8-17.6 10.4 28 48.8-48.8 28 10.4 17.6zM489.6 680.4l17.6-10.4-66.4-115.2-17.6 10.4 66.4 115.2z" />
<glyph unicode="&#xe98b;" glyph-name="surface_9B1" d="M148.4 504.4l306.8-422.4 422.4 306.8-306.8 422.4-422.4-306.8zM534.8 443.2l174 126.4 126.4-174-174-126.4-126.4 174zM336 298.8l174 126.4 126.4-174-174-126.4-126.4 174zM504 250.4c-6.8-4.8-8.4-14.4-3.2-21.6 4.8-6.8 14.4-8.4 21.6-3.2 6.8 4.8 8.4 14.4 3.2 21.6-5.2 6.4-14.8 8-21.6 3.2zM620.8 440l-3.2-20.4 55.6-8.8-8.8-55.6 20.4-3.2 8.8 55.6 55.6-8.8 3.2 20.4-55.6 8.8 8.8 55.6-20.4 3.2-8.8-55.6-55.6 8.8zM426 244.4l12-16.4 107.6 78.4-12 16.4-107.6-78.4zM450 324.8c-6.8-4.8-8.4-14.4-3.2-21.6 4.8-6.8 14.4-8.4 21.6-3.2 6.8 4.8 8.4 14.4 3.2 21.6-5.2 6.8-14.8 8.4-21.6 3.2zM390.4 642.4l174 126.4 126.4-174-174-126.4-126.4 174zM191.2 497.6l174 126.4 126.4-174-174-126.4-126.4 174zM492.8 666.4l33.2-45.6-45.6-33.2 12-16.4 45.6 33.2 33.2-45.6 16.4 12-33.2 45.6 45.6 33.2-12 16.4-45.6-33.2-33.2 45.6-16.4-12zM281.6 443.2l12-16.4 107.6 78.4-12 16.4-107.6-78.4z" />
<glyph unicode="&#xe98c;" glyph-name="surface_9B2" d="M440.4 86.4l432.8 292-292 432.8-432.8-292 292-432.8zM515.2 470.4l-120.4 178.4 178.4 120.4 120.4-178.4-178.4-120.4zM652.4 266.8l-120.4 178.4 178.4 120.4 120.4-178.4-178.4-120.4zM707.2 433.2c4.8-7.2 14.4-8.8 21.2-4 7.2 4.8 8.8 14.4 4 21.2s-14.4 8.8-21.2 4c-7.2-4.8-8.8-14.4-4-21.2zM521.2 556.4l20-4 10.8 55.2 55.2-10.8 4 20-55.2 10.8 10.8 55.2-20 4-10.8-55.2-55.2 10.8-4-20 55.2-10.8-10.8-55.2zM710.4 354.8l16.8 11.6-74.4 110.4-16.8-11.6 74.4-110.4zM630.8 381.6c4.8-7.2 14.4-8.8 21.2-4 7.2 4.8 8.8 14.4 4 21.2-4.8 7.2-14.4 8.8-21.2 4-7.2-4.8-8.8-14.4-4-21.2zM311.2 332.8l-120.4 178.4 178.4 120.4 120.4-178.4-178.4-120.4zM448.8 129.2l-120.4 178.4 178.4 120.4 120.4-178.4-178.4-120.4zM290.8 436.4l46.8 31.6 31.6-46.8 16.8 11.6-31.6 46.8 46.8 31.6-11.6 16.8-46.8-31.6-31.6 46.8-16.8-11.6 31.6-46.8-46.8-31.6 11.6-16.8zM506.4 217.6l16.8 11.6-74.4 110.4-16.8-11.6 74.4-110.4z" />
<glyph unicode="&#xe98d;" glyph-name="surface_9B3" d="M773.2 186.8v522.4h-522.4v-522.4h522.4zM496.8 463.2h-215.2v215.2h215.2v-215.2zM742.4 463.2h-215.2v215.2h215.2v-215.2zM634.8 601.6c8.4 0 15.2 6.8 15.2 15.2s-6.8 15.2-15.2 15.2c-8.4 0-15.2-6.8-15.2-15.2s6.8-15.2 15.2-15.2zM428.8 516.4l14.4 14.4-40 40 40 40-14.4 14.4-40-40-40 40-14.4-14.4 40-40-40-40 14.4-14.4 40 40 40-40zM701.6 560.8v20.4h-133.2v-20.4h133.2zM634.8 509.6c8.4 0 15.2 6.8 15.2 15.2s-6.8 15.2-15.2 15.2c-8.4 0-15.2-6.8-15.2-15.2s6.8-15.2 15.2-15.2zM496.8 217.6h-215.2v215.2h215.2v-215.2zM742.4 217.6h-215.2v215.2h215.2v-215.2zM399.2 258.4v56.4h56.4v20.4h-56.4v56.4h-20.4v-56.4h-56.4v-20.4h56.4v-56.4h20.4zM701.6 314.8v20.4h-133.2v-20.4h133.2z" />
<glyph unicode="&#xe98e;" glyph-name="surface_9B4" d="M880 497.2l-417.2 314.4-314.4-417.2 417.2-314.4 314.4 417.2zM492.8 442.8l-129.6-171.6-171.6 129.6 129.6 171.6 171.6-129.6zM640.4 639.2l-129.6-171.6-171.6 129.6 129.6 171.6 171.6-129.6zM465.6 636.4c5.2 6.8 3.6 16.4-3.2 21.6s-16.4 3.6-21.6-3.2c-5.2-6.8-3.6-16.4 3.2-21.6 6.8-4.8 16.4-3.6 21.6 3.2zM409.6 420.8l-2.8 20.4-55.6-8-8 55.6-20.4-2.8 8-55.6-55.6-8 2.8-20.4 55.6 8 8-55.6 20.4 2.8-8 55.6 55.6 8zM538.4 664.8l-16.4 12.4-80-106.4 16.4-12.4 80 106.4zM539.2 580.8c5.2 6.8 3.6 16.4-3.2 21.6s-16.4 3.6-21.6-3.2c-5.2-6.8-3.6-16.4 3.2-21.6s16.4-3.6 21.6 3.2zM688.8 294.8l-129.6-171.6-171.6 129.6 129.6 171.6 171.6-129.6zM836.8 491.2l-129.6-171.6-171.6 129.6 129.6 171.6 171.6-129.6zM597.6 242l-44.8 34 34 44.8-16.4 12.4-34-44.8-44.8 34-12.4-16.4 44.8-34-34-44.8 16.4-12.4 34 44.8 44.8-34 12.4 16.4zM734.4 517.2l-16.4 12.4-80-106.4 16.4-12.4 80 106.4z" />
<glyph unicode="&#xe98f;" glyph-name="surface_9B5" d="M661.6 786l-487.6-187.2 187.2-487.6 487.6 187.2-187.2 487.6zM502.4 428.8l77.2-200.8-200.8-77.2-77.2 200.8 200.8 77.2zM414.4 658l77.2-200.8-200.8-77.2-77.2 200.8 200.8 77.2zM324 508.4c-3.2 8-12 12-20 8.8s-12-12-8.8-20 12-12 20-8.8 12 12 8.8 20zM477.2 346.4l-18.8 8.4-22.8-51.6-51.6 22.8-8.4-18.8 51.6-22.8-22.8-51.6 18.8-8.4 22.8 51.6 51.6-22.8 8.4 18.8-51.6 22.8 22.8 51.6zM338.4 585.2l-19.2-7.2 47.6-124.4 19.2 7.2-47.6 124.4zM410 541.2c-3.2 8-12 12-20 8.8s-12-12-8.8-20 12-12 20-8.8c8 3.2 12 12 8.8 20zM732 516.8l77.2-200.8-200.8-77.2-77.2 200.8 200.8 77.2zM644 746.4l77.2-200.8-200.8-77.2-77.2 200.8 200.8 77.2zM728.8 411.2l-52.4-20-20 52.4-19.2-7.2 20-52.4-52.4-20 7.2-19.2 52.4 20 20-52.4 19.2 7.2-20 52.4 52.4 20-7.2 19.2zM568 673.2l-19.2-7.2 47.6-124.4 19.2 7.2-47.6 124.4z" />
<glyph unicode="&#xe990;" glyph-name="surface_10A1" d="M275.2 524c-48.8-28.4-65.6-90.8-37.6-140l74.4-128.4c14.4-25.2 38.4-42 64.4-48.4 3.2-1.6 6.8-2.4 10.8-2.8 0.4 0 1.2 0 1.6 0l249.2-8.8c18.4-0.8 33.6 13.6 34.4 32v5.2c0.4 16-10.4 30.4-26.4 33.6l-80.4 17.2 216 124.8c16 9.2 21.2 29.6 12 45.6s-29.6 21.2-45.6 12l-135.2-78c-7.2-4-16-2-20.4 4.8l-0.4 0.8c-4.4 7.2-1.6 16.8 5.6 20.8l188.4 108.8c16 9.2 21.2 29.6 12 45.6s-29.6 21.2-45.6 12l-188.4-108.8c-7.2-4-16-2-20.4 4.8l-0.4 0.8c-4.4 7.2-1.6 16.8 5.6 20.8l170.8 98.4c16 9.2 21.2 29.6 12 45.6s-29.6 21.2-45.6 12l-172.8-100c-6-3.2-13.2-1.6-17.2 4l-0.4 0.8c-3.6 6-1.6 14 4.8 17.6l110.8 64c16 9.2 21.2 29.6 12 45.6s-29.6 21.2-45.6 12l-302.4-174.4z" />
<glyph unicode="&#xe991;" glyph-name="surface_10A2" d="M458.4 690.4c-48.8 28.4-111.6 11.6-140-37.6l-74.4-128.8c-14.4-25.2-17.2-54-9.6-80 0.4-3.6 1.2-7.2 2.8-10.8 0.4-0.4 0.4-1.2 0.8-1.6l117.2-220c8.8-16.4 28.8-22.4 45.2-13.6l4.8 2.4c14.4 7.6 21.2 24.4 16 39.6l-25.2 78.4 216-124.8c16-9.2 36.4-3.6 45.6 12 9.2 16 3.6 36.4-12 45.6l-135.2 78c-7.2 4-9.6 12.8-6 20l0.4 0.8c4.4 7.2 13.6 10 20.8 5.6l188.4-108.8c16-9.2 36.4-3.6 45.6 12s3.6 36.4-12 45.6l-188.4 108.8c-7.2 4-9.6 12.8-6 20l0.4 0.8c4.4 7.2 13.6 10 20.8 5.6l170.8-98.4c16-9.2 36.4-3.6 45.6 12 9.2 16 3.6 36.4-12 45.6l-172.8 100c-6 3.2-8 10.8-5.2 16.8l0.4 0.8c3.6 6 11.2 8.4 17.6 4.8l110.8-64c16-9.2 36.4-3.6 45.6 12 9.2 16 3.6 36.4-12 45.6l-304.8 175.6z" />
<glyph unicode="&#xe992;" glyph-name="surface_10A3" d="M747.6 632.4c0 56.4-46 102.4-102.4 102.4h-148.4c-29.2 0-55.6-12-74-31.6-2.8-2-5.6-4.8-8-8-0.4-0.4-0.8-0.8-0.8-1.6l-132-211.2c-9.6-15.6-4.8-36 10.4-46l4.4-2.8c13.6-8.4 31.6-6 42.4 6l55.2 61.2v-249.6c0-18.4 14.8-33.2 33.2-33.2s33.2 14.8 33.2 33.2v156c0 8 6.4 14.8 14.4 15.2h0.8c8.4 0 15.2-6.8 15.2-15.2v-217.6c0-18.4 14.8-33.2 33.2-33.2s33.2 14.8 33.2 33.2v217.6c0 8 6.4 14.8 14.4 15.2h0.8c8.4 0 15.2-6.8 15.2-15.2v-197.2c0-18.4 14.8-33.2 33.2-33.2s33.2 14.8 33.2 33.2v199.6c0 6.8 5.2 12.4 12 12.8h0.8c7.2 0 12.8-5.6 12.8-12.8v-128c0-18.4 14.8-33.2 33.2-33.2s33.2 14.8 33.2 33.2v350.8z" />
<glyph unicode="&#xe993;" glyph-name="surface_10A4" d="M748.4 375.6c48.8 28.4 65.6 90.8 37.6 140l-74.4 128.4c-14.4 25.2-38.4 42-64.4 48.4-3.2 1.6-6.8 2.4-10.8 2.8-0.4 0-1.2 0-1.6 0l-249.2 8.8c-18.4 0.8-33.6-13.6-34.4-32v-5.2c-0.4-16 10.4-30.4 26.4-33.6l80.4-17.2-216-124.8c-16-9.2-21.2-29.6-12-45.6s29.6-21.2 45.6-12l135.2 78c7.2 4 16 2 20.4-4.8l0.4-0.8c4.4-7.2 1.6-16.8-5.6-20.8l-188.4-108.8c-16-9.2-21.2-29.6-12-45.6s29.6-21.2 45.6-12l188.4 108.8c7.2 4 16 2 20.4-4.8l0.4-0.8c4.4-7.2 1.6-16.8-5.6-20.8l-170.8-98.4c-16-9.2-21.2-29.6-12-45.6s29.6-21.2 45.6-12l172.8 100c6 3.2 13.2 1.6 17.2-4l0.4-0.8c3.6-6 1.6-14-4.8-17.6l-110.8-64c-16-9.2-21.2-29.6-12-45.6s29.6-21.2 45.6-12l302.4 174.4z" />
</font>
</defs>
</svg>
